<svg version="1.1" id="Layer_1" xmlns:x="ns_extend;" xmlns:i="ns_ai;" xmlns:graph="ns_graphs;" xmlns="http://www.w3.org/2000/svg" xmlns:xlink="http://www.w3.org/1999/xlink" x="0px" y="0px" viewBox="0 0 437.4 75" style="enable-background:new 0 0 437.4 75;" xml:space="preserve">
 <style type="text/css">
  .st0{fill:#FFFFFF;}
 </style>
 <metadata>
  <sfw xmlns="ns_sfw;">
   <slices>
   </slices>
   <sliceSourceBounds bottomLeftOrigin="true" height="75" width="437.4" x="-298.2" y="0.3">
   </sliceSourceBounds>
  </sfw>
 </metadata>
 <g>
  <path class="st0" d="M54.4,0l6.1,8.5l-41,56.6h12.3l34.9-48.1l6.1,8.5L36.8,75H0L54.4,0z M49.1,75h36.8l7.2-9.9l4.2-5.8l-6.1-8.5
		L80.8,65.1H68.6l16.5-22.7l-6.1-8.5L49.1,75L49.1,75z">
  </path>
  <g>
   <path class="st0" d="M412,22.5c-5.1,0-8.5,1.3-12.3,3.4c-1.7-2.1-4.5-3.4-8.7-3.4c-4.2,0-7.5,1.6-10.7,3.6V23h-9.5v42.1h9.8V33.4
			c3.1-1.6,5.3-2.5,6.9-2.5c4.2,0,5.1,1.5,5.1,7.2v26.9h9.8V38.2c0-1.9-0.1-3.7-0.3-5.4c2.7-1.4,5.5-1.9,6.9-1.9
			c4.2,0,5.4,1.5,5.4,7.2v26.9h9.8V38.2C424.4,29.5,422.2,22.5,412,22.5 M269.7,46.3c0,6.1-1.6,10.7-8,10.7h-7.2V31.1
			c2.1-0.3,5.4-0.5,7.2-0.5c6.4,0,8,4.5,8,10.7V46.3L269.7,46.3z M261.7,22.5c-1.8,0-4.4,0.1-7.2,0.5V8.4h-9.8V65h17
			c12,0,17.8-7.1,17.8-18.7v-5C279.6,29.6,273.7,22.5,261.7,22.5 M141.3,40.5h-15.8v-0.3c0-5.9,3.4-9.2,8-9.2s7.8,3.4,7.8,9.2V40.5z
			 M133.4,22.5c-11.4,0-17.9,7.3-17.9,18.9V47c0,14.7,10.6,18.7,18,18.7c5.5,0,8.4-0.2,12-0.8h0c0.8-0.1,1.6-0.3,2.4-0.4
			c0,0,0,0,0.1,0l1.5-0.3v-1.3c0-0.1,0-0.2,0-0.3v-4.9c0,0,0-0.1,0-0.1v-1.2l-1.5,0.1h0c-0.1,0-0.3,0-0.4,0l-2.3,0.2
			c-3,0.2-6.9,0.5-10.9,0.5c-7.2,0-8.9-5.1-8.9-9.5v-0.2h25.8v-6C151.2,30.3,144.9,22.5,133.4,22.5 M312.2,40.5h-15.8v-0.3
			c0-5.9,3.4-9.2,8-9.2s7.8,3.4,7.8,9.2V40.5z M304.4,22.5c-11.4,0-17.9,7.3-17.9,18.9V47c0,14.7,10.6,18.7,18,18.7
			c5.5,0,8.4-0.2,12-0.8h0c0.8-0.1,1.6-0.3,2.4-0.4c0,0,0,0,0.1,0l1.5-0.3v-1.3c0-0.1,0-0.2,0-0.3v-4.9c0,0,0-0.1,0-0.1v-1.2
			l-1.5,0.1h0c-0.1,0-0.3,0-0.4,0l-2.3,0.2c-3,0.2-6.9,0.5-10.9,0.5c-7.2,0-8.9-5.1-8.9-9.5v-0.2h25.8v-6
			C322.1,30.3,315.9,22.5,304.4,22.5 M224.5,55.8c-2.2,1.2-4.9,2.1-7.6,2.1c-3.7,0-5.4-1-5.4-4.6v-0.3c0-4.2,1.5-6.3,8.3-6.3h4.7
			L224.5,55.8L224.5,55.8z M217.9,22.5c-4.5,0-8.4,0.5-11.3,1c-2.9,0.5-0.5,0.1-0.5,0.1c-0.2,0-0.4,0.1-0.7,0.1c0,0,0,0,0,0
			l-1.4,0.3v1.1c0,0.1,0,0.1,0,0.2v4.8c0,0.1,0,0.1,0,0.2v1.2l2.5-0.2v0c2.6-0.3,7-0.5,11.3-0.5s6.6,1.2,6.6,6V40h-4.7
			c-13,0-18.2,4.4-18.2,12.9v0.3c0,10.1,6.7,12.5,12.9,12.5c3.6,0,7.1-1.2,10.5-3.3v2.7h9.3V36.8C234.3,27.2,228.5,22.5,217.9,22.5
			 M351.6,55.8c-2.2,1.2-4.9,2.1-7.6,2.1c-3.7,0-5.4-1-5.4-4.6v-0.3c0-4.2,1.5-6.3,8.3-6.3h4.7L351.6,55.8L351.6,55.8z M345,22.5
			c-4.5,0-8.4,0.5-11.3,1s-0.5,0.1-0.5,0.1c-0.2,0-0.4,0.1-0.7,0.1c0,0,0,0,0,0l-1.4,0.3v1.1c0,0.1,0,0.1,0,0.2v4.8
			c0,0.1,0,0.1,0,0.2v1.2l2.5-0.2v0c2.6-0.3,7-0.5,11.3-0.5c4.3,0,6.6,1.2,6.6,6V40h-4.7c-13,0-18.2,4.4-18.2,12.9v0.3
			c0,10.1,6.7,12.5,12.9,12.5c3.6,0,7.1-1.2,10.5-3.3v2.7h9.3V36.8C361.4,27.2,355.6,22.5,345,22.5 M186.4,23l-10.2,14L166,23h-10.2
			l15.3,21l-15.3,21H166l10.2-14l10.2,14h10.2l-15.3-21l15.3-21C196.6,23,186.4,23,186.4,23z">
   </path>
  </g>
  <path class="st0" d="M428.8,32.6c-1-1-1.5-2.2-1.5-3.6s0.5-2.6,1.5-3.6c1-1,2.2-1.4,3.6-1.4c1.4,0,2.6,0.5,3.6,1.5
		c1,1,1.5,2.2,1.5,3.6c0,1.4-0.5,2.6-1.5,3.6c-1,1-2.2,1.5-3.6,1.5C431,34,429.8,33.5,428.8,32.6L428.8,32.6z M435.1,31.8
		c0.7-0.8,1.1-1.7,1.1-2.9c0-1.1-0.4-2-1.1-2.8c-0.8-0.8-1.7-1.1-2.7-1.1c-1.1,0-2,0.4-2.8,1.1c-0.8,0.8-1.1,1.7-1.1,2.8
		s0.4,2.1,1.1,2.9c0.8,0.8,1.7,1.1,2.8,1.1C433.5,33,434.4,32.6,435.1,31.8z M434.1,29.9c0-0.1-0.1-0.2-0.1-0.2c0,0,0-0.1-0.1-0.1
		c0-0.1-0.1-0.1-0.1-0.1c0,0-0.1-0.1-0.1-0.1c-0.1,0-0.1-0.1-0.2-0.1c0.2-0.1,0.5-0.2,0.6-0.4s0.2-0.5,0.2-0.9c0-0.4-0.2-0.8-0.5-1
		c-0.3-0.2-0.8-0.4-1.3-0.4h-2v4.7h1.2v-1.6h0.4c0.4,0,0.6,0.2,0.7,0.6c0.2,0.6,0.3,0.9,0.5,1h1.2v-0.1c-0.1-0.1-0.3-0.5-0.5-1.1
		C434.1,30.1,434.1,30,434.1,29.9L434.1,29.9z M431.8,28.7v-1.1h0.7c0.5,0,0.7,0.2,0.7,0.5c0,0.2-0.1,0.3-0.2,0.4
		c-0.1,0.1-0.3,0.2-0.5,0.2L431.8,28.7L431.8,28.7z">
  </path>
 </g>
</svg>