<svg width="951" height="218" viewBox="0 0 951 218" fill="none" xmlns="http://www.w3.org/2000/svg">
<rect x="0.590111" y="149.878" width="166" height="51" rx="9.5" transform="rotate(-11.5682 0.590111 149.878)" fill="black" fill-opacity="0.3"/>
<rect x="0.590111" y="149.878" width="166" height="51" rx="9.5" transform="rotate(-11.5682 0.590111 149.878)" stroke="white"/>
<path d="M32.4413 159.736L35.9415 176.836L33.8708 177.26L30.3706 160.16L32.4413 159.736ZM46.8198 161.247C46.5464 160.422 46.0056 159.848 45.1974 159.526C44.3892 159.204 43.4674 159.149 42.432 159.361C41.675 159.516 41.0377 159.774 40.52 160.136C40.0079 160.496 39.6371 160.922 39.4076 161.416C39.1836 161.908 39.1274 162.427 39.2391 162.973C39.3325 163.429 39.5214 163.799 39.8057 164.083C40.0945 164.361 40.4336 164.573 40.8232 164.719C41.2116 164.86 41.6093 164.961 42.0163 165.023C42.4221 165.079 42.7923 165.116 43.1266 165.135L44.9591 165.247C45.4283 165.273 45.9568 165.333 46.5444 165.427C47.1377 165.52 47.7212 165.694 48.2951 165.947C48.8734 166.194 49.3832 166.56 49.8244 167.044C50.2656 167.527 50.5683 168.17 50.7324 168.972C50.9215 169.896 50.8503 170.78 50.5187 171.625C50.1927 172.469 49.6126 173.206 48.7786 173.834C47.9502 174.462 46.8791 174.91 45.5655 175.179C44.3408 175.43 43.24 175.45 42.2629 175.238C41.2914 175.025 40.4772 174.617 39.8204 174.015C39.1692 173.412 38.7144 172.65 38.4562 171.728L40.5937 171.291C40.7815 171.925 41.108 172.415 41.5731 172.76C42.0427 173.099 42.5907 173.312 43.2174 173.398C43.8484 173.478 44.5035 173.448 45.1826 173.309C45.973 173.147 46.6566 172.874 47.2331 172.489C47.8086 172.099 48.2327 171.635 48.5055 171.098C48.7772 170.555 48.8492 169.972 48.7216 169.348C48.6054 168.781 48.3522 168.351 47.962 168.06C47.5718 167.769 47.0951 167.565 46.5318 167.448C45.9685 167.331 45.3692 167.251 44.7339 167.207L42.5067 167.036C41.0922 166.926 39.9223 166.594 38.9972 166.041C38.0721 165.488 37.4916 164.635 37.2557 163.483C37.0597 162.526 37.1477 161.638 37.5195 160.819C37.8957 159.994 38.4832 159.294 39.2818 158.719C40.0848 158.137 41.0318 157.734 42.1228 157.511C43.225 157.285 44.2451 157.282 45.1832 157.502C46.1202 157.716 46.9087 158.112 47.5487 158.688C48.1942 159.264 48.6192 159.98 48.8237 160.837L46.8198 161.247ZM67.7652 161.414C68.1343 163.217 68.1277 164.843 67.7454 166.29C67.363 167.737 66.677 168.933 65.6873 169.877C64.6976 170.822 63.4735 171.444 62.0151 171.743C60.5567 172.041 59.1868 171.95 57.9054 171.47C56.624 170.99 55.5233 170.16 54.6031 168.98C53.6829 167.799 53.0383 166.307 52.6691 164.504C52.2999 162.7 52.3065 161.075 52.6889 159.628C53.0713 158.181 53.7573 156.985 54.747 156.04C55.7367 155.095 56.9608 154.474 58.4192 154.175C59.8775 153.877 61.2474 153.967 62.5288 154.447C63.8102 154.927 64.911 155.758 65.8312 156.938C66.7513 158.118 67.396 159.61 67.7652 161.414ZM65.7613 161.824C65.4582 160.343 64.9547 159.144 64.2508 158.227C63.5524 157.309 62.7294 156.674 61.7818 156.323C60.8397 155.97 59.851 155.9 58.8157 156.112C57.7803 156.324 56.8959 156.778 56.1625 157.473C55.4346 158.167 54.9273 159.074 54.6404 160.194C54.359 161.313 54.3699 162.613 54.673 164.094C54.9761 165.574 55.4768 166.774 56.1751 167.692C56.8791 168.61 57.7021 169.244 58.6441 169.597C59.5918 169.948 60.5832 170.017 61.6186 169.806C62.6539 169.594 63.5355 169.141 64.2634 168.446C64.9968 167.751 65.5042 166.844 65.7855 165.725C66.0724 164.605 66.0643 163.305 65.7613 161.824ZM79.3094 167.959L79.0017 166.456L83.3813 159.122C83.8956 158.263 84.3124 157.522 84.6316 156.9C84.9497 156.272 85.1633 155.701 85.2724 155.186C85.3859 154.664 85.3891 154.141 85.282 153.618C85.159 153.017 84.9077 152.526 84.5283 152.145C84.1544 151.764 83.6952 151.504 83.1508 151.366C82.6064 151.228 82.0253 151.222 81.4074 151.349C80.7506 151.483 80.2051 151.737 79.7711 152.11C79.3415 152.476 79.0427 152.929 78.8746 153.468C78.7122 154.006 78.6976 154.6 78.8309 155.251L76.8604 155.655C76.6553 154.653 76.7063 153.726 77.0133 152.874C77.3204 152.023 77.8286 151.304 78.538 150.718C79.253 150.131 80.1086 149.735 81.105 149.531C82.107 149.326 83.0381 149.356 83.8984 149.621C84.7588 149.886 85.4823 150.332 86.069 150.96C86.6557 151.588 87.0391 152.342 87.2191 153.221C87.3479 153.85 87.3597 154.489 87.2545 155.137C87.1538 155.778 86.9003 156.523 86.4941 157.371C86.0922 158.213 85.5092 159.261 84.7448 160.513L81.7449 165.407L81.7722 165.541L89.7211 163.914L90.0971 165.751L79.3094 167.959ZM94.0798 164.936L98.6312 148.241L98.6038 148.107L89.7866 149.912L89.4106 148.075L100.365 145.833L100.762 147.77L96.2507 164.491L94.0798 164.936ZM112.236 161.463C110.978 161.72 109.836 161.597 108.811 161.094C107.785 160.585 106.904 159.724 106.169 158.512C105.432 157.294 104.874 155.755 104.493 153.896C104.115 152.048 104.025 150.422 104.225 149.018C104.43 147.608 104.904 146.467 105.647 145.595C106.396 144.717 107.393 144.15 108.64 143.895C109.887 143.64 111.024 143.77 112.051 144.284C113.083 144.792 113.968 145.655 114.704 146.873C115.445 148.084 116.005 149.614 116.383 151.462C116.763 153.321 116.854 154.956 116.656 156.365C116.456 157.769 115.984 158.906 115.24 159.778C114.495 160.644 113.494 161.205 112.236 161.463ZM111.86 159.626C113.107 159.371 113.952 158.571 114.396 157.228C114.84 155.884 114.835 154.099 114.379 151.872C114.076 150.392 113.659 149.163 113.129 148.187C112.604 147.21 111.991 146.509 111.289 146.085C110.593 145.659 109.833 145.53 109.009 145.699C107.773 145.952 106.932 146.759 106.486 148.12C106.039 149.476 106.042 151.265 106.497 153.486C106.8 154.966 107.213 156.193 107.737 157.164C108.261 158.136 108.87 158.832 109.565 159.252C110.265 159.671 111.03 159.796 111.86 159.626ZM126.931 158.455C125.673 158.712 124.532 158.589 123.506 158.086C122.48 157.577 121.599 156.716 120.864 155.504C120.127 154.286 119.569 152.747 119.188 150.888C118.81 149.04 118.721 147.414 118.921 146.01C119.125 144.6 119.599 143.459 120.343 142.587C121.091 141.709 122.088 141.142 123.335 140.887C124.582 140.632 125.719 140.762 126.747 141.276C127.779 141.784 128.663 142.647 129.399 143.865C130.14 145.076 130.7 146.606 131.078 148.454C131.459 150.313 131.55 151.948 131.351 153.357C131.151 154.761 130.679 155.898 129.936 156.77C129.191 157.636 128.189 158.197 126.931 158.455ZM126.555 156.618C127.802 156.363 128.648 155.563 129.092 154.22C129.536 152.876 129.53 151.091 129.074 148.864C128.771 147.384 128.354 146.155 127.824 145.179C127.299 144.202 126.686 143.501 125.984 143.077C125.288 142.651 124.528 142.522 123.704 142.691C122.469 142.944 121.628 143.751 121.181 145.112C120.734 146.468 120.738 148.257 121.192 150.478C121.495 151.958 121.909 153.184 122.432 154.156C122.956 155.128 123.565 155.824 124.26 156.244C124.961 156.663 125.726 156.788 126.555 156.618ZM138.513 138.024L142.013 155.124L139.942 155.548L136.886 140.619L136.786 140.639L133.179 144.266L132.748 142.162L136.442 138.448L138.513 138.024Z" fill="white"/>
<rect x="103.5" y="60.5" width="180" height="51" rx="9.5" fill="black" fill-opacity="0.3"/>
<rect x="103.5" y="60.5" width="180" height="51" rx="9.5" stroke="white"/>
<path d="M129.159 80.9091C129.057 80.0455 128.642 79.375 127.915 78.8977C127.188 78.4205 126.295 78.1818 125.239 78.1818C124.466 78.1818 123.79 78.3068 123.21 78.5568C122.636 78.8068 122.188 79.1506 121.864 79.5881C121.545 80.0256 121.386 80.5227 121.386 81.0795C121.386 81.5455 121.497 81.946 121.719 82.2812C121.946 82.6108 122.236 82.8864 122.588 83.108C122.94 83.3239 123.31 83.5028 123.696 83.6449C124.082 83.7812 124.438 83.892 124.761 83.9773L126.534 84.4545C126.989 84.5739 127.494 84.7386 128.051 84.9489C128.614 85.1591 129.151 85.446 129.662 85.8097C130.179 86.1676 130.605 86.6278 130.94 87.1903C131.276 87.7528 131.443 88.4432 131.443 89.2614C131.443 90.2045 131.196 91.0568 130.702 91.8182C130.213 92.5795 129.497 93.1847 128.554 93.6335C127.616 94.0824 126.477 94.3068 125.136 94.3068C123.886 94.3068 122.804 94.1051 121.889 93.7017C120.98 93.2983 120.264 92.7358 119.741 92.0142C119.224 91.2926 118.932 90.4545 118.864 89.5H121.045C121.102 90.1591 121.324 90.7045 121.71 91.1364C122.102 91.5625 122.597 91.8807 123.193 92.0909C123.795 92.2955 124.443 92.3977 125.136 92.3977C125.943 92.3977 126.668 92.267 127.31 92.0057C127.952 91.7386 128.46 91.3693 128.835 90.8977C129.21 90.4205 129.398 89.8636 129.398 89.2273C129.398 88.6477 129.236 88.1761 128.912 87.8125C128.588 87.4489 128.162 87.1534 127.634 86.9261C127.105 86.6989 126.534 86.5 125.92 86.3295L123.773 85.7159C122.409 85.3239 121.33 84.7642 120.534 84.0369C119.739 83.3097 119.341 82.358 119.341 81.1818C119.341 80.2045 119.605 79.3523 120.134 78.625C120.668 77.892 121.384 77.3239 122.281 76.9205C123.185 76.5114 124.193 76.3068 125.307 76.3068C126.432 76.3068 127.432 76.5085 128.307 76.9119C129.182 77.3097 129.875 77.8551 130.386 78.5483C130.903 79.2415 131.176 80.0284 131.205 80.9091H129.159ZM139.964 94.2727C138.782 94.2727 137.745 93.9915 136.853 93.429C135.967 92.8665 135.273 92.0795 134.773 91.0682C134.279 90.0568 134.032 88.875 134.032 87.5227C134.032 86.1591 134.279 84.9687 134.773 83.9517C135.273 82.9347 135.967 82.1449 136.853 81.5824C137.745 81.0199 138.782 80.7386 139.964 80.7386C141.146 80.7386 142.18 81.0199 143.066 81.5824C143.958 82.1449 144.651 82.9347 145.146 83.9517C145.646 84.9687 145.896 86.1591 145.896 87.5227C145.896 88.875 145.646 90.0568 145.146 91.0682C144.651 92.0795 143.958 92.8665 143.066 93.429C142.18 93.9915 141.146 94.2727 139.964 94.2727ZM139.964 92.4659C140.862 92.4659 141.6 92.2358 142.18 91.7756C142.759 91.3153 143.188 90.7102 143.467 89.9602C143.745 89.2102 143.884 88.3977 143.884 87.5227C143.884 86.6477 143.745 85.8324 143.467 85.0767C143.188 84.321 142.759 83.7102 142.18 83.2443C141.6 82.7784 140.862 82.5455 139.964 82.5455C139.066 82.5455 138.327 82.7784 137.748 83.2443C137.168 83.7102 136.739 84.321 136.461 85.0767C136.183 85.8324 136.043 86.6477 136.043 87.5227C136.043 88.3977 136.183 89.2102 136.461 89.9602C136.739 90.7102 137.168 91.3153 137.748 91.7756C138.327 92.2358 139.066 92.4659 139.964 92.4659ZM154.284 94.2727C153.057 94.2727 152 93.983 151.114 93.4034C150.227 92.8239 149.545 92.0256 149.068 91.0085C148.591 89.9915 148.352 88.8295 148.352 87.5227C148.352 86.1932 148.597 85.0199 149.085 84.0028C149.58 82.9801 150.267 82.1818 151.148 81.608C152.034 81.0284 153.068 80.7386 154.25 80.7386C155.17 80.7386 156 80.9091 156.739 81.25C157.477 81.5909 158.082 82.0682 158.554 82.6818C159.026 83.2955 159.318 84.0114 159.432 84.8295H157.42C157.267 84.233 156.926 83.7045 156.398 83.2443C155.875 82.7784 155.17 82.5455 154.284 82.5455C153.5 82.5455 152.813 82.75 152.222 83.1591C151.636 83.5625 151.179 84.1335 150.849 84.8722C150.526 85.6051 150.364 86.4659 150.364 87.4545C150.364 88.4659 150.523 89.3466 150.841 90.0966C151.165 90.8466 151.619 91.429 152.205 91.8438C152.795 92.2585 153.489 92.4659 154.284 92.4659C154.807 92.4659 155.281 92.375 155.707 92.1932C156.134 92.0114 156.494 91.75 156.79 91.4091C157.085 91.0682 157.295 90.6591 157.42 90.1818H159.432C159.318 90.9545 159.037 91.6506 158.588 92.2699C158.145 92.8835 157.557 93.3722 156.824 93.7358C156.097 94.0938 155.25 94.2727 154.284 94.2727ZM169.088 94V92.4659L174.849 86.1591C175.526 85.4205 176.082 84.7784 176.52 84.233C176.957 83.6818 177.281 83.1648 177.491 82.6818C177.707 82.1932 177.815 81.6818 177.815 81.1477C177.815 80.5341 177.668 80.0028 177.372 79.554C177.082 79.1051 176.685 78.7585 176.179 78.5142C175.673 78.2699 175.105 78.1477 174.474 78.1477C173.804 78.1477 173.219 78.2869 172.719 78.5653C172.224 78.8381 171.841 79.2216 171.568 79.7159C171.301 80.2102 171.168 80.7898 171.168 81.4545H169.156C169.156 80.4318 169.392 79.5341 169.864 78.7614C170.335 77.9886 170.977 77.3864 171.79 76.9545C172.608 76.5227 173.526 76.3068 174.543 76.3068C175.565 76.3068 176.472 76.5227 177.261 76.9545C178.051 77.3864 178.67 77.9687 179.119 78.7017C179.568 79.4347 179.793 80.25 179.793 81.1477C179.793 81.7898 179.676 82.4176 179.443 83.0312C179.216 83.6392 178.818 84.3182 178.25 85.0682C177.688 85.8125 176.906 86.7216 175.906 87.7955L171.986 91.9886V92.125H180.099V94H169.088ZM189.722 78.4205V76.5455H202.812V78.4205H197.324V94H195.21V78.4205H189.722ZM205.597 98.9091C205.256 98.9091 204.952 98.8807 204.685 98.8239C204.418 98.7727 204.234 98.7216 204.131 98.6705L204.643 96.8977C205.131 97.0227 205.563 97.0682 205.938 97.0341C206.313 97 206.646 96.8324 206.935 96.5312C207.231 96.2358 207.501 95.7557 207.745 95.0909L208.12 94.0682L203.279 80.9091H205.461L209.075 91.3409H209.211L212.825 80.9091H215.006L209.45 95.9091C209.2 96.5852 208.89 97.1449 208.521 97.5881C208.151 98.0369 207.722 98.3693 207.234 98.5852C206.751 98.8011 206.205 98.9091 205.597 98.9091ZM217.661 98.9091V80.9091H219.604V82.9886H219.843C219.991 82.7614 220.195 82.4716 220.457 82.1193C220.724 81.7614 221.104 81.4432 221.599 81.1648C222.099 80.8807 222.775 80.7386 223.627 80.7386C224.729 80.7386 225.701 81.0142 226.542 81.5653C227.383 82.1165 228.039 82.8977 228.511 83.9091C228.982 84.9205 229.218 86.1136 229.218 87.4886C229.218 88.875 228.982 90.0767 228.511 91.0938C228.039 92.1051 227.386 92.8892 226.55 93.446C225.715 93.9972 224.752 94.2727 223.661 94.2727C222.82 94.2727 222.147 94.1335 221.641 93.8551C221.136 93.571 220.746 93.25 220.474 92.892C220.201 92.5284 219.991 92.2273 219.843 91.9886H219.673V98.9091H217.661ZM219.638 87.4545C219.638 88.4432 219.783 89.3153 220.073 90.071C220.363 90.821 220.786 91.4091 221.343 91.8352C221.9 92.2557 222.582 92.4659 223.388 92.4659C224.229 92.4659 224.931 92.2443 225.494 91.8011C226.062 91.3523 226.488 90.75 226.772 89.9943C227.062 89.233 227.207 88.3864 227.207 87.4545C227.207 86.5341 227.065 85.7045 226.781 84.9659C226.502 84.2216 226.079 83.6335 225.511 83.2017C224.948 82.7642 224.241 82.5455 223.388 82.5455C222.57 82.5455 221.883 82.7528 221.326 83.1676C220.769 83.5767 220.349 84.1506 220.065 84.8892C219.781 85.6222 219.638 86.4773 219.638 87.4545ZM237.775 94.2727C236.513 94.2727 235.425 93.9943 234.511 93.4375C233.602 92.875 232.9 92.0909 232.406 91.0852C231.917 90.0739 231.673 88.8977 231.673 87.5568C231.673 86.2159 231.917 85.0341 232.406 84.0114C232.9 82.983 233.587 82.1818 234.468 81.608C235.354 81.0284 236.388 80.7386 237.57 80.7386C238.252 80.7386 238.925 80.8523 239.59 81.0795C240.255 81.3068 240.86 81.6761 241.406 82.1875C241.951 82.6932 242.386 83.3636 242.71 84.1989C243.033 85.0341 243.195 86.0625 243.195 87.2841V88.1364H233.104V86.3977H241.15C241.15 85.6591 241.002 85 240.707 84.4205C240.417 83.8409 240.002 83.3835 239.462 83.0483C238.928 82.7131 238.298 82.5455 237.57 82.5455C236.769 82.5455 236.076 82.7443 235.491 83.142C234.911 83.5341 234.465 84.0455 234.153 84.6761C233.84 85.3068 233.684 85.983 233.684 86.7045V87.8636C233.684 88.8523 233.854 89.6903 234.195 90.3778C234.542 91.0597 235.022 91.5795 235.636 91.9375C236.249 92.2898 236.962 92.4659 237.775 92.4659C238.303 92.4659 238.781 92.392 239.207 92.2443C239.638 92.0909 240.011 91.8636 240.323 91.5625C240.636 91.2557 240.877 90.875 241.048 90.4205L242.991 90.9659C242.786 91.625 242.442 92.2045 241.96 92.7045C241.477 93.1989 240.88 93.5852 240.17 93.8636C239.46 94.1364 238.661 94.2727 237.775 94.2727ZM255.391 76.5455V94H253.278V76.5455H255.391ZM261.743 76.5455V94H259.629V76.5455H261.743Z" fill="white"/>
<rect x="186.5" y="163.5" width="154" height="51" rx="9.5" fill="black" fill-opacity="0.3"/>
<rect x="186.5" y="163.5" width="154" height="51" rx="9.5" stroke="white"/>
<path d="M218.786 197V179.545H224.683C226.053 179.545 227.172 179.793 228.041 180.287C228.916 180.776 229.564 181.438 229.984 182.273C230.405 183.108 230.615 184.04 230.615 185.068C230.615 186.097 230.405 187.031 229.984 187.872C229.57 188.713 228.928 189.384 228.058 189.884C227.189 190.378 226.075 190.625 224.717 190.625H220.49V188.75H224.649C225.587 188.75 226.339 188.588 226.908 188.264C227.476 187.94 227.888 187.503 228.143 186.952C228.405 186.395 228.536 185.767 228.536 185.068C228.536 184.369 228.405 183.744 228.143 183.193C227.888 182.642 227.473 182.21 226.899 181.898C226.325 181.58 225.564 181.42 224.615 181.42H220.899V197H218.786ZM248.065 185H245.952C245.827 184.392 245.608 183.858 245.295 183.398C244.989 182.938 244.614 182.551 244.17 182.239C243.733 181.92 243.247 181.682 242.713 181.523C242.179 181.364 241.622 181.284 241.043 181.284C239.986 181.284 239.028 181.551 238.17 182.085C237.318 182.619 236.639 183.406 236.134 184.446C235.634 185.486 235.384 186.761 235.384 188.273C235.384 189.784 235.634 191.06 236.134 192.099C236.639 193.139 237.318 193.926 238.17 194.46C239.028 194.994 239.986 195.261 241.043 195.261C241.622 195.261 242.179 195.182 242.713 195.023C243.247 194.864 243.733 194.628 244.17 194.315C244.614 193.997 244.989 193.608 245.295 193.148C245.608 192.682 245.827 192.148 245.952 191.545H248.065C247.906 192.437 247.616 193.236 247.196 193.94C246.776 194.645 246.253 195.244 245.628 195.739C245.003 196.227 244.301 196.599 243.523 196.855C242.75 197.111 241.923 197.239 241.043 197.239C239.554 197.239 238.23 196.875 237.071 196.148C235.912 195.42 235 194.386 234.335 193.045C233.67 191.705 233.338 190.114 233.338 188.273C233.338 186.432 233.67 184.841 234.335 183.5C235 182.159 235.912 181.125 237.071 180.398C238.23 179.67 239.554 179.307 241.043 179.307C241.923 179.307 242.75 179.435 243.523 179.69C244.301 179.946 245.003 180.321 245.628 180.815C246.253 181.304 246.776 181.901 247.196 182.605C247.616 183.304 247.906 184.102 248.065 185ZM253.594 179.545V197H251.481V179.545H253.594ZM269.969 197H264.582V179.545H270.207C271.901 179.545 273.349 179.895 274.554 180.594C275.759 181.287 276.682 182.284 277.324 183.585C277.966 184.881 278.287 186.432 278.287 188.239C278.287 190.057 277.963 191.622 277.315 192.935C276.668 194.241 275.724 195.247 274.486 195.952C273.247 196.651 271.741 197 269.969 197ZM266.696 195.125H269.832C271.276 195.125 272.472 194.847 273.42 194.29C274.369 193.733 275.077 192.94 275.543 191.912C276.009 190.884 276.241 189.659 276.241 188.239C276.241 186.83 276.011 185.616 275.551 184.599C275.091 183.577 274.403 182.793 273.489 182.247C272.574 181.696 271.435 181.42 270.071 181.42H266.696V195.125ZM291.378 183.909C291.276 183.045 290.861 182.375 290.134 181.898C289.406 181.42 288.514 181.182 287.457 181.182C286.685 181.182 286.009 181.307 285.429 181.557C284.855 181.807 284.406 182.151 284.082 182.588C283.764 183.026 283.605 183.523 283.605 184.08C283.605 184.545 283.716 184.946 283.938 185.281C284.165 185.611 284.455 185.886 284.807 186.108C285.159 186.324 285.528 186.503 285.915 186.645C286.301 186.781 286.656 186.892 286.98 186.977L288.753 187.455C289.207 187.574 289.713 187.739 290.27 187.949C290.832 188.159 291.369 188.446 291.881 188.81C292.398 189.168 292.824 189.628 293.159 190.19C293.494 190.753 293.662 191.443 293.662 192.261C293.662 193.205 293.415 194.057 292.92 194.818C292.432 195.58 291.716 196.185 290.773 196.634C289.835 197.082 288.696 197.307 287.355 197.307C286.105 197.307 285.023 197.105 284.108 196.702C283.199 196.298 282.483 195.736 281.96 195.014C281.443 194.293 281.151 193.455 281.082 192.5H283.264C283.321 193.159 283.543 193.705 283.929 194.136C284.321 194.562 284.815 194.881 285.412 195.091C286.014 195.295 286.662 195.398 287.355 195.398C288.162 195.398 288.886 195.267 289.528 195.006C290.17 194.739 290.679 194.369 291.054 193.898C291.429 193.42 291.616 192.864 291.616 192.227C291.616 191.648 291.455 191.176 291.131 190.812C290.807 190.449 290.381 190.153 289.852 189.926C289.324 189.699 288.753 189.5 288.139 189.33L285.991 188.716C284.628 188.324 283.548 187.764 282.753 187.037C281.957 186.31 281.56 185.358 281.56 184.182C281.56 183.205 281.824 182.352 282.352 181.625C282.886 180.892 283.602 180.324 284.5 179.92C285.403 179.511 286.412 179.307 287.526 179.307C288.651 179.307 289.651 179.509 290.526 179.912C291.401 180.31 292.094 180.855 292.605 181.548C293.122 182.241 293.395 183.028 293.423 183.909H291.378ZM306.683 183.909C306.58 183.045 306.165 182.375 305.438 181.898C304.711 181.42 303.819 181.182 302.762 181.182C301.989 181.182 301.313 181.307 300.734 181.557C300.16 181.807 299.711 182.151 299.387 182.588C299.069 183.026 298.91 183.523 298.91 184.08C298.91 184.545 299.021 184.946 299.242 185.281C299.469 185.611 299.759 185.886 300.112 186.108C300.464 186.324 300.833 186.503 301.219 186.645C301.606 186.781 301.961 186.892 302.285 186.977L304.058 187.455C304.512 187.574 305.018 187.739 305.575 187.949C306.137 188.159 306.674 188.446 307.185 188.81C307.702 189.168 308.129 189.628 308.464 190.19C308.799 190.753 308.967 191.443 308.967 192.261C308.967 193.205 308.719 194.057 308.225 194.818C307.737 195.58 307.021 196.185 306.077 196.634C305.14 197.082 304.001 197.307 302.66 197.307C301.41 197.307 300.327 197.105 299.413 196.702C298.504 196.298 297.788 195.736 297.265 195.014C296.748 194.293 296.455 193.455 296.387 192.5H298.569C298.626 193.159 298.847 193.705 299.234 194.136C299.626 194.562 300.12 194.881 300.717 195.091C301.319 195.295 301.967 195.398 302.66 195.398C303.467 195.398 304.191 195.267 304.833 195.006C305.475 194.739 305.984 194.369 306.359 193.898C306.734 193.42 306.921 192.864 306.921 192.227C306.921 191.648 306.759 191.176 306.435 190.812C306.112 190.449 305.685 190.153 305.157 189.926C304.629 189.699 304.058 189.5 303.444 189.33L301.296 188.716C299.933 188.324 298.853 187.764 298.058 187.037C297.262 186.31 296.864 185.358 296.864 184.182C296.864 183.205 297.129 182.352 297.657 181.625C298.191 180.892 298.907 180.324 299.805 179.92C300.708 179.511 301.717 179.307 302.83 179.307C303.955 179.307 304.955 179.509 305.83 179.912C306.705 180.31 307.398 180.855 307.91 181.548C308.427 182.241 308.7 183.028 308.728 183.909H306.683Z" fill="white"/>
<rect x="289.625" y="110.138" width="154" height="51" rx="9.5" transform="rotate(-17.1898 289.625 110.138)" fill="black" fill-opacity="0.3"/>
<rect x="289.625" y="110.138" width="154" height="51" rx="9.5" transform="rotate(-17.1898 289.625 110.138)" stroke="white"/>
<path d="M331.235 114.062L336.394 130.737L334.44 131.341L321.303 121.06L321.14 121.11L325.19 134.203L323.171 134.827L318.013 118.152L319.967 117.548L333.146 127.852L333.309 127.801L329.249 114.676L331.235 114.062ZM337.295 112.187L342.453 128.862L340.434 129.487L335.276 112.812L337.295 112.187ZM351.752 112.282C351.399 111.488 350.805 110.97 349.969 110.729C349.133 110.488 348.21 110.523 347.201 110.836C346.463 111.064 345.854 111.383 345.374 111.793C344.9 112.202 344.572 112.663 344.392 113.177C344.218 113.689 344.212 114.21 344.377 114.742C344.515 115.188 344.739 115.537 345.05 115.792C345.364 116.04 345.723 116.217 346.125 116.325C346.525 116.427 346.931 116.489 347.342 116.511C347.751 116.527 348.123 116.528 348.458 116.513L350.292 116.445C350.762 116.425 351.294 116.433 351.888 116.469C352.487 116.504 353.085 116.619 353.681 116.816C354.281 117.005 354.824 117.318 355.31 117.757C355.797 118.195 356.161 118.805 356.403 119.587C356.681 120.488 356.697 121.375 356.45 122.248C356.208 123.12 355.703 123.91 354.935 124.617C354.172 125.323 353.15 125.874 351.869 126.271C350.675 126.64 349.581 126.767 348.588 126.652C347.6 126.535 346.75 126.21 346.037 125.675C345.33 125.138 344.803 124.424 344.456 123.532L346.54 122.887C346.789 123.5 347.162 123.956 347.659 124.254C348.159 124.546 348.725 124.703 349.357 124.728C349.993 124.745 350.642 124.652 351.305 124.447C352.075 124.208 352.729 123.869 353.265 123.43C353.799 122.985 354.176 122.482 354.395 121.921C354.612 121.354 354.627 120.766 354.439 120.159C354.267 119.605 353.973 119.202 353.556 118.951C353.139 118.699 352.645 118.543 352.073 118.482C351.501 118.421 350.897 118.399 350.26 118.418L348.027 118.466C346.608 118.495 345.412 118.279 344.437 117.82C343.462 117.36 342.801 116.568 342.453 115.445C342.164 114.511 342.165 113.619 342.455 112.768C342.748 111.91 343.264 111.155 344.003 110.505C344.745 109.847 345.648 109.353 346.712 109.024C347.787 108.692 348.802 108.589 349.757 108.716C350.71 108.837 351.534 109.153 352.227 109.664C352.926 110.174 353.419 110.845 353.706 111.678L351.752 112.282ZM355.607 108.485L355.053 106.694L367.559 102.825L368.113 104.616L362.869 106.238L367.474 121.122L365.455 121.747L360.85 106.863L355.607 108.485ZM392.154 100.926L390.135 101.551C389.835 101.007 389.469 100.561 389.034 100.214C388.605 99.8648 388.132 99.6065 387.617 99.4389C387.105 99.2643 386.57 99.1799 386.013 99.1857C385.456 99.1916 384.9 99.2801 384.347 99.4514C383.337 99.7638 382.501 100.302 381.839 101.066C381.183 101.828 380.767 102.78 380.591 103.923C380.421 105.064 380.559 106.357 381.006 107.8C381.452 109.244 382.068 110.389 382.853 111.234C383.643 112.078 384.525 112.629 385.497 112.888C386.474 113.145 387.468 113.117 388.477 112.804C389.031 112.633 389.539 112.393 390.003 112.083C390.466 111.773 390.86 111.404 391.186 110.976C391.515 110.541 391.758 110.059 391.916 109.528C392.076 108.991 392.128 108.416 392.069 107.804L394.088 107.179C394.2 108.078 394.159 108.926 393.965 109.724C393.772 110.521 393.45 111.248 392.999 111.905C392.546 112.557 391.986 113.12 391.318 113.594C390.655 114.067 389.903 114.433 389.062 114.693C387.64 115.133 386.267 115.177 384.945 114.825C383.623 114.473 382.446 113.754 381.415 112.67C380.383 111.585 379.596 110.164 379.052 108.405C378.507 106.646 378.355 105.028 378.594 103.551C378.832 102.073 379.398 100.816 380.29 99.7784C381.183 98.7411 382.34 98.0024 383.762 97.5625C384.603 97.3022 385.431 97.18 386.245 97.1959C387.064 97.2101 387.845 97.361 388.588 97.6485C389.33 97.9306 390.006 98.3461 390.615 98.8949C391.224 99.4383 391.736 100.115 392.154 100.926ZM404.213 96.0532C403.86 95.2584 403.266 94.7405 402.43 94.4995C401.594 94.2584 400.672 94.2941 399.662 94.6064C398.924 94.8348 398.315 95.154 397.835 95.5641C397.361 95.9726 397.033 96.4336 396.853 96.9473C396.679 97.4593 396.674 97.9813 396.838 98.5132C396.976 98.9583 397.2 99.3082 397.511 99.563C397.825 99.8107 398.184 99.9883 398.586 100.096C398.986 100.198 399.392 100.26 399.803 100.281C400.212 100.297 400.584 100.298 400.919 100.284L402.753 100.216C403.223 100.196 403.755 100.204 404.349 100.24C404.948 100.275 405.546 100.39 406.142 100.586C406.742 100.775 407.285 101.089 407.771 101.527C408.258 101.966 408.622 102.576 408.864 103.357C409.143 104.258 409.158 105.146 408.911 106.019C408.669 106.891 408.164 107.681 407.396 108.388C406.633 109.094 405.611 109.645 404.33 110.041C403.136 110.411 402.042 110.538 401.049 110.423C400.061 110.306 399.211 109.98 398.498 109.446C397.791 108.909 397.264 108.195 396.917 107.303L399.001 106.658C399.25 107.271 399.623 107.727 400.12 108.025C400.62 108.316 401.186 108.474 401.819 108.499C402.454 108.516 403.103 108.422 403.766 108.218C404.536 107.979 405.19 107.64 405.726 107.201C406.26 106.756 406.637 106.253 406.856 105.691C407.073 105.125 407.088 104.537 406.9 103.929C406.728 103.376 406.434 102.973 406.017 102.721C405.601 102.47 405.106 102.313 404.534 102.252C403.962 102.191 403.358 102.17 402.721 102.189L400.488 102.237C399.07 102.266 397.873 102.05 396.898 101.59C395.923 101.131 395.262 100.339 394.914 99.2154C394.625 98.2818 394.626 97.3895 394.916 96.5386C395.209 95.6805 395.725 94.9261 396.464 94.2754C397.206 93.6176 398.109 93.1241 399.173 92.795C400.248 92.4625 401.263 92.3597 402.218 92.4865C403.171 92.6079 403.995 92.9241 404.688 93.4352C405.387 93.9446 405.88 94.6158 406.167 95.4487L404.213 96.0532ZM413.584 106.857L408.426 90.1824L418.424 87.0894L418.978 88.8806L410.999 91.349L412.742 96.9833L419.972 94.7466L420.526 96.5379L413.296 98.7745L415.603 106.233L413.584 106.857Z" fill="white"/>
<rect x="428.213" y="131.093" width="132" height="51" rx="9.5" transform="rotate(14.9486 428.213 131.093)" fill="black" fill-opacity="0.3"/>
<rect x="428.213" y="131.093" width="132" height="51" rx="9.5" transform="rotate(14.9486 428.213 131.093)" stroke="white"/>
<path d="M468.279 164.043C468.245 163.44 468.139 162.879 467.96 162.361C467.788 161.839 467.54 161.367 467.218 160.945C466.901 160.525 466.509 160.165 466.042 159.864C465.576 159.563 465.038 159.331 464.428 159.169C463.429 158.902 462.452 158.917 461.496 159.215C460.54 159.513 459.687 160.099 458.936 160.975C458.184 161.85 457.614 163.018 457.224 164.478C456.834 165.939 456.749 167.236 456.97 168.371C457.19 169.506 457.648 170.443 458.345 171.182C459.042 171.921 459.912 172.43 460.955 172.708C461.921 172.966 462.827 172.987 463.672 172.772C464.525 172.553 465.258 172.119 465.872 171.471C466.493 170.82 466.941 169.978 467.216 168.946L467.807 169.245L462.735 167.891L463.218 166.079L469.641 167.794L469.158 169.605C468.787 170.994 468.168 172.123 467.301 172.991C466.439 173.861 465.414 174.44 464.226 174.728C463.044 175.013 461.784 174.976 460.445 174.618C458.951 174.22 457.733 173.518 456.79 172.513C455.852 171.51 455.241 170.277 454.955 168.813C454.675 167.35 454.773 165.729 455.248 163.951C455.604 162.617 456.102 161.465 456.744 160.495C457.392 159.522 458.145 158.747 459.005 158.17C459.865 157.594 460.798 157.226 461.805 157.066C462.813 156.905 463.857 156.969 464.938 157.258C465.828 157.496 466.621 157.851 467.317 158.326C468.021 158.796 468.61 159.356 469.083 160.006C469.563 160.651 469.916 161.366 470.142 162.15C470.37 162.928 470.451 163.746 470.387 164.605L468.279 164.043ZM476.092 178.549L470.887 177.159L475.39 160.296L480.825 161.747C482.46 162.183 483.77 162.895 484.754 163.881C485.739 164.861 486.373 166.063 486.658 167.485C486.944 168.903 486.854 170.484 486.388 172.23C485.919 173.986 485.203 175.415 484.238 176.516C483.275 177.612 482.105 178.34 480.726 178.701C479.349 179.057 477.804 179.006 476.092 178.549ZM473.413 175.893L476.443 176.702C477.838 177.074 479.065 177.114 480.126 176.821C481.186 176.528 482.074 175.944 482.789 175.071C483.505 174.197 484.046 173.074 484.412 171.702C484.775 170.341 484.866 169.109 484.684 168.008C484.503 166.901 484.041 165.966 483.298 165.203C482.556 164.435 481.527 163.875 480.209 163.523L476.948 162.652L473.413 175.893ZM487.554 181.609L492.056 164.745L497.754 166.267C499.077 166.62 500.095 167.147 500.807 167.849C501.527 168.547 501.982 169.354 502.172 170.269C502.363 171.184 502.326 172.139 502.061 173.133C501.795 174.126 501.351 174.975 500.728 175.679C500.11 176.384 499.317 176.867 498.348 177.125C497.381 177.379 496.241 177.33 494.929 176.98L490.845 175.89L491.329 174.078L495.347 175.151C496.253 175.393 497.022 175.43 497.654 175.264C498.287 175.098 498.798 174.781 499.187 174.315C499.583 173.844 499.871 173.271 500.052 172.596C500.232 171.921 500.267 171.283 500.156 170.683C500.052 170.085 499.762 169.561 499.288 169.111C498.816 168.655 498.121 168.305 497.205 168.061L493.615 167.102L489.596 182.154L487.554 181.609ZM502.272 185.539L506.775 168.675L512.473 170.196C513.791 170.548 514.812 171.062 515.537 171.738C516.264 172.408 516.726 173.187 516.924 174.075C517.122 174.963 517.089 175.904 516.824 176.898C516.558 177.891 516.12 178.718 515.508 179.378C514.897 180.038 514.113 180.476 513.156 180.691C512.2 180.9 511.069 180.83 509.762 180.482L505.151 179.25L505.644 177.406L510.189 178.619C511.089 178.86 511.849 178.922 512.468 178.805C513.093 178.689 513.593 178.423 513.969 178.006C514.352 177.585 514.634 177.036 514.814 176.361C514.995 175.686 515.026 175.062 514.908 174.49C514.791 173.917 514.491 173.42 514.01 172.997C513.53 172.569 512.835 172.234 511.924 171.99L508.333 171.032L504.315 186.084L502.272 185.539ZM512.233 180.083L514.36 188.766L511.989 188.133L509.927 179.467L512.233 180.083Z" fill="white"/>
<rect x="831.129" y="102.669" width="132" height="51" rx="9.5" transform="rotate(26.129 831.129 102.669)" fill="black" fill-opacity="0.3"/>
<rect x="831.129" y="102.669" width="132" height="51" rx="9.5" transform="rotate(26.129 831.129 102.669)" stroke="white"/>
<path d="M846.719 147.63L841.883 145.258L849.57 129.587L854.62 132.064C856.141 132.81 857.288 133.761 858.061 134.919C858.837 136.072 859.227 137.374 859.231 138.825C859.237 140.271 858.842 141.805 858.046 143.427C857.245 145.059 856.265 146.322 855.105 147.215C853.948 148.103 852.659 148.591 851.236 148.678C849.817 148.76 848.311 148.41 846.719 147.63ZM844.607 144.505L847.423 145.886C848.718 146.522 849.915 146.799 851.012 146.716C852.109 146.634 853.093 146.234 853.964 145.516C854.836 144.798 855.584 143.801 856.209 142.526C856.83 141.261 857.158 140.071 857.192 138.955C857.23 137.834 856.958 136.827 856.377 135.935C855.798 135.037 854.897 134.288 853.672 133.687L850.642 132.201L844.607 144.505ZM857.371 152.854L865.057 137.184L870.352 139.781C871.582 140.384 872.478 141.099 873.041 141.925C873.611 142.749 873.901 143.629 873.911 144.564C873.92 145.499 873.699 146.428 873.246 147.352C872.793 148.275 872.193 149.021 871.445 149.591C870.702 150.164 869.83 150.483 868.83 150.549C867.832 150.61 866.723 150.341 865.504 149.743L861.708 147.881L862.534 146.198L866.268 148.03C867.11 148.443 867.857 148.629 868.51 148.588C869.163 148.548 869.725 148.336 870.197 147.954C870.677 147.569 871.071 147.063 871.379 146.436C871.687 145.808 871.845 145.19 871.853 144.58C871.866 143.972 871.684 143.402 871.306 142.869C870.931 142.33 870.317 141.852 869.465 141.434L866.129 139.798L859.268 153.785L857.371 152.854ZM875.884 161.936L871.048 159.563L878.735 143.893L883.785 146.37C885.305 147.116 886.452 148.067 887.226 149.225C888.002 150.378 888.392 151.68 888.395 153.131C888.401 154.577 888.006 156.111 887.211 157.733C886.41 159.365 885.43 160.628 884.27 161.521C883.113 162.409 881.823 162.897 880.401 162.984C878.981 163.066 877.476 162.716 875.884 161.936ZM873.771 158.811L876.587 160.192C877.883 160.828 879.079 161.104 880.176 161.022C881.274 160.94 882.258 160.54 883.129 159.822C884 159.104 884.749 158.107 885.374 156.832C885.995 155.567 886.322 154.377 886.357 153.261C886.394 152.14 886.122 151.133 885.541 150.241C884.963 149.343 884.061 148.594 882.837 147.993L879.807 146.507L873.771 158.811ZM886.535 167.16L894.222 151.489L899.517 154.087C900.746 154.69 901.643 155.405 902.205 156.231C902.776 157.055 903.066 157.935 903.075 158.87C903.085 159.805 902.863 160.734 902.411 161.657C901.958 162.581 901.357 163.327 900.609 163.897C899.867 164.469 898.995 164.789 897.994 164.855C896.996 164.916 895.887 164.647 894.668 164.049L890.873 162.187L891.699 160.504L895.433 162.336C896.275 162.749 897.022 162.935 897.674 162.894C898.327 162.854 898.89 162.642 899.362 162.26C899.842 161.875 900.236 161.369 900.543 160.742C900.851 160.114 901.009 159.496 901.017 158.886C901.03 158.278 900.848 157.708 900.471 157.175C900.096 156.636 899.482 156.158 898.63 155.74L895.294 154.104L888.433 168.091L886.535 167.16ZM899.256 173.4L897.267 172.424L910.708 159.576L912.667 160.537L910.734 179.03L908.744 178.054L910.532 162.566L910.41 162.506L899.256 173.4ZM902.993 167.639L911.012 171.573L910.187 173.256L902.168 169.323L902.993 167.639Z" fill="white"/>
<rect x="485.5" y="82.5" width="132" height="51" rx="9.5" fill="black" fill-opacity="0.3"/>
<rect x="485.5" y="82.5" width="132" height="51" rx="9.5" stroke="white"/>
<path d="M518.61 116V98.5455H520.723V106.318H530.03V98.5455H532.144V116H530.03V108.193H520.723V116H518.61ZM538.489 98.5455V116H536.375V98.5455H538.489ZM542.727 116V98.5455H548.625C549.994 98.5455 551.113 98.7926 551.983 99.2869C552.858 99.7756 553.505 100.438 553.926 101.273C554.346 102.108 554.556 103.04 554.556 104.068C554.556 105.097 554.346 106.031 553.926 106.872C553.511 107.713 552.869 108.384 552 108.884C551.13 109.378 550.017 109.625 548.659 109.625H544.431V107.75H548.591C549.528 107.75 550.281 107.588 550.849 107.264C551.417 106.94 551.829 106.503 552.085 105.952C552.346 105.395 552.477 104.767 552.477 104.068C552.477 103.369 552.346 102.744 552.085 102.193C551.829 101.642 551.414 101.21 550.841 100.898C550.267 100.58 549.505 100.42 548.556 100.42H544.841V116H542.727ZM556.896 116H554.68L561.089 98.5455H563.271L569.68 116H567.464L562.248 101.307H562.112L556.896 116ZM557.714 109.182H566.646V111.057H557.714V109.182ZM573.115 116H570.899L577.308 98.5455H579.49L585.899 116H583.683L578.467 101.307H578.331L573.115 116ZM573.933 109.182H582.865V111.057H573.933V109.182Z" fill="white"/>
<rect x="669.099" y="0.634644" width="114" height="51" rx="9.5" transform="rotate(18.8343 669.099 0.634644)" fill="black" fill-opacity="0.3"/>
<rect x="669.099" y="0.634644" width="114" height="51" rx="9.5" transform="rotate(18.8343 669.099 0.634644)" stroke="white"/>
<path d="M704.446 34.255C704.628 33.4046 704.452 32.6362 703.917 31.9497C703.383 31.2632 702.616 30.7493 701.616 30.4081C700.884 30.1587 700.204 30.0587 699.575 30.1082C698.951 30.1596 698.415 30.34 697.967 30.6495C697.525 30.9609 697.214 31.3801 697.034 31.9071C696.884 32.348 696.859 32.7629 696.961 33.1517C697.069 33.537 697.255 33.8914 697.517 34.2148C697.78 34.5329 698.072 34.8215 698.392 35.0807C698.714 35.3345 699.014 35.554 699.293 35.7392L700.817 36.7632C701.208 37.0229 701.634 37.3421 702.093 37.7208C702.557 38.1014 702.973 38.5463 703.34 39.0555C703.713 39.5613 703.968 40.1344 704.104 40.775C704.239 41.4156 704.175 42.1231 703.911 42.8975C703.607 43.7902 703.098 44.517 702.384 45.078C701.676 45.6409 700.803 45.9825 699.765 46.1028C698.733 46.225 697.582 46.0696 696.313 45.6367C695.13 45.2332 694.171 44.6929 693.435 44.0157C692.705 43.3404 692.209 42.5769 691.947 41.7252C691.691 40.8754 691.684 39.9877 691.928 39.0623L693.993 39.7666C693.834 40.4088 693.868 40.9965 694.094 41.53C694.327 42.0599 694.693 42.5206 695.189 42.9122C695.693 43.3002 696.273 43.6061 696.929 43.8299C697.693 44.0903 698.421 44.2005 699.113 44.1604C699.807 44.1149 700.407 43.9296 700.915 43.6043C701.424 43.2736 701.781 42.8072 701.986 42.2049C702.173 41.6564 702.172 41.1577 701.983 40.709C701.794 40.2603 701.486 39.8431 701.059 39.4574C700.633 39.0717 700.156 38.6992 699.631 38.3397L697.796 37.0656C696.632 36.2543 695.791 35.3761 695.273 34.431C694.755 33.4858 694.685 32.4567 695.065 31.3435C695.381 30.4186 695.906 29.6972 696.641 29.1795C697.383 28.6582 698.244 28.3516 699.224 28.2596C700.211 28.164 701.231 28.296 702.285 28.6556C703.35 29.0187 704.232 29.5325 704.929 30.1968C705.629 30.8557 706.109 31.5957 706.369 32.4169C706.635 33.2398 706.639 34.0727 706.382 34.9154L704.446 34.255ZM722.427 44.9987C721.832 46.7411 721.004 48.1395 719.942 49.194C718.88 50.2485 717.683 50.9328 716.351 51.247C715.019 51.5611 713.649 51.4779 712.24 50.9973C710.831 50.5167 709.696 49.7452 708.833 48.6826C707.971 47.6201 707.442 46.347 707.246 44.8633C707.049 43.3796 707.248 41.7665 707.843 40.0242C708.437 38.2818 709.265 36.8834 710.327 35.8289C711.389 34.7744 712.586 34.0901 713.918 33.776C715.25 33.4618 716.62 33.545 718.029 34.0256C719.438 34.5062 720.574 35.2778 721.436 36.3403C722.298 37.4028 722.827 38.6759 723.024 40.1597C723.22 41.6434 723.021 43.2564 722.427 44.9987ZM720.491 44.3384C720.979 42.908 721.151 41.6191 721.008 40.4717C720.871 39.3262 720.482 38.3622 719.842 37.5797C719.208 36.7991 718.391 36.2382 717.391 35.897C716.39 35.5559 715.398 35.4995 714.414 35.728C713.435 35.9584 712.538 36.484 711.724 37.3048C710.915 38.1275 710.266 39.2541 709.778 40.6845C709.291 42.115 709.115 43.4029 709.253 44.5485C709.396 45.6958 709.784 46.6598 710.419 47.4404C711.058 48.2229 711.878 48.7847 712.878 49.1259C713.879 49.4671 714.868 49.5225 715.847 49.2921C716.832 49.0636 717.728 48.538 718.537 47.7153C719.352 46.8945 720.003 45.7688 720.491 44.3384ZM729.309 38.1255L731.224 46.4508L731.353 46.4948L737.957 41.075L740.312 41.8784L732.3 48.3665L734.677 58.3984L732.322 57.595L730.363 49.3987L730.234 49.3547L723.675 54.6454L721.319 53.842L729.46 47.398L726.954 37.3221L729.309 38.1255Z" fill="white"/>
<rect x="705.508" y="158.429" width="114" height="51" rx="9.5" transform="rotate(-0.964783 705.508 158.429)" fill="black" fill-opacity="0.3"/>
<rect x="705.508" y="158.429" width="114" height="51" rx="9.5" transform="rotate(-0.964783 705.508 158.429)" stroke="white"/>
<path d="M745.766 179.254L743.653 179.289C743.518 178.684 743.29 178.153 742.97 177.698C742.655 177.244 742.274 176.864 741.826 176.559C741.383 176.248 740.893 176.017 740.356 175.867C739.82 175.717 739.262 175.647 738.682 175.657C737.625 175.675 736.673 175.958 735.824 176.506C734.981 177.055 734.315 177.853 733.827 178.901C733.345 179.949 733.116 181.229 733.142 182.74C733.167 184.251 733.438 185.522 733.956 186.553C734.479 187.584 735.171 188.36 736.032 188.879C736.899 189.399 737.861 189.65 738.918 189.632C739.497 189.622 740.052 189.533 740.584 189.365C741.115 189.197 741.597 188.953 742.029 188.634C742.467 188.308 742.835 187.912 743.134 187.447C743.439 186.976 743.648 186.438 743.763 185.834L745.877 185.798C745.733 186.693 745.456 187.496 745.048 188.208C744.639 188.919 744.127 189.527 743.51 190.032C742.893 190.531 742.198 190.915 741.424 191.184C740.656 191.452 739.831 191.594 738.951 191.609C737.462 191.634 736.133 191.293 734.961 190.585C733.79 189.878 732.861 188.859 732.174 187.529C731.487 186.2 731.127 184.615 731.096 182.774C731.065 180.933 731.371 179.337 732.013 177.985C732.655 176.633 733.55 175.584 734.696 174.837C735.843 174.091 737.16 173.705 738.649 173.68C739.529 173.665 740.358 173.779 741.135 174.021C741.918 174.264 742.626 174.627 743.259 175.111C743.892 175.589 744.425 176.177 744.857 176.874C745.289 177.566 745.592 178.359 745.766 179.254ZM749.09 173.743L751.612 173.7L757.787 188.087L757.991 188.083L763.678 173.497L766.201 173.454L766.495 190.907L764.518 190.94L764.294 177.68L764.124 177.683L758.894 191.035L756.985 191.067L751.308 177.899L751.137 177.902L751.361 191.161L749.384 191.195L749.09 173.743ZM770.438 173.383L772.961 173.341L779.135 187.727L779.34 187.724L785.027 173.137L787.549 173.095L787.843 190.547L785.866 190.58L785.643 177.321L785.473 177.324L780.242 190.675L778.333 190.707L772.656 177.54L772.486 177.542L772.709 190.802L770.732 190.835L770.438 173.383ZM793.9 172.988L794.194 190.44L792.081 190.476L791.787 173.024L793.9 172.988Z" fill="white"/>
<rect x="556.679" y="171.837" width="189" height="51" rx="9.5" transform="rotate(-28.8366 556.679 171.837)" fill="black" fill-opacity="0.3"/>
<rect x="556.679" y="171.837" width="189" height="51" rx="9.5" transform="rotate(-28.8366 556.679 171.837)" stroke="white"/>
<path d="M602.012 171.421L600.161 172.44C599.758 171.968 599.309 171.606 598.813 171.353C598.322 171.098 597.808 170.941 597.269 170.881C596.732 170.813 596.191 170.838 595.647 170.956C595.102 171.075 594.576 171.274 594.068 171.553C593.142 172.063 592.433 172.758 591.939 173.64C591.45 174.519 591.234 175.536 591.293 176.691C591.356 177.843 591.753 179.081 592.482 180.405C593.21 181.729 594.045 182.725 594.984 183.395C595.929 184.062 596.903 184.424 597.907 184.481C598.916 184.535 599.884 184.307 600.81 183.797C601.317 183.518 601.767 183.179 602.158 182.782C602.549 182.385 602.861 181.945 603.093 181.46C603.328 180.967 603.469 180.446 603.516 179.894C603.565 179.336 603.499 178.762 603.318 178.174L605.169 177.155C605.46 178.013 605.591 178.852 605.563 179.672C605.534 180.492 605.366 181.269 605.056 182.004C604.745 182.733 604.309 183.398 603.751 183.997C603.197 184.594 602.535 185.104 601.763 185.529C600.459 186.247 599.124 186.567 597.758 186.489C596.392 186.411 595.094 185.945 593.865 185.091C592.636 184.237 591.578 183.004 590.69 181.391C589.802 179.778 589.326 178.225 589.261 176.729C589.197 175.234 589.497 173.888 590.162 172.692C590.826 171.496 591.81 170.539 593.115 169.821C593.886 169.396 594.672 169.109 595.472 168.961C596.277 168.809 597.073 168.799 597.859 168.931C598.642 169.058 599.388 169.328 600.096 169.742C600.801 170.152 601.44 170.711 602.012 171.421ZM604.225 163.976L612.644 179.266L610.792 180.286L602.373 164.996L604.225 163.976ZM618.404 161.151C617.898 160.444 617.211 160.056 616.344 159.989C615.476 159.922 614.58 160.143 613.654 160.653C612.977 161.025 612.445 161.461 612.058 161.959C611.676 162.455 611.449 162.973 611.376 163.512C611.308 164.049 611.409 164.561 611.677 165.049C611.902 165.457 612.192 165.755 612.548 165.941C612.906 166.12 613.293 166.222 613.708 166.246C614.121 166.265 614.531 166.244 614.938 166.182C615.342 166.115 615.706 166.041 616.031 165.96L617.814 165.523C618.27 165.408 618.793 165.308 619.382 165.224C619.976 165.137 620.585 165.129 621.208 165.201C621.834 165.265 622.429 165.463 622.994 165.794C623.559 166.125 624.039 166.649 624.433 167.366C624.888 168.192 625.083 169.058 625.017 169.963C624.956 170.866 624.621 171.741 624.011 172.589C623.406 173.435 622.517 174.181 621.342 174.827C620.247 175.43 619.201 175.776 618.206 175.863C617.215 175.948 616.316 175.801 615.51 175.421C614.709 175.038 614.049 174.445 613.529 173.642L615.44 172.59C615.808 173.14 616.265 173.511 616.811 173.702C617.36 173.887 617.947 173.927 618.571 173.823C619.197 173.712 619.814 173.489 620.421 173.155C621.128 172.766 621.699 172.302 622.136 171.763C622.569 171.22 622.837 170.651 622.938 170.057C623.036 169.458 622.932 168.88 622.625 168.322C622.345 167.815 621.976 167.48 621.517 167.317C621.058 167.155 620.542 167.102 619.97 167.157C619.397 167.213 618.801 167.314 618.181 167.461L616.004 167.959C614.62 168.274 613.405 168.304 612.357 168.051C611.309 167.797 610.502 167.155 609.935 166.125C609.463 165.269 609.284 164.395 609.396 163.503C609.51 162.603 609.863 161.76 610.455 160.974C611.049 160.18 611.834 159.514 612.81 158.977C613.795 158.435 614.768 158.129 615.729 158.06C616.688 157.987 617.558 158.13 618.34 158.491C619.128 158.849 619.746 159.406 620.196 160.164L618.404 161.151ZM642.192 149.299L640.34 150.318C639.938 149.846 639.488 149.483 638.993 149.231C638.502 148.976 637.987 148.818 637.448 148.758C636.911 148.691 636.371 148.716 635.826 148.834C635.282 148.952 634.755 149.151 634.248 149.431C633.322 149.94 632.612 150.636 632.118 151.518C631.629 152.397 631.414 153.414 631.472 154.568C631.536 155.72 631.932 156.958 632.661 158.282C633.39 159.606 634.224 160.603 635.164 161.273C636.108 161.94 637.083 162.301 638.087 162.358C639.096 162.412 640.063 162.185 640.989 161.675C641.497 161.395 641.946 161.057 642.337 160.66C642.729 160.263 643.04 159.822 643.273 159.337C643.508 158.845 643.648 158.323 643.695 157.772C643.744 157.213 643.678 156.64 643.497 156.052L645.349 155.033C645.64 155.891 645.771 156.73 645.742 157.55C645.714 158.37 645.545 159.147 645.236 159.881C644.924 160.611 644.489 161.275 643.93 161.875C643.377 162.471 642.714 162.982 641.943 163.407C640.639 164.125 639.304 164.445 637.938 164.367C636.571 164.289 635.274 163.823 634.045 162.969C632.816 162.115 631.757 160.881 630.869 159.269C629.981 157.656 629.505 156.102 629.441 154.607C629.376 153.112 629.677 151.766 630.341 150.57C631.006 149.374 631.99 148.417 633.294 147.699C634.066 147.274 634.851 146.987 635.652 146.838C636.457 146.687 637.252 146.677 638.038 146.809C638.822 146.935 639.567 147.206 640.275 147.62C640.981 148.029 641.62 148.589 642.192 149.299ZM655.523 155.969C654.488 156.539 653.444 156.793 652.391 156.73C651.343 156.665 650.356 156.31 649.431 155.665C648.51 155.017 647.723 154.101 647.071 152.917C646.413 151.722 646.056 150.56 645.998 149.431C645.946 148.299 646.172 147.273 646.677 146.352C647.187 145.429 647.96 144.683 648.995 144.113C650.031 143.543 651.072 143.291 652.12 143.356C653.173 143.418 654.161 143.776 655.084 144.428C656.013 145.078 656.806 146 657.464 147.195C658.116 148.379 658.467 149.535 658.517 150.662C658.571 151.787 658.344 152.81 657.834 153.733C657.328 154.654 656.558 155.399 655.523 155.969ZM654.652 154.386C655.438 153.953 655.974 153.395 656.26 152.713C656.545 152.03 656.629 151.293 656.512 150.502C656.394 149.71 656.124 148.931 655.702 148.165C655.28 147.398 654.764 146.751 654.156 146.224C653.548 145.696 652.877 145.368 652.145 145.239C651.413 145.111 650.653 145.263 649.867 145.696C649.08 146.129 648.546 146.689 648.263 147.377C647.98 148.064 647.899 148.806 648.019 149.603C648.14 150.399 648.411 151.18 648.833 151.947C649.255 152.713 649.769 153.358 650.375 153.88C650.98 154.403 651.648 154.726 652.377 154.85C653.107 154.974 653.865 154.819 654.652 154.386ZM661.241 143.519L665.039 150.418L663.277 151.388L656.963 139.92L658.666 138.983L659.652 140.775L659.801 140.693C659.75 139.962 659.9 139.27 660.253 138.615C660.603 137.955 661.211 137.387 662.077 136.91C662.854 136.483 663.621 136.268 664.379 136.266C665.134 136.259 665.85 136.487 666.527 136.951C667.201 137.41 667.807 138.127 668.344 139.103L672.356 146.39L670.594 147.36L666.648 140.192C666.152 139.291 665.531 138.718 664.787 138.473C664.039 138.223 663.257 138.323 662.441 138.772C661.879 139.082 661.443 139.481 661.135 139.969C660.831 140.454 660.681 141 660.685 141.608C660.688 142.215 660.874 142.852 661.241 143.519ZM674.249 130.403L675.071 131.896L669.128 135.169L668.306 133.675L674.249 130.403ZM668.525 129.974L670.287 129.004L676.305 139.934C676.579 140.432 676.857 140.765 677.138 140.935C677.422 141.097 677.702 141.157 677.977 141.115C678.255 141.066 678.523 140.97 678.782 140.828C678.976 140.721 679.13 140.623 679.243 140.535C679.354 140.441 679.443 140.367 679.509 140.311L680.739 141.696C680.644 141.807 680.502 141.943 680.313 142.106C680.126 142.273 679.869 142.448 679.54 142.629C679.042 142.903 678.496 143.064 677.9 143.113C677.309 143.16 676.737 143.05 676.182 142.785C675.632 142.517 675.174 142.049 674.806 141.382L668.525 129.974ZM683.213 140.412L676.899 128.944L678.601 128.007L679.555 129.739L679.675 129.673C679.571 128.991 679.696 128.322 680.049 127.667C680.402 127.012 680.922 126.496 681.609 126.118C681.738 126.046 681.901 125.96 682.098 125.858C682.295 125.756 682.446 125.683 682.551 125.638L683.537 127.43C683.469 127.448 683.32 127.5 683.09 127.588C682.862 127.669 682.63 127.773 682.397 127.902C681.839 128.209 681.406 128.6 681.097 129.075C680.79 129.542 680.622 130.05 680.592 130.598C680.566 131.138 680.695 131.667 680.98 132.185L684.975 139.442L683.213 140.412ZM695.477 133.971C694.441 134.541 693.397 134.795 692.345 134.732C691.297 134.667 690.31 134.312 689.384 133.667C688.464 133.019 687.677 132.103 687.025 130.919C686.367 129.724 686.01 128.562 685.952 127.433C685.9 126.301 686.126 125.275 686.631 124.354C687.141 123.431 687.914 122.685 688.949 122.115C689.984 121.545 691.026 121.293 692.074 121.358C693.126 121.42 694.115 121.778 695.038 122.43C695.967 123.08 696.76 124.002 697.417 125.197C698.07 126.381 698.421 127.537 698.47 128.664C698.525 129.789 698.298 130.812 697.787 131.735C697.282 132.656 696.512 133.401 695.477 133.971ZM694.605 132.388C695.392 131.955 695.928 131.397 696.213 130.715C696.499 130.032 696.583 129.295 696.465 128.504C696.347 127.712 696.077 126.933 695.655 126.167C695.233 125.4 694.718 124.753 694.11 124.226C693.502 123.698 692.831 123.37 692.099 123.241C691.366 123.113 690.607 123.265 689.821 123.698C689.034 124.131 688.499 124.691 688.216 125.379C687.934 126.066 687.852 126.808 687.973 127.605C688.094 128.401 688.365 129.182 688.787 129.949C689.209 130.715 689.723 131.36 690.328 131.883C690.934 132.405 691.602 132.728 692.331 132.852C693.061 132.976 693.819 132.821 694.605 132.388ZM696.574 113.13L704.993 128.42L703.231 129.39L694.813 114.1L696.574 113.13ZM711.443 113.271L710.107 114.591C709.862 114.382 709.574 114.206 709.243 114.064C708.914 113.915 708.54 113.848 708.121 113.865C707.703 113.881 707.237 114.031 706.724 114.313C706.022 114.699 705.527 115.183 705.237 115.764C704.949 116.338 704.941 116.871 705.212 117.364C705.454 117.802 705.803 118.06 706.262 118.138C706.72 118.217 707.334 118.154 708.104 117.951L710.037 117.432C711.199 117.116 712.173 117.076 712.958 117.312C713.74 117.543 714.352 118.059 714.793 118.86C715.155 119.517 715.289 120.209 715.195 120.935C715.107 121.658 714.809 122.354 714.302 123.022C713.794 123.691 713.095 124.27 712.204 124.761C711.034 125.405 709.927 125.684 708.881 125.598C707.835 125.513 706.941 125.038 706.2 124.175L707.642 122.836C708.141 123.366 708.697 123.663 709.31 123.728C709.928 123.79 710.598 123.622 711.319 123.224C712.14 122.772 712.697 122.239 712.988 121.625C713.281 121.003 713.292 120.446 713.02 119.953C712.801 119.555 712.478 119.298 712.052 119.183C711.622 119.062 711.082 119.094 710.43 119.277L708.272 119.882C707.085 120.211 706.101 120.25 705.321 119.999C704.543 119.74 703.936 119.215 703.5 118.423C703.144 117.776 703.01 117.104 703.099 116.406C703.194 115.705 703.479 115.039 703.955 114.408C704.436 113.773 705.079 113.234 705.885 112.79C707.02 112.165 708.048 111.924 708.969 112.065C709.895 112.204 710.72 112.606 711.443 113.271Z" fill="white"/>
</svg>
