<svg width="218" height="239" viewBox="0 0 218 239" fill="none" xmlns="http://www.w3.org/2000/svg">
<g filter="url(#filter0_d_1572_406)">
<path d="M50.812 76.8575C50.319 71.1213 50.5579 62.1172 50.5579 62.1172C50.5579 62.1172 55.0128 59.5699 57.928 58.0509C62.2193 55.8149 64.5944 54.4518 69.1103 52.7139C74.1233 50.7847 77.0718 50.0186 82.3258 48.9017C88.5873 47.5707 92.2032 47.2854 98.591 46.8685C105.623 46.4097 109.608 46.3457 116.635 46.8685C120.822 47.18 123.164 47.4752 127.309 48.1393C133.942 49.2019 137.612 50.1464 144.083 51.9514C149.101 53.3514 152.173 54.3654 156.79 56.7802C159.643 58.2728 163.652 60.5923 163.652 60.5923C163.652 60.5923 161.018 67.3249 158.315 71.0122C156.487 73.5052 155.25 74.7614 152.978 76.8575C149.093 80.4416 146.374 81.8416 141.795 84.4818C137.217 87.122 118.414 93.8851 118.414 93.8851C118.414 93.8851 99.986 101.132 96.5579 103.288C93.1297 105.444 91.2479 106.807 88.1711 109.388C85.0944 111.968 83.3092 113.387 80.801 116.504C79.0062 118.734 78.1738 120.172 76.7347 122.603C74.9554 125.61 74.6147 126.319 73.6847 128.957C71.9633 133.839 72.4142 142.172 72.4142 142.172L63.265 124.382C63.265 124.382 59.5289 115.669 57.6739 109.896C55.5457 103.273 53.3534 92.6144 53.3534 92.6144C53.3534 92.6144 51.3458 83.0676 50.812 76.8575Z" fill="#08080A" stroke="white"/>
<g filter="url(#filter1_if_1572_406)">
<path d="M52.5943 76.5967C52.2062 71.7456 52.5263 64.1431 52.5263 64.1431C52.5263 64.1431 56.642 62.0457 59.3335 60.7981C63.2955 58.9617 65.4898 57.8393 69.6524 56.4263C74.2731 54.8578 76.9868 54.2466 81.8195 53.3672C87.5789 52.3191 90.8995 52.1222 96.7646 51.8478C103.221 51.5458 106.878 51.5402 113.319 52.0674C117.156 52.3815 119.302 52.6593 123.098 53.2707C129.171 54.249 132.527 55.0915 138.443 56.6948C143.032 57.9384 145.838 58.8323 150.047 60.9282C152.649 62.2237 156.3 64.2316 156.3 64.2316C156.3 64.2316 153.807 69.8867 151.287 72.9679C149.582 75.0517 148.433 76.0974 146.325 77.8402C142.721 80.8203 140.211 81.9697 135.98 84.1441C131.75 86.3184 114.424 91.8021 114.424 91.8021C114.424 91.8021 97.4363 97.6992 94.267 99.4786C91.0977 101.258 89.356 102.386 86.5044 104.529C83.6528 106.671 81.999 107.847 79.663 110.449C77.9914 112.311 77.2116 113.516 75.864 115.552C74.198 118.07 73.8774 118.665 72.9947 120.881C71.3608 124.984 71.681 132.028 71.681 132.028L63.4866 116.891C63.4866 116.891 60.1566 109.486 58.5194 104.587C56.6412 98.9664 54.7493 89.9369 54.7493 89.9369C54.7493 89.9369 53.0144 81.8486 52.5943 76.5967Z" fill="url(#paint0_linear_1572_406)"/>
</g>
<g filter="url(#filter2_i_1572_406)">
<path d="M101.031 176.113L113.484 184.5C113.484 184.5 105.079 173.804 101.54 165.947C99.5927 161.626 98.2767 159.183 97.4733 154.511C97.1185 152.448 96.965 149.174 96.965 149.174C96.965 149.174 96.7542 145.3 96.965 143.075C97.3321 139.2 98.3833 137.076 100.269 133.671C102.251 130.091 103.949 128.398 106.877 125.539C109.505 122.972 111.258 121.829 114.247 119.693C119.316 116.072 127.971 111.561 127.971 111.561L138.136 106.224C138.136 106.224 144.969 102.832 148.81 99.8701C151.703 97.6402 155.672 93.5165 155.672 93.5165C155.672 93.5165 160.438 88.0372 162.533 84.1132C164.455 80.5142 164.667 79.0361 165.583 75.2182C166.676 70.6659 167.109 62.7651 167.109 62.7651C167.109 62.7651 161.981 72.4822 157.197 77.5055C154.48 80.3587 152.774 81.8155 149.573 84.1132C145.602 86.9634 138.645 90.2127 138.645 90.2127L123.65 96.058C123.65 96.058 114.48 98.8556 108.91 101.395C104.506 103.402 97.9816 107.24 97.9816 107.24C97.9816 107.24 93.0465 110.38 90.1025 112.831C87.5114 114.989 85.9033 116.337 83.7488 118.931C81.4431 121.707 80.3052 123.477 78.9208 126.809C77.7387 129.655 77.3244 131.383 76.8877 134.434C76.2119 139.154 76.1867 141.921 77.3952 146.633C78.6862 151.666 83.4954 158.577 83.4954 158.577C83.4954 158.577 87.5994 164.649 90.8656 167.981C94.4245 171.611 101.031 176.113 101.031 176.113Z" fill="url(#paint1_linear_1572_406)"/>
</g>
<path d="M101.031 176.113L113.484 184.5C113.484 184.5 105.079 173.804 101.54 165.947C99.5927 161.626 98.2767 159.183 97.4733 154.511C97.1185 152.448 96.965 149.174 96.965 149.174C96.965 149.174 96.7542 145.3 96.965 143.075C97.3321 139.2 98.3833 137.076 100.269 133.671C102.251 130.091 103.949 128.398 106.877 125.539C109.505 122.972 111.258 121.829 114.247 119.693C119.316 116.072 127.971 111.561 127.971 111.561L138.136 106.224C138.136 106.224 144.969 102.832 148.81 99.8701C151.703 97.6402 155.672 93.5165 155.672 93.5165C155.672 93.5165 160.438 88.0372 162.533 84.1132C164.455 80.5142 164.667 79.0361 165.583 75.2182C166.676 70.6659 167.109 62.7651 167.109 62.7651C167.109 62.7651 161.981 72.4822 157.197 77.5055C154.48 80.3587 152.774 81.8155 149.573 84.1132C145.602 86.9634 138.645 90.2127 138.645 90.2127L123.65 96.058C123.65 96.058 114.48 98.8556 108.91 101.395C104.506 103.402 97.9816 107.24 97.9816 107.24C97.9816 107.24 93.0465 110.38 90.1025 112.831C87.5114 114.989 85.9033 116.337 83.7488 118.931C81.4431 121.707 80.3052 123.477 78.9208 126.809C77.7387 129.655 77.3244 131.383 76.8877 134.434C76.2119 139.154 76.1867 141.921 77.3952 146.633C78.6862 151.666 83.4954 158.577 83.4954 158.577C83.4954 158.577 87.5994 164.649 90.8656 167.981C94.4245 171.611 101.031 176.113 101.031 176.113Z" stroke="white"/>
<g filter="url(#filter3_i_1572_406)">
<path d="M140.685 153.357C136.3 159.944 133.685 163.872 127.716 169.251C125.223 171.498 123.611 172.504 120.981 174.588L114.246 179.925C114.246 179.925 110.195 175.843 108.147 172.809C104.989 168.132 103.648 165.074 102.302 159.594C101.019 154.375 100.291 151.151 101.285 145.87C102.124 141.413 103.226 138.888 105.86 135.196C108.306 131.766 110.473 130.488 113.738 127.826C117.835 124.486 120.46 123.037 124.92 120.202C130.063 116.932 133.255 115.604 138.39 112.323C143.378 109.136 146.454 107.654 150.843 103.682C154.492 100.381 156.321 98.2477 159.23 94.279C162.228 90.1878 165.838 83.0967 165.838 83.0967C165.838 83.0967 163.912 95.7723 161.771 103.682C160.713 107.592 158.722 113.594 158.722 113.594C158.722 113.594 155.998 119.826 153.385 123.251C151.392 125.863 149.997 127.125 147.572 129.321L147.539 129.351C144.066 132.495 141.907 134.069 137.882 136.467C132.335 139.771 131.064 140.025 127.462 142.566C125.397 144.023 122.887 147.141 122.887 147.141C122.887 147.141 119.654 150.864 118.567 153.749C117.99 155.28 117.957 156.229 117.55 157.815C116.832 160.61 119.234 155.754 121.153 154.003C122.664 152.624 124.603 150.973 126.191 149.682C127.779 148.392 128.598 147.576 130.257 146.378C133.751 143.856 136.112 143.068 139.915 141.041C143.95 138.891 150.335 135.704 150.335 135.704C150.335 135.704 145.19 146.591 140.932 152.986L140.685 153.357Z" fill="url(#paint2_linear_1572_406)"/>
</g>
<path d="M140.685 153.357C136.3 159.944 133.685 163.872 127.716 169.251C125.223 171.498 123.611 172.504 120.981 174.588L114.246 179.925C114.246 179.925 110.195 175.843 108.147 172.809C104.989 168.132 103.648 165.074 102.302 159.594C101.019 154.375 100.291 151.151 101.285 145.87C102.124 141.413 103.226 138.888 105.86 135.196C108.306 131.766 110.473 130.488 113.738 127.826C117.835 124.486 120.46 123.037 124.92 120.202C130.063 116.932 133.255 115.604 138.39 112.323C143.378 109.136 146.454 107.654 150.843 103.682C154.492 100.381 156.321 98.2477 159.23 94.279C162.228 90.1878 165.838 83.0967 165.838 83.0967C165.838 83.0967 163.912 95.7723 161.771 103.682C160.713 107.592 158.722 113.594 158.722 113.594C158.722 113.594 155.998 119.826 153.385 123.251C151.392 125.863 149.997 127.125 147.572 129.321L147.539 129.351C144.066 132.495 141.907 134.069 137.882 136.467C132.335 139.771 131.064 140.025 127.462 142.566C125.397 144.023 122.887 147.141 122.887 147.141C122.887 147.141 119.654 150.864 118.567 153.749C117.99 155.28 117.957 156.229 117.55 157.815C116.832 160.61 119.234 155.754 121.153 154.003C122.664 152.624 124.603 150.973 126.191 149.682C127.779 148.392 128.598 147.576 130.257 146.378C133.751 143.856 136.112 143.068 139.915 141.041C143.95 138.891 150.335 135.704 150.335 135.704C150.335 135.704 145.19 146.591 140.932 152.986L140.685 153.357Z" stroke="white"/>
</g>
<defs>
<filter id="filter0_d_1572_406" x="0" y="0" width="217.608" height="238.915" filterUnits="userSpaceOnUse" color-interpolation-filters="sRGB">
<feFlood flood-opacity="0" result="BackgroundImageFix"/>
<feColorMatrix in="SourceAlpha" type="matrix" values="0 0 0 0 0 0 0 0 0 0 0 0 0 0 0 0 0 0 127 0" result="hardAlpha"/>
<feOffset dy="4"/>
<feGaussianBlur stdDeviation="25"/>
<feColorMatrix type="matrix" values="0 0 0 0 0.619608 0 0 0 0 0 0 0 0 0 0.0235294 0 0 0 1 0"/>
<feBlend mode="normal" in2="BackgroundImageFix" result="effect1_dropShadow_1572_406"/>
<feBlend mode="normal" in="SourceGraphic" in2="effect1_dropShadow_1572_406" result="shape"/>
</filter>
<filter id="filter1_if_1572_406" x="44.0021" y="42.6416" width="120.698" height="97.7867" filterUnits="userSpaceOnUse" color-interpolation-filters="sRGB">
<feFlood flood-opacity="0" result="BackgroundImageFix"/>
<feBlend mode="normal" in="SourceGraphic" in2="BackgroundImageFix" result="shape"/>
<feColorMatrix in="SourceAlpha" type="matrix" values="0 0 0 0 0 0 0 0 0 0 0 0 0 0 0 0 0 0 127 0" result="hardAlpha"/>
<feOffset dx="3" dy="-9"/>
<feGaussianBlur stdDeviation="6.5"/>
<feComposite in2="hardAlpha" operator="arithmetic" k2="-1" k3="1"/>
<feColorMatrix type="matrix" values="0 0 0 0 1 0 0 0 0 1 0 0 0 0 1 0 0 0 0.25 0"/>
<feBlend mode="normal" in2="shape" result="effect1_innerShadow_1572_406"/>
<feGaussianBlur stdDeviation="4.2" result="effect2_foregroundBlur_1572_406"/>
</filter>
<filter id="filter2_i_1572_406" x="62.9231" y="48.7317" width="104.685" height="136.183" filterUnits="userSpaceOnUse" color-interpolation-filters="sRGB">
<feFlood flood-opacity="0" result="BackgroundImageFix"/>
<feBlend mode="normal" in="SourceGraphic" in2="BackgroundImageFix" result="shape"/>
<feColorMatrix in="SourceAlpha" type="matrix" values="0 0 0 0 0 0 0 0 0 0 0 0 0 0 0 0 0 0 127 0" result="hardAlpha"/>
<feOffset dx="-13" dy="-14"/>
<feGaussianBlur stdDeviation="6.9"/>
<feComposite in2="hardAlpha" operator="arithmetic" k2="-1" k3="1"/>
<feColorMatrix type="matrix" values="0 0 0 0 0.317647 0 0 0 0 0.00392157 0 0 0 0 0.00784314 0 0 0 1 0"/>
<feBlend mode="normal" in2="shape" result="effect1_innerShadow_1572_406"/>
</filter>
<filter id="filter3_i_1572_406" x="100.322" y="82.8701" width="70.7105" height="101.725" filterUnits="userSpaceOnUse" color-interpolation-filters="sRGB">
<feFlood flood-opacity="0" result="BackgroundImageFix"/>
<feBlend mode="normal" in="SourceGraphic" in2="BackgroundImageFix" result="shape"/>
<feColorMatrix in="SourceAlpha" type="matrix" values="0 0 0 0 0 0 0 0 0 0 0 0 0 0 0 0 0 0 127 0" result="hardAlpha"/>
<feOffset dx="8" dy="4"/>
<feGaussianBlur stdDeviation="2.35"/>
<feComposite in2="hardAlpha" operator="arithmetic" k2="-1" k3="1"/>
<feColorMatrix type="matrix" values="0 0 0 0 0.317647 0 0 0 0 0.00392157 0 0 0 0 0.00784314 0 0 0 1 0"/>
<feBlend mode="normal" in2="shape" result="effect1_innerShadow_1572_406"/>
</filter>
<linearGradient id="paint0_linear_1572_406" x1="59.9032" y1="66.5775" x2="138.688" y2="92.246" gradientUnits="userSpaceOnUse">
<stop stop-color="#1B1B1C"/>
<stop offset="0.5" stop-color="#0B0B0C"/>
<stop offset="0.75" stop-color="#333333"/>
<stop offset="1" stop-color="#333333"/>
</linearGradient>
<linearGradient id="paint1_linear_1572_406" x1="149.871" y1="80.0469" x2="91.6717" y2="168.489" gradientUnits="userSpaceOnUse">
<stop stop-color="#7D0102"/>
<stop offset="0.476564" stop-color="#9B0103"/>
<stop offset="0.953128" stop-color="#580102"/>
</linearGradient>
<linearGradient id="paint2_linear_1572_406" x1="160.291" y1="95.0414" x2="107.429" y2="180.18" gradientUnits="userSpaceOnUse">
<stop stop-color="#C2000A"/>
<stop offset="0.979104" stop-color="#780102"/>
</linearGradient>
</defs>
</svg>
