<svg width="93" height="107" viewBox="0 0 93 107" fill="none" xmlns="http://www.w3.org/2000/svg">
<path d="M7.23532 26.8655C6.87427 22.665 7.04921 16.0713 7.04921 16.0713C7.04921 16.0713 10.3115 14.2059 12.4463 13.0936C15.5888 11.4562 17.328 10.458 20.6351 9.18531C24.306 7.77258 26.4652 7.21156 30.3127 6.3937C34.8979 5.419 37.5458 5.21009 42.2236 4.90483C47.3729 4.56881 50.2912 4.52193 55.4372 4.90483C58.5028 5.13294 60.2183 5.34909 63.2537 5.83537C68.111 6.61353 70.7986 7.30522 75.5368 8.62699C79.212 9.6522 81.461 10.3948 84.842 12.1631C86.9319 13.2561 89.8671 14.9546 89.8671 14.9546C89.8671 14.9546 87.9383 19.8849 85.9589 22.5851C84.6206 24.4107 83.7142 25.3306 82.0506 26.8655C79.2059 29.4902 77.2149 30.5154 73.8619 32.4488C70.5089 34.3822 56.74 39.3348 56.74 39.3348C56.74 39.3348 43.2451 44.6419 40.7347 46.2207C38.2243 47.7996 36.8462 48.7976 34.5931 50.6873C32.3401 52.577 31.0328 53.6157 29.196 55.8983C27.8818 57.5316 27.2722 58.5843 26.2183 60.3649C24.9153 62.5665 24.6658 63.0862 23.9848 65.0176C22.7243 68.5924 23.0545 74.6952 23.0545 74.6952L16.3546 61.6677C16.3546 61.6677 13.6187 55.2872 12.2602 51.0595C10.7018 46.2094 9.09639 38.4042 9.09639 38.4042C9.09639 38.4042 7.62619 31.4131 7.23532 26.8655Z" fill="#08080A" stroke="white"/>
<g filter="url(#filter0_if_1259_555)">
<path d="M8.54058 26.6746C8.25641 23.1221 8.4908 17.5548 8.4908 17.5548C8.4908 17.5548 11.5047 16.019 13.4757 15.1054C16.377 13.7606 17.9839 12.9386 21.0321 11.9039C24.4159 10.7553 26.403 10.3077 29.942 9.66373C34.1596 8.89625 36.5912 8.75202 40.8862 8.55112C45.6141 8.32996 48.292 8.32589 53.0089 8.71195C55.8188 8.94193 57.3903 9.14538 60.1696 9.59308C64.6171 10.3095 67.0751 10.9264 71.4073 12.1005C74.7676 13.0112 76.8226 13.6658 79.9046 15.2006C81.8097 16.1493 84.4836 17.6197 84.4836 17.6197C84.4836 17.6197 82.6583 21.7609 80.8125 24.0172C79.5641 25.5432 78.7224 26.3089 77.1789 27.5852C74.5397 29.7675 72.7015 30.6092 69.6037 32.2014C66.5059 33.7937 53.8183 37.8093 53.8183 37.8093C53.8183 37.8093 41.3781 42.1278 39.0573 43.4308C36.7364 44.7339 35.461 45.5601 33.3727 47.1288C31.2845 48.6975 30.0735 49.559 28.3628 51.4647C27.1388 52.8282 26.5677 53.71 25.5809 55.2012C24.3608 57.0449 24.1261 57.4808 23.4797 59.1039C22.2832 62.1081 22.5177 67.2669 22.5177 67.2669L16.517 56.1815C16.517 56.1815 14.0784 50.7589 12.8795 47.1714C11.5041 43.0558 10.1187 36.4435 10.1187 36.4435C10.1187 36.4435 8.84822 30.5205 8.54058 26.6746Z" fill="url(#paint0_linear_1259_555)"/>
</g>
<g filter="url(#filter1_i_1259_555)">
<path d="M44.0104 99.5498L53.1297 105.691C53.1297 105.691 46.9744 97.8589 44.3827 92.1055C42.957 88.9406 41.9933 87.1516 41.4049 83.7307C41.1451 82.2197 41.0327 79.8224 41.0327 79.8224C41.0327 79.8224 40.8783 76.9854 41.0327 75.3558C41.3015 72.5182 42.0713 70.9633 43.4521 68.4698C44.9039 65.8483 46.1471 64.6082 48.2909 62.5144C50.2154 60.6347 51.499 59.7975 53.688 58.2339C57.4003 55.5822 63.7379 52.2785 63.7379 52.2785L71.1822 48.3702C71.1822 48.3702 76.1854 45.8865 78.9987 43.7175C81.1167 42.0846 84.0236 39.0648 84.0236 39.0648C84.0236 39.0648 87.5133 35.0523 89.0479 32.1788C90.4555 29.5433 90.6102 28.4609 91.2813 25.6651C92.0815 22.3315 92.3984 16.5458 92.3984 16.5458C92.3984 16.5458 88.6435 23.6616 85.1402 27.34C83.1504 29.4294 81.9009 30.4962 79.557 32.1788C76.6495 34.266 71.5544 36.6454 71.5544 36.6454L60.574 40.9259C60.574 40.9259 53.8592 42.9746 49.7798 44.8342C46.5548 46.3042 41.7771 49.1146 41.7771 49.1146C41.7771 49.1146 38.1632 51.4138 36.0073 53.209C34.1099 54.789 32.9323 55.7763 31.3546 57.6756C29.6661 59.7082 28.8328 61.0046 27.8191 63.4449C26.9534 65.5288 26.65 66.7944 26.3302 69.0282C25.8353 72.4845 25.8169 74.511 26.7019 77.9613C27.6473 81.6471 31.169 86.7084 31.169 86.7084C31.169 86.7084 34.1744 91.1544 36.5661 93.5944C39.1723 96.253 44.0104 99.5498 44.0104 99.5498Z" fill="url(#paint1_linear_1259_555)"/>
</g>
<path d="M44.0104 99.5498L53.1297 105.691C53.1297 105.691 46.9744 97.8589 44.3827 92.1055C42.957 88.9406 41.9933 87.1516 41.4049 83.7307C41.1451 82.2197 41.0327 79.8224 41.0327 79.8224C41.0327 79.8224 40.8783 76.9854 41.0327 75.3558C41.3015 72.5182 42.0713 70.9633 43.4521 68.4698C44.9039 65.8483 46.1471 64.6082 48.2909 62.5144C50.2154 60.6347 51.499 59.7975 53.688 58.2339C57.4003 55.5822 63.7379 52.2785 63.7379 52.2785L71.1822 48.3702C71.1822 48.3702 76.1854 45.8865 78.9987 43.7175C81.1167 42.0846 84.0236 39.0648 84.0236 39.0648C84.0236 39.0648 87.5133 35.0523 89.0479 32.1788C90.4555 29.5433 90.6102 28.4609 91.2813 25.6651C92.0815 22.3315 92.3984 16.5458 92.3984 16.5458C92.3984 16.5458 88.6435 23.6616 85.1402 27.34C83.1504 29.4294 81.9009 30.4962 79.557 32.1788C76.6495 34.266 71.5544 36.6454 71.5544 36.6454L60.574 40.9259C60.574 40.9259 53.8592 42.9746 49.7798 44.8342C46.5548 46.3042 41.7771 49.1146 41.7771 49.1146C41.7771 49.1146 38.1632 51.4138 36.0073 53.209C34.1099 54.789 32.9323 55.7763 31.3546 57.6756C29.6661 59.7082 28.8328 61.0046 27.8191 63.4449C26.9534 65.5288 26.65 66.7944 26.3302 69.0282C25.8353 72.4845 25.8169 74.511 26.7019 77.9613C27.6473 81.6471 31.169 86.7084 31.169 86.7084C31.169 86.7084 34.1744 91.1544 36.5661 93.5944C39.1723 96.253 44.0104 99.5498 44.0104 99.5498Z" stroke="white"/>
<g filter="url(#filter2_i_1259_555)">
<path d="M73.2294 82.6141C69.9079 87.6028 68.0039 90.5127 63.5518 94.5249C61.7262 96.1701 60.5459 96.9069 58.6199 98.4332L53.6881 102.341C53.6881 102.341 50.7213 99.3518 49.2215 97.1305C46.909 93.7055 45.9272 91.466 44.941 87.4529C44.0019 83.6311 43.4683 81.2705 44.1966 77.403C44.8112 74.1393 45.6181 72.2904 47.5465 69.5865C49.338 67.0747 50.9245 66.1388 53.3159 64.1894C56.3158 61.7438 58.2383 60.6827 61.5046 58.6062C65.2705 56.212 67.6076 55.2393 71.3683 52.8368C75.0212 50.5032 77.2733 49.4174 80.4876 46.5092C83.1595 44.0916 84.499 42.5295 86.6291 39.6232C88.825 36.6272 91.4679 31.4344 91.4679 31.4344C91.4679 31.4344 90.0577 40.7167 88.4902 46.5092C87.7155 49.3718 86.2569 53.7674 86.2569 53.7674C86.2569 53.7674 84.2628 58.3308 82.3487 60.8395C80.8896 62.7516 79.8683 63.6763 78.0921 65.2844L78.0682 65.306C75.525 67.6085 73.9434 68.7615 70.9961 70.5171C66.9343 72.9365 66.0037 73.1226 63.3657 74.9836C61.8539 76.0502 60.0157 78.3336 60.0157 78.3336C60.0157 78.3336 57.6481 81.0597 56.8519 83.1724C56.4292 84.294 56.4056 84.9891 56.1075 86.1501C55.5817 88.1973 57.3404 84.6406 58.7455 83.3585C59.8524 82.3486 61.2723 81.1395 62.4351 80.1947C63.598 79.2498 64.198 78.6522 65.4129 77.7753C67.9714 75.9283 69.7001 75.3509 72.4849 73.867C75.4397 72.2926 80.1154 69.9587 80.1154 69.9587C80.1154 69.9587 76.3476 77.9307 73.2294 82.6141Z" fill="url(#paint2_linear_1259_555)"/>
</g>
<path d="M73.2294 82.6141C69.9079 87.6028 68.0039 90.5127 63.5518 94.5249C61.7262 96.1701 60.5459 96.9069 58.6199 98.4332L53.6881 102.341C53.6881 102.341 50.7213 99.3518 49.2215 97.1305C46.909 93.7055 45.9272 91.466 44.941 87.4529C44.0019 83.6311 43.4683 81.2705 44.1966 77.403C44.8112 74.1393 45.6181 72.2904 47.5465 69.5865C49.338 67.0747 50.9245 66.1388 53.3159 64.1894C56.3158 61.7438 58.2383 60.6827 61.5046 58.6062C65.2705 56.212 67.6076 55.2393 71.3683 52.8368C75.0212 50.5032 77.2733 49.4174 80.4876 46.5092C83.1595 44.0916 84.499 42.5295 86.6291 39.6232C88.825 36.6272 91.4679 31.4344 91.4679 31.4344C91.4679 31.4344 90.0577 40.7167 88.4902 46.5092C87.7155 49.3718 86.2569 53.7674 86.2569 53.7674C86.2569 53.7674 84.2628 58.3308 82.3487 60.8395C80.8896 62.7516 79.8683 63.6763 78.0921 65.2844L78.0682 65.306C75.525 67.6085 73.9434 68.7615 70.9961 70.5171C66.9343 72.9365 66.0037 73.1226 63.3657 74.9836C61.8539 76.0502 60.0157 78.3336 60.0157 78.3336C60.0157 78.3336 57.6481 81.0597 56.8519 83.1724C56.4292 84.294 56.4056 84.9891 56.1075 86.1501C55.5817 88.1973 57.3404 84.6406 58.7455 83.3585C59.8524 82.3486 61.2723 81.1395 62.4351 80.1947C63.598 79.2498 64.198 78.6522 65.4129 77.7753C67.9714 75.9283 69.7001 75.3509 72.4849 73.867C75.4397 72.2926 80.1154 69.9587 80.1154 69.9587C80.1154 69.9587 76.3476 77.9307 73.2294 82.6141Z" stroke="white"/>
<defs>
<filter id="filter0_if_1259_555" x="-9.72748e-05" y="-0.600006" width="92.8837" height="76.2669" filterUnits="userSpaceOnUse" color-interpolation-filters="sRGB">
<feFlood flood-opacity="0" result="BackgroundImageFix"/>
<feBlend mode="normal" in="SourceGraphic" in2="BackgroundImageFix" result="shape"/>
<feColorMatrix in="SourceAlpha" type="matrix" values="0 0 0 0 0 0 0 0 0 0 0 0 0 0 0 0 0 0 127 0" result="hardAlpha"/>
<feOffset dx="3" dy="-9"/>
<feGaussianBlur stdDeviation="6.5"/>
<feComposite in2="hardAlpha" operator="arithmetic" k2="-1" k3="1"/>
<feColorMatrix type="matrix" values="0 0 0 0 1 0 0 0 0 1 0 0 0 0 1 0 0 0 0.25 0"/>
<feBlend mode="normal" in2="shape" result="effect1_innerShadow_1259_555"/>
<feGaussianBlur stdDeviation="4.2" result="effect2_foregroundBlur_1259_555"/>
</filter>
<filter id="filter1_i_1259_555" x="12.49" y="2.51244" width="80.4077" height="103.594" filterUnits="userSpaceOnUse" color-interpolation-filters="sRGB">
<feFlood flood-opacity="0" result="BackgroundImageFix"/>
<feBlend mode="normal" in="SourceGraphic" in2="BackgroundImageFix" result="shape"/>
<feColorMatrix in="SourceAlpha" type="matrix" values="0 0 0 0 0 0 0 0 0 0 0 0 0 0 0 0 0 0 127 0" result="hardAlpha"/>
<feOffset dx="-13" dy="-14"/>
<feGaussianBlur stdDeviation="6.9"/>
<feComposite in2="hardAlpha" operator="arithmetic" k2="-1" k3="1"/>
<feColorMatrix type="matrix" values="0 0 0 0 0.317647 0 0 0 0 0.00392157 0 0 0 0 0.00784314 0 0 0 1 0"/>
<feBlend mode="normal" in2="shape" result="effect1_innerShadow_1259_555"/>
</filter>
<filter id="filter2_i_1259_555" x="43.3572" y="31.2077" width="53.305" height="75.8034" filterUnits="userSpaceOnUse" color-interpolation-filters="sRGB">
<feFlood flood-opacity="0" result="BackgroundImageFix"/>
<feBlend mode="normal" in="SourceGraphic" in2="BackgroundImageFix" result="shape"/>
<feColorMatrix in="SourceAlpha" type="matrix" values="0 0 0 0 0 0 0 0 0 0 0 0 0 0 0 0 0 0 127 0" result="hardAlpha"/>
<feOffset dx="8" dy="4"/>
<feGaussianBlur stdDeviation="2.35"/>
<feComposite in2="hardAlpha" operator="arithmetic" k2="-1" k3="1"/>
<feColorMatrix type="matrix" values="0 0 0 0 0.317647 0 0 0 0 0.00392157 0 0 0 0 0.00784314 0 0 0 1 0"/>
<feBlend mode="normal" in2="shape" result="effect1_innerShadow_1259_555"/>
</filter>
<linearGradient id="paint0_linear_1259_555" x1="13.8929" y1="19.3376" x2="71.5862" y2="38.1345" gradientUnits="userSpaceOnUse">
<stop stop-color="#1B1B1C"/>
<stop offset="0.5" stop-color="#0B0B0C"/>
<stop offset="0.75" stop-color="#333333"/>
<stop offset="1" stop-color="#333333"/>
</linearGradient>
<linearGradient id="paint1_linear_1259_555" x1="79.7751" y1="29.2011" x2="37.1565" y2="93.9666" gradientUnits="userSpaceOnUse">
<stop stop-color="#7D0102"/>
<stop offset="0.476564" stop-color="#9B0103"/>
<stop offset="0.953128" stop-color="#580102"/>
</linearGradient>
<linearGradient id="paint2_linear_1259_555" x1="87.4061" y1="40.1815" x2="48.6957" y2="102.528" gradientUnits="userSpaceOnUse">
<stop stop-color="#C2000A"/>
<stop offset="0.979104" stop-color="#780102"/>
</linearGradient>
</defs>
</svg>
