<svg width="1442" height="1026" viewBox="0 0 1442 1026" fill="none" xmlns="http://www.w3.org/2000/svg">
<g clip-path="url(#clip0_1434_348)">
<rect width="1442" height="1026" fill="black"/>
<g filter="url(#filter0_f_1434_348)">
<ellipse cx="1157" cy="62" rx="221" ry="216" fill="#3700FF" fill-opacity="0.5"/>
<path d="M1157 -153.5C1278.79 -153.5 1377.5 -57.0066 1377.5 62C1377.5 181.007 1278.79 277.5 1157 277.5C1035.21 277.5 936.5 181.007 936.5 62C936.5 -57.0066 1035.21 -153.5 1157 -153.5Z" stroke="black"/>
</g>
<g filter="url(#filter1_f_1434_348)">
<ellipse cx="96.5" cy="436.5" rx="132.5" ry="127.5" fill="#FF6F00" style="mix-blend-mode:plus-lighter"/>
<path d="M96.5 309.5C169.42 309.5 228.5 366.378 228.5 436.5C228.5 506.622 169.42 563.5 96.5 563.5C23.5801 563.5 -35.5 506.622 -35.5 436.5C-35.5 366.378 23.5801 309.5 96.5 309.5Z" stroke="black"/>
</g>
<g filter="url(#filter2_f_1434_348)">
<path d="M151 71C151 170.964 50.9356 252 -72.5 252C-195.936 252 -296 170.964 -296 71C-296 -28.9635 -195.936 -110 -72.5 -110C50.9356 -110 151 -28.9635 151 71Z" fill="#2600FF" fill-opacity="0.5"/>
<path d="M-72.5 -109.5C50.7632 -109.5 150.5 -28.594 150.5 71C150.5 170.594 50.7632 251.5 -72.5 251.5C-195.763 251.5 -295.5 170.594 -295.5 71C-295.5 -28.594 -195.763 -109.5 -72.5 -109.5Z" stroke="black"/>
</g>
<g filter="url(#filter3_f_1434_348)">
<ellipse cx="314.5" cy="379" rx="226.5" ry="77" fill="#005EFF" fill-opacity="0.62"/>
</g>
<g filter="url(#filter4_f_1434_348)">
<ellipse cx="1176.5" cy="394" rx="226.5" ry="77" fill="#005EFF" fill-opacity="0.62"/>
</g>
<g filter="url(#filter5_f_1434_348)">
<ellipse cx="1104.5" cy="403.5" rx="145.5" ry="28.5" fill="#5588FF"/>
</g>
<g filter="url(#filter6_f_1434_348)">
<ellipse cx="705.5" cy="761.5" rx="349.5" ry="203.5" fill="#005EFF"/>
</g>
<mask id="mask0_1434_348" style="mask-type:alpha" maskUnits="userSpaceOnUse" x="166" y="118" width="1079" height="397">
<ellipse cx="705.5" cy="316.5" rx="539.5" ry="198.5" fill="#D9D9D9"/>
</mask>
<g mask="url(#mask0_1434_348)">
<path opacity="0.44" d="M204.395 482V317.55H318.015V353.89H251.315V382.18H304.445V415.76H251.315V445.66H321.695V482H204.395ZM345.225 482V317.55H398.355L451.025 410.24V317.55H492.195V482H446.655L386.625 378.73V482H345.225ZM524.015 482V317.55H583.815C642.235 317.55 671.905 346.76 671.905 397.82V399.66C671.905 450.95 641.545 482 583.585 482H524.015ZM571.395 445.66H582.205C610.265 445.66 622.685 430.94 622.685 400.35V398.51C622.685 367.23 610.265 353.89 581.745 353.89H571.395V445.66ZM740.313 482V317.55H804.713C847.723 317.55 871.643 335.03 871.643 369.76V370.68C871.643 394.14 859.223 407.25 841.973 413.92L881.303 482H831.623L798.273 423.12H787.233V482H740.313ZM787.233 392.53H802.413C818.283 392.53 826.103 385.86 826.103 372.52V371.6C826.103 358.26 817.823 352.97 802.643 352.97H787.233V392.53ZM901.604 482V317.55H949.214V482H901.604ZM1041.8 484.76C995.804 484.76 972.344 465.44 970.964 429.79H1015.81C1016.96 441.52 1022.25 451.18 1041.8 451.18C1055.37 451.18 1062.96 444.51 1062.96 434.85C1062.96 424.73 1056.75 421.97 1036.97 418.98C990.514 413.46 974.874 399.66 974.874 366.54C974.874 336.87 999.254 315.25 1038.58 315.25C1078.14 315.25 1100.45 331.81 1103.44 366.54H1059.74C1058.13 354.81 1051.46 348.83 1038.58 348.83C1025.93 348.83 1019.49 354.58 1019.49 362.86C1019.49 372.06 1024.55 376.2 1045.02 378.96C1086.65 383.56 1108.04 394.37 1108.04 430.02C1108.04 460.15 1084.12 484.76 1041.8 484.76ZM1130.46 482V317.55H1177.84V382.64L1227.29 317.55H1276.51L1216.25 393.91L1279.73 482H1225.22L1177.84 413.23V482H1130.46Z" fill="url(#paint0_linear_1434_348)"/>
</g>
<mask id="path-14-inside-1_1434_348" fill="white">
<path d="M441.851 545.301C441.851 480.169 428.401 417.705 404.459 371.649C380.517 325.594 348.045 299.72 314.187 299.72C280.328 299.72 247.856 325.594 223.914 371.649C199.973 417.705 186.522 480.169 186.522 545.301L314.187 545.301H441.851Z"/>
</mask>
<path d="M441.851 545.301C441.851 480.169 428.401 417.705 404.459 371.649C380.517 325.594 348.045 299.72 314.187 299.72C280.328 299.72 247.856 325.594 223.914 371.649C199.973 417.705 186.522 480.169 186.522 545.301L314.187 545.301H441.851Z" stroke="url(#paint1_linear_1434_348)" stroke-width="2" stroke-dasharray="3 3" mask="url(#path-14-inside-1_1434_348)"/>
<mask id="path-15-inside-2_1434_348" fill="white">
<path d="M1261.48 545.301C1261.48 480.169 1248.03 417.705 1224.09 371.649C1200.14 325.594 1167.67 299.72 1133.81 299.72C1099.96 299.72 1067.48 325.594 1043.54 371.649C1019.6 417.705 1006.15 480.169 1006.15 545.301L1133.81 545.301H1261.48Z"/>
</mask>
<path d="M1261.48 545.301C1261.48 480.169 1248.03 417.705 1224.09 371.649C1200.14 325.594 1167.67 299.72 1133.81 299.72C1099.96 299.72 1067.48 325.594 1043.54 371.649C1019.6 417.705 1006.15 480.169 1006.15 545.301L1133.81 545.301H1261.48Z" stroke="url(#paint2_linear_1434_348)" stroke-width="2" stroke-dasharray="3 3" mask="url(#path-15-inside-2_1434_348)"/>
<path d="M1430.98 544.368C1430.98 585.478 1422.05 624.904 1406.16 653.973C1390.26 683.042 1368.71 699.373 1346.23 699.373C1323.75 699.373 1302.2 683.042 1286.3 653.973C1270.41 624.904 1261.48 585.478 1261.48 544.368L1346.23 544.368L1430.98 544.368Z" stroke="url(#paint3_linear_1434_348)" stroke-dasharray="3 3"/>
<path d="M186.523 544.368C186.523 585.478 177.594 624.904 161.7 653.973C145.806 683.042 124.249 699.373 101.771 699.373C79.2938 699.373 57.7369 683.042 41.8428 653.973C25.9487 624.904 17.0195 585.478 17.0195 544.368L101.771 544.368L186.523 544.368Z" stroke="url(#paint4_linear_1434_348)" stroke-dasharray="3 3"/>
<path d="M1430.87 533.242C1429.74 491.535 1420.18 452.282 1404.2 423.718C1388.21 395.155 1367.05 379.5 1345.14 380.038C1323.23 380.576 1302.28 397.265 1286.69 426.605C1271.1 455.944 1262.07 495.654 1261.51 537.402L1271.42 537.89C1271.92 501.028 1279.89 465.966 1293.66 440.061C1307.43 414.155 1325.92 399.419 1345.27 398.944C1364.61 398.469 1383.3 412.291 1397.41 437.512C1411.53 462.732 1419.97 497.391 1420.96 534.216L1430.87 533.242Z" fill="url(#paint5_linear_1434_348)"/>
<path d="M186.411 533.242C185.282 491.535 175.722 452.282 159.738 423.718C143.754 395.155 122.588 379.5 100.679 380.038C78.7707 380.576 57.8229 397.265 42.2304 426.605C26.6379 455.944 17.6125 495.654 17.0477 537.402L26.9641 537.89C27.4628 501.028 35.4318 465.966 49.1993 440.061C62.9668 414.155 81.4628 399.419 100.807 398.944C120.151 398.469 138.84 412.291 152.954 437.512C167.067 462.732 175.507 497.391 176.504 534.216L186.411 533.242Z" fill="url(#paint6_linear_1434_348)"/>
<path d="M441.851 552.772C441.851 585.46 438.458 617.82 431.872 647.954C425.286 678.087 415.639 705.388 403.496 728.256C391.353 751.124 376.96 769.099 361.158 781.126C345.357 793.153 328.467 798.991 311.478 798.297C294.489 797.604 277.742 790.393 262.221 777.087C246.699 763.781 232.715 744.648 221.087 720.809C209.46 696.971 200.423 668.907 194.508 638.263C188.592 607.619 185.916 575.011 186.637 542.352L196.583 543.165C195.918 573.277 198.385 603.342 203.84 631.597C209.294 659.851 217.626 685.727 228.347 707.707C239.067 729.686 251.961 747.327 266.273 759.596C280.584 771.864 296.025 778.513 311.689 779.153C327.354 779.792 342.927 774.409 357.496 763.32C372.065 752.231 385.336 735.658 396.532 714.573C407.728 693.488 416.623 668.316 422.696 640.532C428.768 612.748 431.896 582.911 431.896 552.772H441.851Z" fill="url(#paint7_linear_1434_348)"/>
<path d="M1261.48 556.507C1261.48 589.196 1258.09 621.555 1251.5 651.689C1244.91 681.823 1235.27 709.124 1223.12 731.992C1210.98 754.86 1196.59 772.834 1180.79 784.861C1164.98 796.888 1148.09 802.726 1131.1 802.033C1114.12 801.339 1097.37 794.128 1081.85 780.822C1066.33 767.516 1052.34 748.383 1040.71 724.545C1029.09 700.706 1020.05 672.642 1014.13 641.998C1008.22 611.354 1005.54 578.747 1006.26 546.087L1016.21 546.9C1015.55 577.013 1018.01 607.078 1023.47 635.332C1028.92 663.587 1037.25 689.462 1047.97 711.442C1058.69 733.421 1071.59 751.063 1085.9 763.331C1100.21 775.6 1115.65 782.249 1131.32 782.888C1146.98 783.528 1162.55 778.145 1177.12 767.055C1191.69 755.966 1204.96 739.393 1216.16 718.308C1227.36 697.224 1236.25 672.051 1242.32 644.267C1248.4 616.483 1251.52 586.647 1251.52 556.507H1261.48Z" fill="url(#paint8_linear_1434_348)"/>
<mask id="path-22-inside-3_1434_348" fill="white">
<path d="M1004 545C1004 606.196 996.758 666.793 982.686 723.331C968.615 779.868 947.99 831.24 921.99 874.512C895.99 917.784 865.123 952.109 831.151 975.528C797.18 998.947 760.77 1011 724 1011C687.23 1011 650.82 998.947 616.849 975.528C582.877 952.109 552.01 917.784 526.01 874.512C500.01 831.24 479.385 779.868 465.314 723.33C451.242 666.793 444 606.196 444 545L724 545H1004Z"/>
</mask>
<path d="M1004 545C1004 606.196 996.758 666.793 982.686 723.331C968.615 779.868 947.99 831.24 921.99 874.512C895.99 917.784 865.123 952.109 831.151 975.528C797.18 998.947 760.77 1011 724 1011C687.23 1011 650.82 998.947 616.849 975.528C582.877 952.109 552.01 917.784 526.01 874.512C500.01 831.24 479.385 779.868 465.314 723.33C451.242 666.793 444 606.196 444 545L724 545H1004Z" stroke="url(#paint9_linear_1434_348)" stroke-width="2" stroke-dasharray="3 3" mask="url(#path-22-inside-3_1434_348)"/>
<path d="M1004.66 537.194C1011.25 477.21 1008.86 415.846 997.647 357.349C986.435 298.853 966.671 244.622 939.724 198.411C912.777 152.2 879.29 115.114 841.582 89.7193C803.874 64.3248 762.846 51.229 721.338 51.3386C679.831 51.4482 638.835 64.7605 601.19 90.354C563.545 115.947 530.15 153.211 503.317 199.563C476.483 245.916 456.853 300.251 445.786 358.806C434.718 417.362 432.477 478.738 439.217 538.687L457.115 534.375C450.801 478.223 452.9 420.733 463.267 365.885C473.634 311.038 492.021 260.144 517.155 216.726C542.289 173.308 573.569 138.405 608.831 114.432C644.092 90.4592 682.492 77.9898 721.371 77.8872C760.25 77.7845 798.68 90.0511 834.001 113.838C869.321 137.624 900.687 172.362 925.928 215.647C951.169 258.931 969.681 309.728 980.183 364.521C990.685 419.313 992.926 476.792 986.751 532.977L1004.66 537.194Z" fill="url(#paint10_linear_1434_348)"/>
<circle cx="20.5" cy="543.5" r="14.5" fill="#D9D9D9"/>
<circle cx="1264.5" cy="543.5" r="14.5" fill="#D9D9D9"/>
<circle cx="184.5" cy="543.5" r="14.5" fill="#D9D9D9"/>
<circle cx="1427.5" cy="543.5" r="14.5" fill="#D9D9D9"/>
<circle cx="442.5" cy="544.5" r="29.5" fill="#D9D9D9"/>
<circle cx="998.5" cy="544.5" r="29.5" fill="#D9D9D9"/>
<circle cx="102.5" cy="461.5" r="23.25" fill="#0B0D2F" stroke="#848484" stroke-width="0.5"/>
<circle cx="1134.5" cy="398.5" r="23.25" fill="#0B0D2F" stroke="#848484" stroke-width="0.5"/>
<circle cx="1346.5" cy="470.5" r="23.25" fill="#0B0D2F" stroke="#848484" stroke-width="0.5"/>
<circle cx="314.5" cy="379.5" r="23.25" fill="#0B0D2F" stroke="#848484" stroke-width="0.5"/>
<circle cx="723" cy="264" r="42.75" fill="#0B0D2F" stroke="#848484" stroke-width="0.5"/>
<path d="M105.011 452.818V471H101.717V456.023H101.611L97.3583 458.74V455.721L101.877 452.818H105.011Z" fill="white"/>
<path d="M1127.29 404.626V402.007L1135 389.818H1137.19V393.547H1135.85L1130.66 401.777V401.919H1141.43V404.626H1127.29ZM1135.96 408V403.827L1136 402.656V389.818H1139.1V408H1135.96Z" fill="white"/>
<path d="M1345.94 480.249C1344.75 480.249 1343.69 480.027 1342.76 479.583C1341.82 479.133 1341.08 478.517 1340.53 477.736C1339.99 476.955 1339.7 476.061 1339.66 475.055H1342.86C1342.92 475.801 1343.24 476.41 1343.82 476.884C1344.41 477.351 1345.11 477.585 1345.94 477.585C1346.58 477.585 1347.16 477.437 1347.66 477.141C1348.16 476.845 1348.56 476.434 1348.85 475.907C1349.14 475.381 1349.28 474.78 1349.27 474.105C1349.28 473.419 1349.14 472.809 1348.84 472.276C1348.54 471.744 1348.14 471.326 1347.62 471.025C1347.11 470.717 1346.52 470.563 1345.85 470.563C1345.3 470.557 1344.77 470.658 1344.24 470.865C1343.71 471.072 1343.3 471.344 1342.99 471.681L1340.02 471.193L1340.97 461.818H1351.51V464.57H1343.69L1343.17 469.391H1343.27C1343.61 468.994 1344.09 468.666 1344.7 468.406C1345.32 468.139 1345.99 468.006 1346.73 468.006C1347.83 468.006 1348.81 468.266 1349.67 468.787C1350.54 469.302 1351.22 470.012 1351.72 470.918C1352.21 471.824 1352.46 472.859 1352.46 474.025C1352.46 475.227 1352.18 476.298 1351.63 477.239C1351.08 478.174 1350.31 478.911 1349.33 479.45C1348.35 479.982 1347.22 480.249 1345.94 480.249Z" fill="white"/>
<path d="M307.616 389V386.621L313.928 380.433C314.532 379.823 315.035 379.282 315.437 378.808C315.84 378.335 316.141 377.876 316.343 377.432C316.544 376.988 316.645 376.515 316.645 376.012C316.645 375.438 316.514 374.946 316.254 374.538C315.993 374.124 315.635 373.804 315.18 373.579C314.724 373.354 314.206 373.242 313.626 373.242C313.028 373.242 312.504 373.366 312.055 373.615C311.605 373.857 311.256 374.204 311.007 374.653C310.764 375.103 310.643 375.639 310.643 376.26H307.509C307.509 375.106 307.773 374.103 308.299 373.251C308.826 372.398 309.551 371.739 310.474 371.271C311.404 370.803 312.469 370.57 313.67 370.57C314.89 370.57 315.961 370.797 316.884 371.253C317.808 371.709 318.524 372.333 319.033 373.126C319.548 373.92 319.805 374.825 319.805 375.843C319.805 376.524 319.675 377.192 319.414 377.849C319.154 378.506 318.695 379.234 318.038 380.033C317.387 380.832 316.473 381.8 315.295 382.936L312.161 386.124V386.248H320.08V389H307.616Z" fill="white"/>
<path d="M723.397 277.348C721.608 277.348 720.017 277.041 718.625 276.428C717.241 275.815 716.147 274.962 715.343 273.868C714.54 272.774 714.113 271.511 714.063 270.077H718.737C718.778 270.765 719.006 271.366 719.42 271.879C719.834 272.385 720.385 272.778 721.073 273.06C721.761 273.342 722.531 273.483 723.385 273.483C724.296 273.483 725.104 273.325 725.809 273.01C726.513 272.687 727.064 272.24 727.462 271.668C727.859 271.096 728.054 270.437 728.046 269.692C728.054 268.921 727.855 268.242 727.449 267.653C727.043 267.065 726.455 266.605 725.684 266.274C724.922 265.942 724.002 265.777 722.925 265.777H720.675V262.222H722.925C723.812 262.222 724.586 262.069 725.249 261.762C725.92 261.455 726.447 261.025 726.828 260.469C727.209 259.906 727.395 259.256 727.387 258.518C727.395 257.797 727.234 257.172 726.902 256.641C726.579 256.103 726.119 255.684 725.523 255.386C724.934 255.088 724.243 254.939 723.447 254.939C722.668 254.939 721.947 255.079 721.284 255.361C720.622 255.643 720.087 256.045 719.681 256.567C719.275 257.08 719.06 257.694 719.035 258.406H714.598C714.631 256.981 715.041 255.73 715.828 254.653C716.624 253.567 717.684 252.722 719.01 252.117C720.336 251.504 721.823 251.197 723.472 251.197C725.171 251.197 726.645 251.516 727.897 252.154C729.156 252.784 730.13 253.634 730.817 254.702C731.505 255.771 731.849 256.952 731.849 258.245C731.857 259.678 731.435 260.88 730.581 261.849C729.736 262.819 728.626 263.452 727.25 263.751V263.95C729.04 264.198 730.411 264.861 731.364 265.938C732.326 267.007 732.802 268.337 732.794 269.928C732.794 271.353 732.388 272.629 731.576 273.756C730.772 274.875 729.662 275.753 728.245 276.391C726.836 277.029 725.22 277.348 723.397 277.348Z" fill="white"/>
<path d="M47.6381 740.182V762H44.3462V740.182H47.6381ZM58.3022 762.32C56.9812 762.32 55.8022 761.982 54.7653 761.308C53.7354 760.626 52.9258 759.656 52.3363 758.399C51.7539 757.135 51.4627 755.619 51.4627 753.85C51.4627 752.082 51.7575 750.569 52.3469 749.312C52.9435 748.055 53.7603 747.092 54.7972 746.425C55.8342 745.757 57.0096 745.423 58.3235 745.423C59.3391 745.423 60.1559 745.594 60.7738 745.935C61.3988 746.268 61.8817 746.659 62.2227 747.107C62.5707 747.554 62.8406 747.948 63.0323 748.289H63.2241V740.182H66.4094V762H63.2987V759.454H63.0323C62.8406 759.802 62.5636 760.2 62.2013 760.647C61.8462 761.094 61.3562 761.485 60.7312 761.819C60.1062 762.153 59.2965 762.32 58.3022 762.32ZM59.0053 759.603C59.9215 759.603 60.6957 759.362 61.3278 758.879C61.967 758.388 62.4499 757.71 62.7766 756.844C63.1104 755.977 63.2773 754.969 63.2773 753.818C63.2773 752.682 63.114 751.687 62.7873 750.835C62.4606 749.983 61.9812 749.319 61.3491 748.843C60.717 748.367 59.9357 748.129 59.0053 748.129C58.0465 748.129 57.2475 748.378 56.6083 748.875C55.9691 749.372 55.4862 750.05 55.1594 750.91C54.8398 751.769 54.68 752.739 54.68 753.818C54.68 754.912 54.8434 755.896 55.1701 756.769C55.4968 757.643 55.9798 758.335 56.619 758.847C57.2653 759.351 58.0607 759.603 59.0053 759.603ZM78.0083 762.33C76.3961 762.33 75.0076 761.986 73.8429 761.297C72.6852 760.601 71.7903 759.624 71.1582 758.367C70.5332 757.103 70.2207 755.622 70.2207 753.925C70.2207 752.249 70.5332 750.771 71.1582 749.493C71.7903 748.214 72.671 747.217 73.8002 746.499C74.9366 745.782 76.2647 745.423 77.7846 745.423C78.7079 745.423 79.6028 745.576 80.4693 745.881C81.3358 746.187 82.1135 746.666 82.8024 747.32C83.4913 747.973 84.0346 748.822 84.4324 749.866C84.8301 750.903 85.0289 752.163 85.0289 753.648V754.777H72.0211V752.391H81.9075C81.9075 751.553 81.737 750.81 81.3961 750.164C81.0552 749.511 80.5758 748.996 79.9579 748.619C79.3471 748.243 78.6298 748.055 77.8059 748.055C76.911 748.055 76.1298 748.275 75.4622 748.715C74.8017 749.148 74.2903 749.717 73.9281 750.42C73.573 751.116 73.3954 751.872 73.3954 752.689V754.553C73.3954 755.647 73.5872 756.577 73.9707 757.344C74.3613 758.112 74.9047 758.697 75.6007 759.102C76.2967 759.5 77.1099 759.699 78.0403 759.699C78.644 759.699 79.1944 759.614 79.6916 759.443C80.1887 759.266 80.6184 759.003 80.9806 758.655C81.3429 758.307 81.6199 757.877 81.8116 757.366L84.8265 757.909C84.585 758.797 84.1518 759.575 83.5268 760.242C82.9089 760.903 82.1312 761.418 81.1937 761.787C80.2633 762.149 79.2015 762.33 78.0083 762.33ZM91.7486 752.284V762H88.5632V745.636H91.6207V748.3H91.8232C92.1996 747.433 92.7891 746.737 93.5916 746.212C94.4013 745.686 95.4205 745.423 96.6491 745.423C97.7642 745.423 98.7408 745.658 99.5788 746.126C100.417 746.588 101.067 747.277 101.528 748.193C101.99 749.109 102.221 750.242 102.221 751.592V762H99.0355V751.975C99.0355 750.789 98.7266 749.862 98.1087 749.195C97.4908 748.52 96.642 748.183 95.5625 748.183C94.8239 748.183 94.1669 748.342 93.5916 748.662C93.0234 748.982 92.5724 749.45 92.2386 750.068C91.9119 750.679 91.7486 751.418 91.7486 752.284ZM114.131 745.636V748.193H105.193V745.636H114.131ZM107.59 741.716H110.776V757.195C110.776 757.813 110.868 758.278 111.053 758.591C111.237 758.896 111.475 759.106 111.766 759.219C112.065 759.326 112.388 759.379 112.736 759.379C112.991 759.379 113.215 759.362 113.407 759.326C113.599 759.29 113.748 759.262 113.854 759.241L114.43 761.872C114.245 761.943 113.982 762.014 113.641 762.085C113.3 762.163 112.874 762.206 112.363 762.213C111.525 762.227 110.744 762.078 110.019 761.766C109.295 761.453 108.709 760.97 108.261 760.317C107.814 759.663 107.59 758.843 107.59 757.856V741.716ZM117.655 762V745.636H120.84V762H117.655ZM119.264 743.112C118.71 743.112 118.234 742.927 117.836 742.558C117.445 742.181 117.25 741.734 117.25 741.215C117.25 740.69 117.445 740.242 117.836 739.873C118.234 739.496 118.71 739.308 119.264 739.308C119.818 739.308 120.29 739.496 120.681 739.873C121.078 740.242 121.277 740.69 121.277 741.215C121.277 741.734 121.078 742.181 120.681 742.558C120.29 742.927 119.818 743.112 119.264 743.112ZM132.913 745.636V748.193H123.666V745.636H132.913ZM126.202 762V743.74C126.202 742.717 126.425 741.869 126.873 741.194C127.32 740.512 127.913 740.004 128.652 739.67C129.391 739.33 130.193 739.159 131.06 739.159C131.699 739.159 132.246 739.212 132.7 739.319C133.155 739.418 133.492 739.511 133.712 739.596L132.967 742.174C132.817 742.131 132.626 742.082 132.391 742.025C132.157 741.961 131.873 741.929 131.539 741.929C130.765 741.929 130.211 742.121 129.877 742.504C129.55 742.888 129.387 743.442 129.387 744.166V762H126.202ZM138.213 768.136C137.738 768.136 137.304 768.097 136.914 768.019C136.523 767.948 136.232 767.87 136.04 767.785L136.807 765.175C137.39 765.331 137.908 765.398 138.363 765.377C138.817 765.356 139.218 765.185 139.566 764.866C139.922 764.546 140.234 764.024 140.504 763.3L140.898 762.213L134.911 745.636H138.32L142.464 758.335H142.635L146.779 745.636H150.199L143.455 764.184C143.142 765.036 142.745 765.757 142.262 766.347C141.779 766.943 141.203 767.391 140.536 767.689C139.868 767.987 139.094 768.136 138.213 768.136ZM42.7282 779.016V776.182H59.6139V779.016H52.8064V798H49.5251V779.016H42.7282ZM66.2749 788.284V798H63.0896V776.182H66.2323V784.3H66.4347C66.8183 783.419 67.4042 782.719 68.1926 782.201C68.9809 781.683 70.0107 781.423 71.282 781.423C72.4042 781.423 73.3843 781.654 74.2224 782.116C75.0676 782.577 75.721 783.266 76.1826 784.183C76.6514 785.092 76.8857 786.228 76.8857 787.592V798H73.7004V787.975C73.7004 786.775 73.3914 785.844 72.7735 785.184C72.1556 784.516 71.2963 784.183 70.1954 784.183C69.4426 784.183 68.7678 784.342 68.1713 784.662C67.5818 784.982 67.1166 785.45 66.7757 786.068C66.4419 786.679 66.2749 787.418 66.2749 788.284ZM81.1365 798V781.636H84.2153V784.236H84.3857C84.684 783.355 85.2096 782.663 85.9624 782.158C86.7224 781.647 87.5818 781.391 88.5406 781.391C88.7394 781.391 88.9738 781.398 89.2437 781.413C89.5207 781.427 89.7373 781.445 89.8936 781.466V784.513C89.7657 784.477 89.5384 784.438 89.2117 784.396C88.885 784.346 88.5583 784.321 88.2316 784.321C87.4788 784.321 86.8076 784.481 86.2181 784.8C85.6357 785.113 85.1741 785.55 84.8332 786.111C84.4923 786.665 84.3218 787.297 84.3218 788.007V798H81.1365ZM99.1167 798.33C97.5045 798.33 96.116 797.986 94.9513 797.297C93.7936 796.601 92.8987 795.624 92.2666 794.367C91.6416 793.103 91.3291 791.622 91.3291 789.925C91.3291 788.249 91.6416 786.771 92.2666 785.493C92.8987 784.214 93.7794 783.217 94.9086 782.499C96.045 781.782 97.3731 781.423 98.893 781.423C99.8163 781.423 100.711 781.576 101.578 781.881C102.444 782.187 103.222 782.666 103.911 783.32C104.6 783.973 105.143 784.822 105.541 785.866C105.938 786.903 106.137 788.163 106.137 789.648V790.777H93.1295V788.391H103.016C103.016 787.553 102.845 786.81 102.505 786.164C102.164 785.511 101.684 784.996 101.066 784.619C100.456 784.243 99.7382 784.055 98.9143 784.055C98.0194 784.055 97.2382 784.275 96.5706 784.715C95.9101 785.148 95.3987 785.717 95.0365 786.42C94.6814 787.116 94.5038 787.872 94.5038 788.689V790.553C94.5038 791.647 94.6956 792.577 95.0791 793.344C95.4697 794.112 96.0131 794.697 96.7091 795.102C97.4051 795.5 98.2183 795.699 99.1487 795.699C99.7524 795.699 100.303 795.614 100.8 795.443C101.297 795.266 101.727 795.003 102.089 794.655C102.451 794.307 102.728 793.877 102.92 793.366L105.935 793.909C105.693 794.797 105.26 795.575 104.635 796.242C104.017 796.903 103.24 797.418 102.302 797.787C101.372 798.149 100.31 798.33 99.1167 798.33ZM114.434 798.362C113.397 798.362 112.459 798.17 111.621 797.787C110.783 797.396 110.119 796.832 109.629 796.093C109.146 795.354 108.905 794.449 108.905 793.376C108.905 792.453 109.082 791.693 109.437 791.097C109.792 790.5 110.272 790.028 110.875 789.68C111.479 789.332 112.154 789.069 112.9 788.891C113.645 788.714 114.405 788.579 115.179 788.487C116.16 788.373 116.955 788.281 117.566 788.21C118.177 788.131 118.62 788.007 118.897 787.837C119.174 787.666 119.313 787.389 119.313 787.006V786.931C119.313 786.001 119.05 785.28 118.525 784.768C118.006 784.257 117.232 784.001 116.202 784.001C115.13 784.001 114.285 784.239 113.667 784.715C113.056 785.184 112.633 785.706 112.399 786.281L109.405 785.599C109.76 784.605 110.279 783.803 110.961 783.192C111.65 782.574 112.441 782.126 113.336 781.849C114.231 781.565 115.172 781.423 116.16 781.423C116.813 781.423 117.505 781.501 118.237 781.658C118.976 781.807 119.665 782.084 120.304 782.489C120.95 782.893 121.479 783.472 121.891 784.225C122.303 784.971 122.509 785.94 122.509 787.134V798H119.398V795.763H119.27C119.064 796.175 118.755 796.58 118.343 796.977C117.932 797.375 117.402 797.705 116.756 797.968C116.11 798.231 115.336 798.362 114.434 798.362ZM115.126 795.805C116.007 795.805 116.76 795.631 117.385 795.283C118.017 794.935 118.496 794.481 118.823 793.92C119.157 793.352 119.324 792.744 119.324 792.098V789.989C119.21 790.102 118.99 790.209 118.663 790.308C118.343 790.401 117.978 790.482 117.566 790.553C117.154 790.617 116.753 790.678 116.362 790.734C115.971 790.784 115.645 790.827 115.382 790.862C114.764 790.94 114.199 791.072 113.688 791.256C113.184 791.441 112.779 791.707 112.473 792.055C112.175 792.396 112.026 792.851 112.026 793.419C112.026 794.207 112.317 794.804 112.9 795.209C113.482 795.607 114.224 795.805 115.126 795.805ZM134.39 781.636V784.193H125.452V781.636H134.39ZM127.849 777.716H131.034V793.195C131.034 793.813 131.127 794.278 131.311 794.591C131.496 794.896 131.734 795.106 132.025 795.219C132.323 795.326 132.647 795.379 132.995 795.379C133.25 795.379 133.474 795.362 133.666 795.326C133.858 795.29 134.007 795.262 134.113 795.241L134.688 797.872C134.504 797.943 134.241 798.014 133.9 798.085C133.559 798.163 133.133 798.206 132.622 798.213C131.784 798.227 131.002 798.078 130.278 797.766C129.554 797.453 128.968 796.97 128.52 796.317C128.073 795.663 127.849 794.843 127.849 793.856V777.716ZM149.912 785.631L147.025 786.143C146.904 785.773 146.713 785.422 146.45 785.088C146.194 784.754 145.846 784.481 145.406 784.268C144.965 784.055 144.415 783.948 143.755 783.948C142.853 783.948 142.1 784.151 141.496 784.555C140.892 784.953 140.59 785.468 140.59 786.1C140.59 786.647 140.793 787.087 141.198 787.421C141.603 787.755 142.256 788.028 143.158 788.241L145.757 788.838C147.263 789.186 148.385 789.722 149.124 790.447C149.862 791.171 150.232 792.112 150.232 793.27C150.232 794.25 149.948 795.124 149.38 795.891C148.818 796.651 148.034 797.247 147.025 797.68C146.024 798.114 144.862 798.33 143.541 798.33C141.709 798.33 140.214 797.94 139.056 797.158C137.899 796.37 137.188 795.251 136.926 793.803L140.005 793.334C140.196 794.136 140.59 794.744 141.187 795.156C141.784 795.56 142.561 795.763 143.52 795.763C144.564 795.763 145.399 795.546 146.024 795.113C146.649 794.673 146.961 794.136 146.961 793.504C146.961 792.993 146.769 792.563 146.386 792.215C146.009 791.867 145.431 791.604 144.649 791.427L141.88 790.82C140.353 790.472 139.223 789.918 138.492 789.158C137.767 788.398 137.405 787.435 137.405 786.271C137.405 785.305 137.675 784.46 138.215 783.735C138.755 783.011 139.5 782.446 140.452 782.041C141.404 781.629 142.494 781.423 143.723 781.423C145.491 781.423 146.883 781.807 147.899 782.574C148.914 783.334 149.585 784.353 149.912 785.631Z" fill="white"/>
<path d="M1287.79 740.182H1291.78L1298.73 757.142H1298.99L1305.93 740.182H1309.93V762H1306.79V746.212H1306.59L1300.16 761.968H1297.56L1291.12 746.201H1290.92V762H1287.79V740.182ZM1314.46 762V745.636H1317.64V762H1314.46ZM1316.07 743.112C1315.51 743.112 1315.04 742.927 1314.64 742.558C1314.25 742.181 1314.05 741.734 1314.05 741.215C1314.05 740.69 1314.25 740.242 1314.64 739.873C1315.04 739.496 1315.51 739.308 1316.07 739.308C1316.62 739.308 1317.09 739.496 1317.48 739.873C1317.88 740.242 1318.08 740.69 1318.08 741.215C1318.08 741.734 1317.88 742.181 1317.48 742.558C1317.09 742.927 1316.62 743.112 1316.07 743.112ZM1329.57 745.636V748.193H1320.63V745.636H1329.57ZM1323.02 741.716H1326.21V757.195C1326.21 757.813 1326.3 758.278 1326.49 758.591C1326.67 758.896 1326.91 759.106 1327.2 759.219C1327.5 759.326 1327.82 759.379 1328.17 759.379C1328.43 759.379 1328.65 759.362 1328.84 759.326C1329.03 759.29 1329.18 759.262 1329.29 759.241L1329.86 761.872C1329.68 761.943 1329.42 762.014 1329.08 762.085C1328.73 762.163 1328.31 762.206 1327.8 762.213C1326.96 762.227 1326.18 762.078 1325.45 761.766C1324.73 761.453 1324.14 760.97 1323.7 760.317C1323.25 759.663 1323.02 758.843 1323.02 757.856V741.716ZM1333.09 762V745.636H1336.27V762H1333.09ZM1334.7 743.112C1334.14 743.112 1333.67 742.927 1333.27 742.558C1332.88 742.181 1332.68 741.734 1332.68 741.215C1332.68 740.69 1332.88 740.242 1333.27 739.873C1333.67 739.496 1334.14 739.308 1334.7 739.308C1335.25 739.308 1335.72 739.496 1336.12 739.873C1336.51 740.242 1336.71 740.69 1336.71 741.215C1336.71 741.734 1336.51 742.181 1336.12 742.558C1335.72 742.927 1335.25 743.112 1334.7 743.112ZM1347.42 768.477C1346.12 768.477 1345 768.307 1344.07 767.966C1343.13 767.625 1342.37 767.174 1341.79 766.613C1341.2 766.052 1340.76 765.438 1340.46 764.77L1343.2 763.641C1343.39 763.953 1343.65 764.283 1343.97 764.631C1344.3 764.987 1344.74 765.288 1345.29 765.537C1345.85 765.786 1346.57 765.91 1347.45 765.91C1348.66 765.91 1349.66 765.615 1350.45 765.026C1351.23 764.443 1351.63 763.513 1351.63 762.234V759.017H1351.43C1351.23 759.365 1350.96 759.752 1350.6 760.178C1350.24 760.604 1349.75 760.974 1349.13 761.286C1348.5 761.599 1347.69 761.755 1346.69 761.755C1345.39 761.755 1344.23 761.453 1343.19 760.849C1342.16 760.239 1341.35 759.34 1340.74 758.154C1340.14 756.961 1339.85 755.494 1339.85 753.754C1339.85 752.014 1340.14 750.523 1340.73 749.28C1341.33 748.037 1342.14 747.085 1343.18 746.425C1344.22 745.757 1345.39 745.423 1346.71 745.423C1347.72 745.423 1348.54 745.594 1349.17 745.935C1349.79 746.268 1350.28 746.659 1350.63 747.107C1350.98 747.554 1351.26 747.948 1351.45 748.289H1351.68V745.636H1354.8V762.362C1354.8 763.768 1354.48 764.923 1353.82 765.825C1353.17 766.727 1352.29 767.394 1351.17 767.827C1350.06 768.261 1348.81 768.477 1347.42 768.477ZM1347.39 759.113C1348.31 759.113 1349.08 758.9 1349.71 758.474C1350.35 758.04 1350.83 757.423 1351.16 756.62C1351.49 755.81 1351.66 754.841 1351.66 753.712C1351.66 752.611 1351.5 751.641 1351.17 750.803C1350.84 749.965 1350.36 749.312 1349.73 748.843C1349.1 748.367 1348.32 748.129 1347.39 748.129C1346.43 748.129 1345.63 748.378 1344.99 748.875C1344.35 749.365 1343.87 750.033 1343.54 750.878C1343.22 751.723 1343.06 752.668 1343.06 753.712C1343.06 754.784 1343.23 755.725 1343.55 756.535C1343.88 757.344 1344.36 757.977 1345 758.431C1345.65 758.886 1346.44 759.113 1347.39 759.113ZM1363.84 762.362C1362.8 762.362 1361.86 762.17 1361.03 761.787C1360.19 761.396 1359.52 760.832 1359.03 760.093C1358.55 759.354 1358.31 758.449 1358.31 757.376C1358.31 756.453 1358.49 755.693 1358.84 755.097C1359.2 754.5 1359.68 754.028 1360.28 753.68C1360.88 753.332 1361.56 753.069 1362.3 752.891C1363.05 752.714 1363.81 752.579 1364.58 752.487C1365.56 752.373 1366.36 752.281 1366.97 752.21C1367.58 752.131 1368.02 752.007 1368.3 751.837C1368.58 751.666 1368.72 751.389 1368.72 751.006V750.931C1368.72 750.001 1368.45 749.28 1367.93 748.768C1367.41 748.257 1366.64 748.001 1365.61 748.001C1364.53 748.001 1363.69 748.239 1363.07 748.715C1362.46 749.184 1362.04 749.706 1361.8 750.281L1358.81 749.599C1359.16 748.605 1359.68 747.803 1360.36 747.192C1361.05 746.574 1361.85 746.126 1362.74 745.849C1363.64 745.565 1364.58 745.423 1365.56 745.423C1366.22 745.423 1366.91 745.501 1367.64 745.658C1368.38 745.807 1369.07 746.084 1369.71 746.489C1370.35 746.893 1370.88 747.472 1371.3 748.225C1371.71 748.971 1371.91 749.94 1371.91 751.134V762H1368.8V759.763H1368.67C1368.47 760.175 1368.16 760.58 1367.75 760.977C1367.34 761.375 1366.81 761.705 1366.16 761.968C1365.51 762.231 1364.74 762.362 1363.84 762.362ZM1364.53 759.805C1365.41 759.805 1366.16 759.631 1366.79 759.283C1367.42 758.935 1367.9 758.481 1368.23 757.92C1368.56 757.352 1368.73 756.744 1368.73 756.098V753.989C1368.61 754.102 1368.39 754.209 1368.07 754.308C1367.75 754.401 1367.38 754.482 1366.97 754.553C1366.56 754.617 1366.16 754.678 1365.77 754.734C1365.38 754.784 1365.05 754.827 1364.79 754.862C1364.17 754.94 1363.6 755.072 1363.09 755.256C1362.59 755.441 1362.18 755.707 1361.88 756.055C1361.58 756.396 1361.43 756.851 1361.43 757.419C1361.43 758.207 1361.72 758.804 1362.3 759.209C1362.89 759.607 1363.63 759.805 1364.53 759.805ZM1383.79 745.636V748.193H1374.86V745.636H1383.79ZM1377.25 741.716H1380.44V757.195C1380.44 757.813 1380.53 758.278 1380.72 758.591C1380.9 758.896 1381.14 759.106 1381.43 759.219C1381.73 759.326 1382.05 759.379 1382.4 759.379C1382.65 759.379 1382.88 759.362 1383.07 759.326C1383.26 759.29 1383.41 759.262 1383.52 759.241L1384.09 761.872C1383.91 761.943 1383.65 762.014 1383.3 762.085C1382.96 762.163 1382.54 762.206 1382.03 762.213C1381.19 762.227 1380.41 762.078 1379.68 761.766C1378.96 761.453 1378.37 760.97 1377.92 760.317C1377.48 759.663 1377.25 758.843 1377.25 757.856V741.716ZM1394.19 762.33C1392.58 762.33 1391.19 761.986 1390.03 761.297C1388.87 760.601 1387.98 759.624 1387.34 758.367C1386.72 757.103 1386.41 755.622 1386.41 753.925C1386.41 752.249 1386.72 750.771 1387.34 749.493C1387.98 748.214 1388.86 747.217 1389.99 746.499C1391.12 745.782 1392.45 745.423 1393.97 745.423C1394.89 745.423 1395.79 745.576 1396.66 745.881C1397.52 746.187 1398.3 746.666 1398.99 747.32C1399.68 747.973 1400.22 748.822 1400.62 749.866C1401.02 750.903 1401.22 752.163 1401.22 753.648V754.777H1388.21V752.391H1398.09C1398.09 751.553 1397.92 750.81 1397.58 750.164C1397.24 749.511 1396.76 748.996 1396.14 748.619C1395.53 748.243 1394.82 748.055 1393.99 748.055C1393.1 748.055 1392.32 748.275 1391.65 748.715C1390.99 749.148 1390.48 749.717 1390.11 750.42C1389.76 751.116 1389.58 751.872 1389.58 752.689V754.553C1389.58 755.647 1389.77 756.577 1390.16 757.344C1390.55 758.112 1391.09 758.697 1391.79 759.102C1392.48 759.5 1393.3 759.699 1394.23 759.699C1394.83 759.699 1395.38 759.614 1395.88 759.443C1396.38 759.266 1396.8 759.003 1397.17 758.655C1397.53 758.307 1397.81 757.877 1398 757.366L1401.01 757.909C1400.77 758.797 1400.34 759.575 1399.71 760.242C1399.1 760.903 1398.32 761.418 1397.38 761.787C1396.45 762.149 1395.39 762.33 1394.19 762.33ZM1283.79 776.182V798H1280.49V776.182H1283.79ZM1291.51 788.284V798H1288.32V781.636H1291.38V784.3H1291.58C1291.96 783.433 1292.55 782.737 1293.35 782.212C1294.16 781.686 1295.18 781.423 1296.41 781.423C1297.52 781.423 1298.5 781.658 1299.34 782.126C1300.18 782.588 1300.83 783.277 1301.29 784.193C1301.75 785.109 1301.98 786.242 1301.98 787.592V798H1298.8V787.975C1298.8 786.789 1298.49 785.862 1297.87 785.195C1297.25 784.52 1296.4 784.183 1295.32 784.183C1294.58 784.183 1293.93 784.342 1293.35 784.662C1292.78 784.982 1292.33 785.45 1292 786.068C1291.67 786.679 1291.51 787.418 1291.51 788.284ZM1313.15 798.33C1311.56 798.33 1310.2 797.972 1309.06 797.254C1307.92 796.53 1307.05 795.532 1306.43 794.261C1305.82 792.989 1305.52 791.533 1305.52 789.893C1305.52 788.231 1305.83 786.764 1306.46 785.493C1307.08 784.214 1307.96 783.217 1309.1 782.499C1310.23 781.782 1311.57 781.423 1313.11 781.423C1314.36 781.423 1315.47 781.654 1316.44 782.116C1317.41 782.57 1318.2 783.21 1318.79 784.033C1319.4 784.857 1319.76 785.82 1319.87 786.92H1316.77C1316.6 786.153 1316.21 785.493 1315.6 784.939C1314.99 784.385 1314.18 784.108 1313.17 784.108C1312.28 784.108 1311.5 784.342 1310.83 784.811C1310.17 785.273 1309.66 785.933 1309.29 786.793C1308.92 787.645 1308.74 788.653 1308.74 789.818C1308.74 791.011 1308.92 792.041 1309.28 792.908C1309.64 793.774 1310.15 794.445 1310.81 794.921C1311.48 795.397 1312.27 795.635 1313.17 795.635C1313.77 795.635 1314.32 795.525 1314.81 795.305C1315.31 795.077 1315.72 794.754 1316.05 794.335C1316.4 793.916 1316.63 793.412 1316.77 792.822H1319.87C1319.76 793.881 1319.41 794.825 1318.84 795.656C1318.26 796.487 1317.49 797.141 1316.52 797.616C1315.56 798.092 1314.44 798.33 1313.15 798.33ZM1323.28 798V781.636H1326.46V798H1323.28ZM1324.88 779.112C1324.33 779.112 1323.85 778.927 1323.46 778.558C1323.07 778.181 1322.87 777.734 1322.87 777.215C1322.87 776.69 1323.07 776.242 1323.46 775.873C1323.85 775.496 1324.33 775.308 1324.88 775.308C1325.44 775.308 1325.91 775.496 1326.3 775.873C1326.7 776.242 1326.9 776.69 1326.9 777.215C1326.9 777.734 1326.7 778.181 1326.3 778.558C1325.91 778.927 1325.44 779.112 1324.88 779.112ZM1336.87 798.32C1335.55 798.32 1334.37 797.982 1333.33 797.308C1332.3 796.626 1331.5 795.656 1330.91 794.399C1330.32 793.135 1330.03 791.619 1330.03 789.85C1330.03 788.082 1330.33 786.569 1330.92 785.312C1331.51 784.055 1332.33 783.092 1333.37 782.425C1334.4 781.757 1335.58 781.423 1336.89 781.423C1337.91 781.423 1338.73 781.594 1339.34 781.935C1339.97 782.268 1340.45 782.659 1340.79 783.107C1341.14 783.554 1341.41 783.948 1341.6 784.289H1341.79V776.182H1344.98V798H1341.87V795.454H1341.6C1341.41 795.802 1341.13 796.2 1340.77 796.647C1340.42 797.094 1339.93 797.485 1339.3 797.819C1338.68 798.153 1337.87 798.32 1336.87 798.32ZM1337.57 795.603C1338.49 795.603 1339.27 795.362 1339.9 794.879C1340.54 794.388 1341.02 793.71 1341.35 792.844C1341.68 791.977 1341.85 790.969 1341.85 789.818C1341.85 788.682 1341.68 787.687 1341.36 786.835C1341.03 785.983 1340.55 785.319 1339.92 784.843C1339.29 784.367 1338.51 784.129 1337.57 784.129C1336.62 784.129 1335.82 784.378 1335.18 784.875C1334.54 785.372 1334.06 786.05 1333.73 786.91C1333.41 787.769 1333.25 788.739 1333.25 789.818C1333.25 790.912 1333.41 791.896 1333.74 792.769C1334.07 793.643 1334.55 794.335 1335.19 794.847C1335.83 795.351 1336.63 795.603 1337.57 795.603ZM1356.58 798.33C1354.97 798.33 1353.58 797.986 1352.41 797.297C1351.25 796.601 1350.36 795.624 1349.73 794.367C1349.1 793.103 1348.79 791.622 1348.79 789.925C1348.79 788.249 1349.1 786.771 1349.73 785.493C1350.36 784.214 1351.24 783.217 1352.37 782.499C1353.51 781.782 1354.83 781.423 1356.35 781.423C1357.28 781.423 1358.17 781.576 1359.04 781.881C1359.91 782.187 1360.68 782.666 1361.37 783.32C1362.06 783.973 1362.6 784.822 1363 785.866C1363.4 786.903 1363.6 788.163 1363.6 789.648V790.777H1350.59V788.391H1360.48C1360.48 787.553 1360.31 786.81 1359.97 786.164C1359.62 785.511 1359.15 784.996 1358.53 784.619C1357.92 784.243 1357.2 784.055 1356.38 784.055C1355.48 784.055 1354.7 784.275 1354.03 784.715C1353.37 785.148 1352.86 785.717 1352.5 786.42C1352.14 787.116 1351.96 787.872 1351.96 788.689V790.553C1351.96 791.647 1352.16 792.577 1352.54 793.344C1352.93 794.112 1353.47 794.697 1354.17 795.102C1354.87 795.5 1355.68 795.699 1356.61 795.699C1357.21 795.699 1357.76 795.614 1358.26 795.443C1358.76 795.266 1359.19 795.003 1359.55 794.655C1359.91 794.307 1360.19 793.877 1360.38 793.366L1363.4 793.909C1363.15 794.797 1362.72 795.575 1362.1 796.242C1361.48 796.903 1360.7 797.418 1359.76 797.787C1358.83 798.149 1357.77 798.33 1356.58 798.33ZM1370.32 788.284V798H1367.13V781.636H1370.19V784.3H1370.39C1370.77 783.433 1371.36 782.737 1372.16 782.212C1372.97 781.686 1373.99 781.423 1375.22 781.423C1376.33 781.423 1377.31 781.658 1378.15 782.126C1378.99 782.588 1379.64 783.277 1380.1 784.193C1380.56 785.109 1380.79 786.242 1380.79 787.592V798H1377.6V787.975C1377.6 786.789 1377.3 785.862 1376.68 785.195C1376.06 784.52 1375.21 784.183 1374.13 784.183C1373.39 784.183 1372.74 784.342 1372.16 784.662C1371.59 784.982 1371.14 785.45 1370.81 786.068C1370.48 786.679 1370.32 787.418 1370.32 788.284ZM1392.7 781.636V784.193H1383.76V781.636H1392.7ZM1386.16 777.716H1389.34V793.195C1389.34 793.813 1389.44 794.278 1389.62 794.591C1389.81 794.896 1390.04 795.106 1390.34 795.219C1390.63 795.326 1390.96 795.379 1391.31 795.379C1391.56 795.379 1391.78 795.362 1391.98 795.326C1392.17 795.29 1392.32 795.262 1392.42 795.241L1393 797.872C1392.81 797.943 1392.55 798.014 1392.21 798.085C1391.87 798.163 1391.44 798.206 1390.93 798.213C1390.09 798.227 1389.31 798.078 1388.59 797.766C1387.86 797.453 1387.28 796.97 1386.83 796.317C1386.38 795.663 1386.16 794.843 1386.16 793.856V777.716ZM1408.22 785.631L1405.34 786.143C1405.21 785.773 1405.02 785.422 1404.76 785.088C1404.5 784.754 1404.16 784.481 1403.72 784.268C1403.28 784.055 1402.73 783.948 1402.07 783.948C1401.16 783.948 1400.41 784.151 1399.81 784.555C1399.2 784.953 1398.9 785.468 1398.9 786.1C1398.9 786.647 1399.1 787.087 1399.51 787.421C1399.91 787.755 1400.57 788.028 1401.47 788.241L1404.07 788.838C1405.57 789.186 1406.7 789.722 1407.43 790.447C1408.17 791.171 1408.54 792.112 1408.54 793.27C1408.54 794.25 1408.26 795.124 1407.69 795.891C1407.13 796.651 1406.34 797.247 1405.34 797.68C1404.33 798.114 1403.17 798.33 1401.85 798.33C1400.02 798.33 1398.52 797.94 1397.37 797.158C1396.21 796.37 1395.5 795.251 1395.24 793.803L1398.32 793.334C1398.51 794.136 1398.9 794.744 1399.5 795.156C1400.09 795.56 1400.87 795.763 1401.83 795.763C1402.87 795.763 1403.71 795.546 1404.33 795.113C1404.96 794.673 1405.27 794.136 1405.27 793.504C1405.27 792.993 1405.08 792.563 1404.7 792.215C1404.32 791.867 1403.74 791.604 1402.96 791.427L1400.19 790.82C1398.66 790.472 1397.53 789.918 1396.8 789.158C1396.08 788.398 1395.72 787.435 1395.72 786.271C1395.72 785.305 1395.99 784.46 1396.53 783.735C1397.07 783.011 1397.81 782.446 1398.76 782.041C1399.71 781.629 1400.8 781.423 1402.03 781.423C1403.8 781.423 1405.19 781.807 1406.21 782.574C1407.22 783.334 1407.9 784.353 1408.22 785.631Z" fill="white"/>
<path d="M653.355 783.182V805H650.713V783.182H653.355ZM658.312 805V788.636H660.741V791.193H660.954C661.295 790.32 661.845 789.641 662.605 789.158C663.365 788.668 664.278 788.423 665.343 788.423C666.423 788.423 667.321 788.668 668.038 789.158C668.763 789.641 669.328 790.32 669.732 791.193H669.903C670.322 790.348 670.95 789.677 671.788 789.18C672.627 788.675 673.631 788.423 674.803 788.423C676.266 788.423 677.463 788.881 678.394 789.798C679.324 790.707 679.789 792.124 679.789 794.048V805H677.275V794.048C677.275 792.841 676.945 791.978 676.284 791.46C675.624 790.941 674.846 790.682 673.951 790.682C672.801 790.682 671.909 791.03 671.277 791.726C670.645 792.415 670.329 793.288 670.329 794.347V805H667.772V793.793C667.772 792.862 667.47 792.113 666.867 791.545C666.263 790.969 665.485 790.682 664.533 790.682C663.88 790.682 663.269 790.856 662.701 791.204C662.14 791.552 661.685 792.035 661.337 792.653C660.997 793.263 660.826 793.97 660.826 794.773V805H658.312ZM684.386 811.136V788.636H686.815V791.236H687.113C687.298 790.952 687.554 790.589 687.88 790.149C688.214 789.702 688.69 789.304 689.308 788.956C689.933 788.601 690.778 788.423 691.843 788.423C693.221 788.423 694.436 788.768 695.487 789.457C696.538 790.146 697.358 791.122 697.948 792.386C698.537 793.651 698.832 795.142 698.832 796.861C698.832 798.594 698.537 800.096 697.948 801.367C697.358 802.631 696.542 803.612 695.498 804.308C694.454 804.996 693.25 805.341 691.886 805.341C690.835 805.341 689.993 805.167 689.361 804.819C688.729 804.464 688.243 804.062 687.902 803.615C687.561 803.161 687.298 802.784 687.113 802.486H686.9V811.136H684.386ZM686.858 796.818C686.858 798.054 687.039 799.144 687.401 800.089C687.763 801.026 688.292 801.761 688.988 802.294C689.684 802.82 690.537 803.082 691.545 803.082C692.596 803.082 693.473 802.805 694.177 802.251C694.887 801.69 695.419 800.937 695.775 799.993C696.137 799.041 696.318 797.983 696.318 796.818C696.318 795.668 696.14 794.631 695.785 793.707C695.437 792.777 694.908 792.042 694.198 791.502C693.495 790.955 692.611 790.682 691.545 790.682C690.522 790.682 689.663 790.941 688.967 791.46C688.271 791.971 687.745 792.688 687.39 793.612C687.035 794.528 686.858 795.597 686.858 796.818ZM705.182 783.182V805H702.667V783.182H705.182ZM716.647 805.341C715.071 805.341 713.71 804.993 712.567 804.297C711.431 803.594 710.554 802.614 709.936 801.357C709.325 800.092 709.019 798.622 709.019 796.946C709.019 795.27 709.325 793.793 709.936 792.514C710.554 791.229 711.413 790.227 712.514 789.51C713.622 788.786 714.914 788.423 716.392 788.423C717.244 788.423 718.085 788.565 718.916 788.849C719.747 789.134 720.504 789.595 721.186 790.234C721.867 790.866 722.411 791.705 722.816 792.749C723.22 793.793 723.423 795.078 723.423 796.605V797.67H710.809V795.497H720.866C720.866 794.574 720.681 793.75 720.312 793.026C719.95 792.301 719.431 791.729 718.757 791.31C718.089 790.891 717.301 790.682 716.392 790.682C715.39 790.682 714.524 790.93 713.792 791.428C713.068 791.918 712.51 792.557 712.12 793.345C711.729 794.134 711.534 794.979 711.534 795.881V797.33C711.534 798.565 711.747 799.613 712.173 800.472C712.606 801.325 713.206 801.974 713.973 802.422C714.74 802.862 715.632 803.082 716.647 803.082C717.308 803.082 717.904 802.99 718.437 802.805C718.977 802.614 719.442 802.33 719.833 801.953C720.223 801.57 720.525 801.094 720.738 800.526L723.167 801.207C722.911 802.031 722.482 802.756 721.878 803.381C721.274 803.999 720.529 804.482 719.641 804.83C718.753 805.17 717.755 805.341 716.647 805.341ZM727.247 805V788.636H729.676V791.193H729.889C730.23 790.32 730.781 789.641 731.541 789.158C732.301 788.668 733.213 788.423 734.279 788.423C735.358 788.423 736.257 788.668 736.974 789.158C737.698 789.641 738.263 790.32 738.668 791.193H738.838C739.257 790.348 739.886 789.677 740.724 789.18C741.562 788.675 742.567 788.423 743.739 788.423C745.202 788.423 746.399 788.881 747.329 789.798C748.26 790.707 748.725 792.124 748.725 794.048V805H746.21V794.048C746.21 792.841 745.88 791.978 745.22 791.46C744.559 790.941 743.782 790.682 742.887 790.682C741.736 790.682 740.845 791.03 740.213 791.726C739.581 792.415 739.264 793.288 739.264 794.347V805H736.708V793.793C736.708 792.862 736.406 792.113 735.802 791.545C735.198 790.969 734.421 790.682 733.469 790.682C732.816 790.682 732.205 790.856 731.637 791.204C731.076 791.552 730.621 792.035 730.273 792.653C729.932 793.263 729.762 793.97 729.762 794.773V805H727.247ZM760.182 805.341C758.606 805.341 757.246 804.993 756.102 804.297C754.966 803.594 754.089 802.614 753.471 801.357C752.86 800.092 752.555 798.622 752.555 796.946C752.555 795.27 752.86 793.793 753.471 792.514C754.089 791.229 754.948 790.227 756.049 789.51C757.157 788.786 758.449 788.423 759.927 788.423C760.779 788.423 761.621 788.565 762.452 788.849C763.283 789.134 764.039 789.595 764.721 790.234C765.403 790.866 765.946 791.705 766.351 792.749C766.756 793.793 766.958 795.078 766.958 796.605V797.67H754.344V795.497H764.401C764.401 794.574 764.217 793.75 763.847 793.026C763.485 792.301 762.967 791.729 762.292 791.31C761.624 790.891 760.836 790.682 759.927 790.682C758.925 790.682 758.059 790.93 757.327 791.428C756.603 791.918 756.045 792.557 755.655 793.345C755.264 794.134 755.069 794.979 755.069 795.881V797.33C755.069 798.565 755.282 799.613 755.708 800.472C756.141 801.325 756.741 801.974 757.508 802.422C758.275 802.862 759.167 803.082 760.182 803.082C760.843 803.082 761.44 802.99 761.972 802.805C762.512 802.614 762.977 802.33 763.368 801.953C763.758 801.57 764.06 801.094 764.273 800.526L766.702 801.207C766.447 802.031 766.017 802.756 765.413 803.381C764.81 803.999 764.064 804.482 763.176 804.83C762.288 805.17 761.29 805.341 760.182 805.341ZM773.297 795.156V805H770.783V788.636H773.212V791.193H773.425C773.808 790.362 774.391 789.695 775.172 789.19C775.953 788.679 776.962 788.423 778.197 788.423C779.305 788.423 780.275 788.651 781.106 789.105C781.937 789.553 782.583 790.234 783.045 791.151C783.506 792.06 783.737 793.21 783.737 794.602V805H781.223V794.773C781.223 793.487 780.889 792.486 780.222 791.768C779.554 791.044 778.638 790.682 777.473 790.682C776.67 790.682 775.953 790.856 775.321 791.204C774.696 791.552 774.202 792.06 773.84 792.727C773.478 793.395 773.297 794.205 773.297 795.156ZM795.448 788.636V790.767H786.968V788.636H795.448ZM789.439 784.716H791.954V800.312C791.954 801.023 792.057 801.555 792.263 801.911C792.476 802.259 792.745 802.493 793.072 802.614C793.406 802.727 793.758 802.784 794.127 802.784C794.404 802.784 794.631 802.77 794.809 802.741C794.986 802.706 795.128 802.678 795.235 802.656L795.746 804.915C795.576 804.979 795.338 805.043 795.032 805.107C794.727 805.178 794.34 805.213 793.871 805.213C793.161 805.213 792.465 805.06 791.783 804.755C791.108 804.45 790.547 803.984 790.1 803.359C789.66 802.734 789.439 801.946 789.439 800.994V784.716ZM665.956 841.341C664.592 841.341 663.388 840.996 662.344 840.308C661.3 839.612 660.483 838.631 659.894 837.367C659.304 836.096 659.01 834.594 659.01 832.861C659.01 831.142 659.304 829.651 659.894 828.386C660.483 827.122 661.304 826.146 662.355 825.457C663.406 824.768 664.62 824.423 665.998 824.423C667.064 824.423 667.905 824.601 668.523 824.956C669.148 825.304 669.624 825.702 669.951 826.149C670.285 826.589 670.544 826.952 670.728 827.236H670.941V819.182H673.456V841H671.027V838.486H670.728C670.544 838.784 670.281 839.161 669.94 839.615C669.599 840.062 669.113 840.464 668.481 840.819C667.848 841.167 667.007 841.341 665.956 841.341ZM666.297 839.082C667.305 839.082 668.157 838.82 668.853 838.294C669.549 837.761 670.079 837.026 670.441 836.089C670.803 835.144 670.984 834.054 670.984 832.818C670.984 831.597 670.807 830.528 670.451 829.612C670.096 828.688 669.571 827.971 668.875 827.46C668.179 826.941 667.319 826.682 666.297 826.682C665.231 826.682 664.343 826.955 663.633 827.502C662.93 828.042 662.401 828.777 662.046 829.707C661.698 830.631 661.524 831.668 661.524 832.818C661.524 833.983 661.701 835.041 662.057 835.993C662.419 836.937 662.951 837.69 663.655 838.251C664.365 838.805 665.245 839.082 666.297 839.082ZM685.27 841.341C683.694 841.341 682.334 840.993 681.19 840.297C680.054 839.594 679.177 838.614 678.559 837.357C677.948 836.092 677.642 834.622 677.642 832.946C677.642 831.27 677.948 829.793 678.559 828.514C679.177 827.229 680.036 826.227 681.137 825.51C682.245 824.786 683.537 824.423 685.015 824.423C685.867 824.423 686.709 824.565 687.54 824.849C688.37 825.134 689.127 825.595 689.809 826.234C690.491 826.866 691.034 827.705 691.439 828.749C691.843 829.793 692.046 831.078 692.046 832.605V833.67H679.432V831.497H689.489C689.489 830.574 689.304 829.75 688.935 829.026C688.573 828.301 688.054 827.729 687.38 827.31C686.712 826.891 685.924 826.682 685.015 826.682C684.013 826.682 683.147 826.93 682.415 827.428C681.691 827.918 681.133 828.557 680.743 829.345C680.352 830.134 680.157 830.979 680.157 831.881V833.33C680.157 834.565 680.37 835.613 680.796 836.472C681.229 837.325 681.829 837.974 682.596 838.422C683.363 838.862 684.255 839.082 685.27 839.082C685.931 839.082 686.527 838.99 687.06 838.805C687.6 838.614 688.065 838.33 688.456 837.953C688.846 837.57 689.148 837.094 689.361 836.526L691.79 837.207C691.535 838.031 691.105 838.756 690.501 839.381C689.897 839.999 689.152 840.482 688.264 840.83C687.376 841.17 686.378 841.341 685.27 841.341ZM703.157 824.636V826.767H694.336V824.636H703.157ZM696.978 841V822.378C696.978 821.44 697.199 820.659 697.639 820.034C698.079 819.409 698.651 818.94 699.354 818.628C700.057 818.315 700.799 818.159 701.581 818.159C702.199 818.159 702.703 818.209 703.093 818.308C703.484 818.408 703.775 818.5 703.967 818.585L703.243 820.759C703.115 820.716 702.937 820.663 702.71 820.599C702.49 820.535 702.199 820.503 701.836 820.503C701.005 820.503 700.405 820.712 700.036 821.131C699.674 821.55 699.493 822.165 699.493 822.974V841H696.978ZM712.868 841.341C711.291 841.341 709.931 840.993 708.788 840.297C707.651 839.594 706.774 838.614 706.156 837.357C705.546 836.092 705.24 834.622 705.24 832.946C705.24 831.27 705.546 829.793 706.156 828.514C706.774 827.229 707.634 826.227 708.734 825.51C709.842 824.786 711.135 824.423 712.612 824.423C713.465 824.423 714.306 824.565 715.137 824.849C715.968 825.134 716.725 825.595 717.406 826.234C718.088 826.866 718.631 827.705 719.036 828.749C719.441 829.793 719.644 831.078 719.644 832.605V833.67H707.03V831.497H717.087C717.087 830.574 716.902 829.75 716.533 829.026C716.171 828.301 715.652 827.729 714.977 827.31C714.31 826.891 713.521 826.682 712.612 826.682C711.611 826.682 710.744 826.93 710.013 827.428C709.288 827.918 708.731 828.557 708.34 829.345C707.95 830.134 707.754 830.979 707.754 831.881V833.33C707.754 834.565 707.967 835.613 708.394 836.472C708.827 837.325 709.427 837.974 710.194 838.422C710.961 838.862 711.852 839.082 712.868 839.082C713.528 839.082 714.125 838.99 714.658 838.805C715.198 838.614 715.663 838.33 716.053 837.953C716.444 837.57 716.746 837.094 716.959 836.526L719.388 837.207C719.132 838.031 718.703 838.756 718.099 839.381C717.495 839.999 716.749 840.482 715.862 840.83C714.974 841.17 713.976 841.341 712.868 841.341ZM725.982 831.156V841H723.468V824.636H725.897V827.193H726.11C726.494 826.362 727.076 825.695 727.857 825.19C728.639 824.679 729.647 824.423 730.883 824.423C731.991 824.423 732.96 824.651 733.791 825.105C734.622 825.553 735.269 826.234 735.73 827.151C736.192 828.06 736.423 829.21 736.423 830.602V841H733.908V830.773C733.908 829.487 733.575 828.486 732.907 827.768C732.239 827.044 731.323 826.682 730.158 826.682C729.356 826.682 728.639 826.856 728.006 827.204C727.381 827.552 726.888 828.06 726.526 828.727C726.163 829.395 725.982 830.205 725.982 831.156ZM752.608 828.301L750.349 828.94C750.207 828.564 749.998 828.198 749.721 827.843C749.451 827.481 749.082 827.183 748.613 826.948C748.144 826.714 747.544 826.597 746.812 826.597C745.811 826.597 744.976 826.827 744.309 827.289C743.648 827.744 743.318 828.322 743.318 829.026C743.318 829.651 743.545 830.144 744 830.506C744.454 830.869 745.165 831.17 746.131 831.412L748.56 832.009C750.023 832.364 751.113 832.907 751.83 833.638C752.547 834.363 752.906 835.297 752.906 836.44C752.906 837.378 752.636 838.216 752.097 838.955C751.564 839.693 750.818 840.276 749.859 840.702C748.9 841.128 747.785 841.341 746.514 841.341C744.845 841.341 743.464 840.979 742.37 840.254C741.276 839.53 740.584 838.472 740.293 837.08L742.679 836.483C742.906 837.364 743.336 838.024 743.968 838.464C744.607 838.905 745.442 839.125 746.472 839.125C747.643 839.125 748.574 838.876 749.263 838.379C749.959 837.875 750.307 837.271 750.307 836.568C750.307 836 750.108 835.524 749.71 835.141C749.312 834.75 748.702 834.459 747.878 834.267L745.15 833.628C743.652 833.273 742.551 832.722 741.848 831.977C741.152 831.224 740.804 830.283 740.804 829.153C740.804 828.23 741.063 827.413 741.582 826.703C742.107 825.993 742.821 825.435 743.723 825.031C744.632 824.626 745.662 824.423 746.812 824.423C748.432 824.423 749.703 824.778 750.626 825.489C751.557 826.199 752.217 827.136 752.608 828.301ZM763.552 841.341C761.975 841.341 760.615 840.993 759.471 840.297C758.335 839.594 757.458 838.614 756.84 837.357C756.229 836.092 755.924 834.622 755.924 832.946C755.924 831.27 756.229 829.793 756.84 828.514C757.458 827.229 758.317 826.227 759.418 825.51C760.526 824.786 761.819 824.423 763.296 824.423C764.148 824.423 764.99 824.565 765.821 824.849C766.652 825.134 767.408 825.595 768.09 826.234C768.772 826.866 769.315 827.705 769.72 828.749C770.125 829.793 770.327 831.078 770.327 832.605V833.67H757.714V831.497H767.77C767.77 830.574 767.586 829.75 767.216 829.026C766.854 828.301 766.336 827.729 765.661 827.31C764.993 826.891 764.205 826.682 763.296 826.682C762.294 826.682 761.428 826.93 760.696 827.428C759.972 827.918 759.415 828.557 759.024 829.345C758.633 830.134 758.438 830.979 758.438 831.881V833.33C758.438 834.565 758.651 835.613 759.077 836.472C759.51 837.325 760.111 837.974 760.878 838.422C761.645 838.862 762.536 839.082 763.552 839.082C764.212 839.082 764.809 838.99 765.341 838.805C765.881 838.614 766.346 838.33 766.737 837.953C767.128 837.57 767.429 837.094 767.642 836.526L770.071 837.207C769.816 838.031 769.386 838.756 768.782 839.381C768.179 839.999 767.433 840.482 766.545 840.83C765.657 841.17 764.66 841.341 763.552 841.341ZM785.743 828.301L783.484 828.94C783.342 828.564 783.133 828.198 782.856 827.843C782.586 827.481 782.216 827.183 781.748 826.948C781.279 826.714 780.679 826.597 779.947 826.597C778.946 826.597 778.111 826.827 777.444 827.289C776.783 827.744 776.453 828.322 776.453 829.026C776.453 829.651 776.68 830.144 777.135 830.506C777.589 830.869 778.299 831.17 779.265 831.412L781.694 832.009C783.157 832.364 784.248 832.907 784.965 833.638C785.682 834.363 786.041 835.297 786.041 836.44C786.041 837.378 785.771 838.216 785.231 838.955C784.699 839.693 783.953 840.276 782.994 840.702C782.035 841.128 780.92 841.341 779.649 841.341C777.98 841.341 776.598 840.979 775.505 840.254C774.411 839.53 773.718 838.472 773.427 837.08L775.814 836.483C776.041 837.364 776.471 838.024 777.103 838.464C777.742 838.905 778.576 839.125 779.606 839.125C780.778 839.125 781.709 838.876 782.397 838.379C783.093 837.875 783.441 837.271 783.441 836.568C783.441 836 783.243 835.524 782.845 835.141C782.447 834.75 781.836 834.459 781.013 834.267L778.285 833.628C776.787 833.273 775.686 832.722 774.983 831.977C774.287 831.224 773.939 830.283 773.939 829.153C773.939 828.23 774.198 827.413 774.716 826.703C775.242 825.993 775.956 825.435 776.858 825.031C777.767 824.626 778.797 824.423 779.947 824.423C781.566 824.423 782.838 824.778 783.761 825.489C784.691 826.199 785.352 827.136 785.743 828.301Z" fill="white"/>
<path d="M243.881 541V511.909H249.151V524.224H262.631V511.909H267.915V541H262.631V528.642H249.151V541H243.881ZM279.698 541.44C278.315 541.44 277.07 541.194 275.962 540.702C274.864 540.2 273.992 539.461 273.348 538.486C272.714 537.51 272.397 536.308 272.397 534.878C272.397 533.647 272.624 532.629 273.078 531.824C273.533 531.019 274.153 530.375 274.939 529.892C275.725 529.409 276.611 529.045 277.596 528.798C278.59 528.543 279.617 528.358 280.678 528.244C281.956 528.112 282.993 527.993 283.789 527.889C284.584 527.776 285.162 527.605 285.522 527.378C285.891 527.141 286.076 526.777 286.076 526.284V526.199C286.076 525.129 285.758 524.3 285.124 523.713C284.489 523.126 283.576 522.832 282.382 522.832C281.123 522.832 280.124 523.107 279.385 523.656C278.656 524.205 278.164 524.854 277.908 525.602L273.107 524.92C273.486 523.595 274.111 522.487 274.982 521.597C275.853 520.697 276.918 520.025 278.178 519.58C279.437 519.125 280.829 518.898 282.354 518.898C283.405 518.898 284.452 519.021 285.493 519.267C286.535 519.513 287.487 519.92 288.348 520.489C289.21 521.047 289.901 521.81 290.422 522.776C290.953 523.741 291.218 524.949 291.218 526.398V541H286.275V538.003H286.104C285.792 538.609 285.351 539.177 284.783 539.707C284.224 540.228 283.519 540.65 282.667 540.972C281.824 541.284 280.834 541.44 279.698 541.44ZM281.033 537.662C282.065 537.662 282.96 537.458 283.718 537.051C284.475 536.634 285.058 536.085 285.465 535.403C285.882 534.722 286.09 533.978 286.09 533.173V530.602C285.929 530.735 285.654 530.858 285.266 530.972C284.887 531.085 284.461 531.185 283.988 531.27C283.514 531.355 283.045 531.431 282.581 531.497C282.117 531.563 281.715 531.62 281.374 531.668C280.607 531.772 279.92 531.942 279.314 532.179C278.708 532.416 278.23 532.747 277.88 533.173C277.529 533.59 277.354 534.13 277.354 534.793C277.354 535.74 277.7 536.455 278.391 536.938C279.082 537.42 279.963 537.662 281.033 537.662ZM296.388 541V519.182H301.374V522.818H301.601C301.999 521.559 302.681 520.588 303.647 519.906C304.622 519.215 305.735 518.869 306.985 518.869C307.269 518.869 307.586 518.884 307.936 518.912C308.296 518.931 308.595 518.964 308.831 519.011V523.741C308.614 523.666 308.268 523.599 307.794 523.543C307.33 523.476 306.881 523.443 306.445 523.443C305.507 523.443 304.665 523.647 303.917 524.054C303.178 524.452 302.596 525.006 302.169 525.716C301.743 526.426 301.53 527.245 301.53 528.173V541H296.388ZM319.446 541.384C317.732 541.384 316.198 540.943 314.843 540.062C313.489 539.182 312.419 537.903 311.633 536.227C310.847 534.551 310.454 532.515 310.454 530.119C310.454 527.695 310.852 525.65 311.647 523.983C312.452 522.307 313.537 521.043 314.9 520.19C316.264 519.329 317.784 518.898 319.46 518.898C320.738 518.898 321.789 519.116 322.613 519.551C323.437 519.977 324.091 520.493 324.574 521.099C325.056 521.696 325.431 522.259 325.696 522.79H325.909V511.909H331.065V541H326.008V537.562H325.696C325.431 538.093 325.047 538.656 324.545 539.253C324.043 539.84 323.38 540.342 322.556 540.759C321.733 541.175 320.696 541.384 319.446 541.384ZM320.88 537.165C321.969 537.165 322.897 536.871 323.664 536.284C324.431 535.687 325.014 534.859 325.412 533.798C325.809 532.738 326.008 531.502 326.008 530.091C326.008 528.68 325.809 527.454 325.412 526.412C325.023 525.37 324.446 524.561 323.679 523.983C322.921 523.405 321.988 523.116 320.88 523.116C319.734 523.116 318.778 523.415 318.011 524.011C317.244 524.608 316.666 525.432 316.278 526.483C315.89 527.534 315.696 528.737 315.696 530.091C315.696 531.455 315.89 532.671 316.278 533.741C316.676 534.802 317.258 535.64 318.025 536.256C318.802 536.862 319.753 537.165 320.88 537.165ZM346.203 541.426C344.016 541.426 342.127 540.972 340.536 540.062C338.954 539.144 337.738 537.847 336.885 536.17C336.033 534.485 335.607 532.501 335.607 530.219C335.607 527.974 336.033 526.005 336.885 524.31C337.747 522.605 338.95 521.279 340.493 520.332C342.037 519.376 343.85 518.898 345.934 518.898C347.278 518.898 348.547 519.116 349.74 519.551C350.943 519.977 352.004 520.64 352.922 521.54C353.85 522.439 354.579 523.585 355.11 524.977C355.64 526.36 355.905 528.008 355.905 529.92V531.497H338.022V528.031H350.976C350.967 527.046 350.754 526.17 350.337 525.403C349.92 524.627 349.338 524.016 348.59 523.571C347.851 523.126 346.989 522.903 346.005 522.903C344.953 522.903 344.03 523.159 343.235 523.67C342.439 524.172 341.819 524.835 341.374 525.659C340.938 526.473 340.716 527.368 340.706 528.344V531.369C340.706 532.638 340.938 533.727 341.402 534.636C341.866 535.536 342.515 536.227 343.348 536.71C344.182 537.184 345.157 537.42 346.275 537.42C347.023 537.42 347.7 537.316 348.306 537.108C348.912 536.89 349.437 536.573 349.882 536.156C350.328 535.74 350.664 535.223 350.891 534.608L355.692 535.148C355.389 536.417 354.811 537.525 353.959 538.472C353.116 539.409 352.037 540.138 350.721 540.659C349.404 541.17 347.899 541.426 346.203 541.426ZM365.397 528.216V541H360.255V519.182H365.17V522.889H365.426C365.928 521.668 366.728 520.697 367.826 519.977C368.934 519.258 370.303 518.898 371.931 518.898C373.437 518.898 374.749 519.22 375.866 519.864C376.993 520.508 377.864 521.44 378.48 522.662C379.105 523.884 379.413 525.366 379.403 527.108V541H374.261V527.903C374.261 526.445 373.882 525.304 373.125 524.48C372.377 523.656 371.34 523.244 370.014 523.244C369.114 523.244 368.314 523.443 367.613 523.841C366.922 524.229 366.377 524.793 365.98 525.531C365.592 526.27 365.397 527.165 365.397 528.216Z" fill="white"/>
<path d="M560.043 743V684.818H581.862C586.331 684.818 590.081 685.652 593.112 687.318C596.161 688.985 598.462 691.277 600.015 694.193C601.587 697.091 602.373 700.386 602.373 704.08C602.373 707.811 601.587 711.125 600.015 714.023C598.443 716.92 596.123 719.203 593.055 720.869C589.987 722.517 586.208 723.341 581.719 723.341H567.259V714.676H580.299C582.913 714.676 585.053 714.222 586.719 713.312C588.386 712.403 589.617 711.153 590.413 709.562C591.227 707.972 591.634 706.144 591.634 704.08C591.634 702.015 591.227 700.197 590.413 698.625C589.617 697.053 588.377 695.831 586.691 694.96C585.024 694.07 582.875 693.625 580.242 693.625H570.583V743H560.043ZM621.357 684.818V743H611.073V684.818H621.357ZM644.489 743.881C641.724 743.881 639.234 743.388 637.018 742.403C634.821 741.4 633.078 739.922 631.79 737.972C630.522 736.021 629.887 733.616 629.887 730.756C629.887 728.294 630.342 726.258 631.251 724.648C632.16 723.038 633.4 721.75 634.972 720.784C636.544 719.818 638.315 719.089 640.285 718.597C642.273 718.085 644.328 717.716 646.45 717.489C649.006 717.223 651.08 716.987 652.671 716.778C654.262 716.551 655.417 716.21 656.137 715.756C656.876 715.282 657.245 714.553 657.245 713.568V713.398C657.245 711.258 656.611 709.6 655.342 708.426C654.073 707.252 652.245 706.665 649.859 706.665C647.34 706.665 645.342 707.214 643.864 708.312C642.406 709.411 641.421 710.708 640.91 712.205L631.308 710.841C632.065 708.189 633.315 705.973 635.058 704.193C636.8 702.394 638.931 701.049 641.45 700.159C643.969 699.25 646.753 698.795 649.802 698.795C651.904 698.795 653.997 699.042 656.08 699.534C658.164 700.027 660.067 700.841 661.79 701.977C663.514 703.095 664.897 704.619 665.938 706.551C666.999 708.483 667.529 710.898 667.529 713.795V743H657.643V737.006H657.302C656.677 738.218 655.796 739.354 654.66 740.415C653.542 741.456 652.131 742.299 650.427 742.943C648.741 743.568 646.762 743.881 644.489 743.881ZM647.16 736.324C649.224 736.324 651.014 735.917 652.529 735.102C654.044 734.269 655.209 733.17 656.023 731.807C656.857 730.443 657.273 728.956 657.273 727.347V722.205C656.951 722.47 656.402 722.716 655.626 722.943C654.868 723.17 654.016 723.369 653.069 723.54C652.122 723.71 651.184 723.862 650.256 723.994C649.328 724.127 648.523 724.241 647.842 724.335C646.308 724.544 644.934 724.884 643.722 725.358C642.51 725.831 641.554 726.494 640.853 727.347C640.152 728.18 639.802 729.259 639.802 730.585C639.802 732.479 640.493 733.909 641.876 734.875C643.258 735.841 645.02 736.324 647.16 736.324ZM688.154 717.432V743H677.87V699.364H687.7V706.778H688.211C689.215 704.335 690.815 702.394 693.012 700.955C695.228 699.515 697.965 698.795 701.222 698.795C704.234 698.795 706.857 699.439 709.092 700.727C711.345 702.015 713.088 703.881 714.319 706.324C715.569 708.767 716.184 711.731 716.165 715.216V743H705.881V716.807C705.881 713.89 705.124 711.608 703.609 709.96C702.112 708.312 700.039 707.489 697.387 707.489C695.588 707.489 693.987 707.886 692.586 708.682C691.203 709.458 690.114 710.585 689.319 712.062C688.542 713.54 688.154 715.33 688.154 717.432ZM736.904 717.432V743H726.62V699.364H736.45V706.778H736.961C737.965 704.335 739.565 702.394 741.762 700.955C743.978 699.515 746.715 698.795 749.972 698.795C752.984 698.795 755.607 699.439 757.842 700.727C760.095 702.015 761.838 703.881 763.069 706.324C764.319 708.767 764.934 711.731 764.915 715.216V743H754.631V716.807C754.631 713.89 753.874 711.608 752.359 709.96C750.862 708.312 748.789 707.489 746.137 707.489C744.338 707.489 742.737 707.886 741.336 708.682C739.953 709.458 738.864 710.585 738.069 712.062C737.292 713.54 736.904 715.33 736.904 717.432ZM775.37 743V699.364H785.654V743H775.37ZM780.54 693.17C778.912 693.17 777.51 692.631 776.336 691.551C775.162 690.453 774.575 689.136 774.575 687.602C774.575 686.049 775.162 684.733 776.336 683.653C777.51 682.555 778.912 682.006 780.54 682.006C782.188 682.006 783.59 682.555 784.745 683.653C785.919 684.733 786.506 686.049 786.506 687.602C786.506 689.136 785.919 690.453 784.745 691.551C783.59 692.631 782.188 693.17 780.54 693.17ZM806.513 717.432V743H796.229V699.364H806.059V706.778H806.57C807.574 704.335 809.174 702.394 811.371 700.955C813.587 699.515 816.324 698.795 819.582 698.795C822.593 698.795 825.216 699.439 827.451 700.727C829.705 702.015 831.447 703.881 832.678 706.324C833.928 708.767 834.544 711.731 834.525 715.216V743H824.241V716.807C824.241 713.89 823.483 711.608 821.968 709.96C820.472 708.312 818.398 707.489 815.746 707.489C813.947 707.489 812.347 707.886 810.945 708.682C809.563 709.458 808.474 710.585 807.678 712.062C806.902 713.54 806.513 715.33 806.513 717.432ZM863.957 760.273C860.263 760.273 857.091 759.771 854.44 758.767C851.788 757.782 849.657 756.456 848.048 754.79C846.438 753.123 845.32 751.277 844.695 749.25L853.957 747.006C854.373 747.858 854.979 748.701 855.775 749.534C856.57 750.386 857.64 751.087 858.985 751.636C860.349 752.205 862.063 752.489 864.127 752.489C867.044 752.489 869.459 751.778 871.371 750.358C873.284 748.956 874.241 746.646 874.241 743.426V735.159H873.729C873.199 736.22 872.423 737.309 871.4 738.426C870.396 739.544 869.061 740.481 867.394 741.239C865.746 741.996 863.673 742.375 861.173 742.375C857.82 742.375 854.781 741.589 852.053 740.017C849.345 738.426 847.186 736.059 845.576 732.915C843.985 729.752 843.19 725.794 843.19 721.04C843.19 716.248 843.985 712.205 845.576 708.909C847.186 705.595 849.354 703.085 852.082 701.381C854.809 699.657 857.849 698.795 861.201 698.795C863.758 698.795 865.86 699.231 867.508 700.102C869.174 700.955 870.5 701.987 871.485 703.199C872.47 704.392 873.218 705.519 873.729 706.58H874.298V699.364H884.44V743.71C884.44 747.441 883.549 750.528 881.769 752.972C879.989 755.415 877.555 757.242 874.468 758.455C871.381 759.667 867.877 760.273 863.957 760.273ZM864.042 734.307C866.22 734.307 868.076 733.777 869.61 732.716C871.144 731.655 872.309 730.131 873.104 728.142C873.9 726.153 874.298 723.767 874.298 720.983C874.298 718.237 873.9 715.831 873.104 713.767C872.328 711.703 871.173 710.102 869.638 708.966C868.123 707.811 866.258 707.233 864.042 707.233C861.75 707.233 859.837 707.83 858.303 709.023C856.769 710.216 855.614 711.854 854.837 713.938C854.061 716.002 853.673 718.35 853.673 720.983C853.673 723.653 854.061 725.992 854.837 728C855.633 729.989 856.798 731.542 858.332 732.659C859.885 733.758 861.788 734.307 864.042 734.307Z" fill="url(#paint11_linear_1434_348)"/>
<path d="M1083.09 539H1073.67V509.909H1083.39C1086.24 509.909 1088.69 510.491 1090.73 511.656C1092.78 512.812 1094.34 514.473 1095.43 516.642C1096.53 518.801 1097.08 521.391 1097.08 524.412C1097.08 527.442 1096.53 530.046 1095.42 532.224C1094.32 534.402 1092.73 536.079 1090.65 537.253C1088.56 538.418 1086.04 539 1083.09 539ZM1078.06 535.165H1082.85C1085.06 535.165 1086.91 534.748 1088.37 533.915C1089.84 533.072 1090.94 531.855 1091.67 530.264C1092.4 528.664 1092.76 526.713 1092.76 524.412C1092.76 522.13 1092.4 520.193 1091.67 518.602C1090.95 517.011 1089.88 515.804 1088.45 514.98C1087.02 514.156 1085.24 513.744 1083.12 513.744H1078.06V535.165ZM1111.6 539.44C1109.45 539.44 1107.6 538.981 1106.05 538.062C1104.5 537.134 1103.31 535.832 1102.47 534.156C1101.64 532.471 1101.22 530.496 1101.22 528.233C1101.22 525.998 1101.64 524.028 1102.47 522.324C1103.31 520.619 1104.49 519.289 1105.99 518.332C1107.51 517.376 1109.28 516.898 1111.3 516.898C1112.54 516.898 1113.73 517.101 1114.88 517.509C1116.04 517.916 1117.08 518.555 1117.99 519.426C1118.91 520.297 1119.64 521.429 1120.17 522.821C1120.7 524.204 1120.96 525.884 1120.96 527.864V529.369H1103.62V526.188H1116.8C1116.8 525.07 1116.57 524.08 1116.12 523.219C1115.66 522.348 1115.03 521.661 1114.2 521.159C1113.39 520.657 1112.43 520.406 1111.33 520.406C1110.14 520.406 1109.1 520.7 1108.21 521.287C1107.33 521.865 1106.64 522.622 1106.16 523.56C1105.69 524.488 1105.45 525.496 1105.45 526.585V529.071C1105.45 530.529 1105.71 531.77 1106.22 532.793C1106.74 533.815 1107.46 534.597 1108.39 535.136C1109.32 535.667 1110.4 535.932 1111.64 535.932C1112.45 535.932 1113.18 535.818 1113.85 535.591C1114.51 535.354 1115.08 535.004 1115.57 534.54C1116.05 534.076 1116.42 533.503 1116.67 532.821L1120.69 533.545C1120.37 534.729 1119.79 535.766 1118.96 536.656C1118.14 537.537 1117.1 538.223 1115.85 538.716C1114.61 539.199 1113.19 539.44 1111.6 539.44ZM1135.86 517.182V520.591H1123.94V517.182H1135.86ZM1127.14 511.955H1131.39V532.594C1131.39 533.418 1131.51 534.038 1131.75 534.455C1132 534.862 1132.32 535.141 1132.71 535.293C1133.1 535.435 1133.54 535.506 1134 535.506C1134.34 535.506 1134.64 535.482 1134.89 535.435C1135.15 535.387 1135.35 535.349 1135.49 535.321L1136.26 538.83C1136.01 538.924 1135.66 539.019 1135.21 539.114C1134.75 539.218 1134.18 539.275 1133.5 539.284C1132.38 539.303 1131.34 539.104 1130.38 538.688C1129.41 538.271 1128.63 537.627 1128.03 536.756C1127.44 535.884 1127.14 534.791 1127.14 533.474V511.955ZM1149.73 539.44C1147.58 539.44 1145.73 538.981 1144.17 538.062C1142.63 537.134 1141.44 535.832 1140.59 534.156C1139.76 532.471 1139.34 530.496 1139.34 528.233C1139.34 525.998 1139.76 524.028 1140.59 522.324C1141.44 520.619 1142.61 519.289 1144.12 518.332C1145.63 517.376 1147.4 516.898 1149.43 516.898C1150.66 516.898 1151.85 517.101 1153.01 517.509C1154.16 517.916 1155.2 518.555 1156.12 519.426C1157.04 520.297 1157.76 521.429 1158.29 522.821C1158.82 524.204 1159.09 525.884 1159.09 527.864V529.369H1141.74V526.188H1154.93C1154.93 525.07 1154.7 524.08 1154.24 523.219C1153.79 522.348 1153.15 521.661 1152.33 521.159C1151.51 520.657 1150.56 520.406 1149.46 520.406C1148.26 520.406 1147.22 520.7 1146.33 521.287C1145.45 521.865 1144.77 522.622 1144.29 523.56C1143.81 524.488 1143.58 525.496 1143.58 526.585V529.071C1143.58 530.529 1143.83 531.77 1144.34 532.793C1144.86 533.815 1145.59 534.597 1146.52 535.136C1147.45 535.667 1148.53 535.932 1149.77 535.932C1150.57 535.932 1151.31 535.818 1151.97 535.591C1152.63 535.354 1153.21 535.004 1153.69 534.54C1154.17 534.076 1154.54 533.503 1154.8 532.821L1158.82 533.545C1158.5 534.729 1157.92 535.766 1157.09 536.656C1156.26 537.537 1155.22 538.223 1153.97 538.716C1152.73 539.199 1151.32 539.44 1149.73 539.44ZM1172.99 539.44C1170.88 539.44 1169.06 538.962 1167.54 538.006C1166.02 537.04 1164.86 535.709 1164.04 534.014C1163.23 532.319 1162.82 530.378 1162.82 528.19C1162.82 525.974 1163.24 524.019 1164.07 522.324C1164.9 520.619 1166.08 519.289 1167.59 518.332C1169.11 517.376 1170.89 516.898 1172.95 516.898C1174.61 516.898 1176.08 517.205 1177.38 517.821C1178.68 518.427 1179.72 519.279 1180.52 520.378C1181.32 521.476 1181.8 522.759 1181.95 524.227H1177.82C1177.59 523.205 1177.07 522.324 1176.26 521.585C1175.45 520.847 1174.37 520.477 1173.02 520.477C1171.84 520.477 1170.8 520.79 1169.91 521.415C1169.03 522.03 1168.34 522.911 1167.85 524.057C1167.36 525.193 1167.11 526.538 1167.11 528.091C1167.11 529.682 1167.35 531.055 1167.83 532.21C1168.32 533.366 1169 534.26 1169.88 534.895C1170.77 535.529 1171.82 535.847 1173.02 535.847C1173.82 535.847 1174.55 535.7 1175.21 535.406C1175.87 535.103 1176.42 534.672 1176.87 534.114C1177.32 533.555 1177.64 532.883 1177.82 532.097H1181.95C1181.8 533.508 1181.34 534.767 1180.58 535.875C1179.81 536.983 1178.78 537.854 1177.49 538.489C1176.22 539.123 1174.71 539.44 1172.99 539.44ZM1196.68 517.182V520.591H1184.76V517.182H1196.68ZM1187.96 511.955H1192.21V532.594C1192.21 533.418 1192.33 534.038 1192.58 534.455C1192.82 534.862 1193.14 535.141 1193.53 535.293C1193.92 535.435 1194.36 535.506 1194.82 535.506C1195.16 535.506 1195.46 535.482 1195.71 535.435C1195.97 535.387 1196.17 535.349 1196.31 535.321L1197.08 538.83C1196.83 538.924 1196.48 539.019 1196.03 539.114C1195.57 539.218 1195 539.275 1194.32 539.284C1193.21 539.303 1192.16 539.104 1191.2 538.688C1190.23 538.271 1189.45 537.627 1188.85 536.756C1188.26 535.884 1187.96 534.791 1187.96 533.474V511.955Z" fill="white"/>
<g filter="url(#filter7_f_1434_348)">
<ellipse cx="740.5" cy="68" rx="363.5" ry="117" fill="black"/>
</g>
</g>
<defs>
<filter id="filter0_f_1434_348" x="287.8" y="-802.2" width="1738.4" height="1728.4" filterUnits="userSpaceOnUse" color-interpolation-filters="sRGB">
<feFlood flood-opacity="0" result="BackgroundImageFix"/>
<feBlend mode="normal" in="SourceGraphic" in2="BackgroundImageFix" result="shape"/>
<feGaussianBlur stdDeviation="324.1" result="effect1_foregroundBlur_1434_348"/>
</filter>
<filter id="filter1_f_1434_348" x="-684.2" y="-339.2" width="1561.4" height="1551.4" filterUnits="userSpaceOnUse" color-interpolation-filters="sRGB">
<feFlood flood-opacity="0" result="BackgroundImageFix"/>
<feBlend mode="normal" in="SourceGraphic" in2="BackgroundImageFix" result="shape"/>
<feGaussianBlur stdDeviation="324.1" result="effect1_foregroundBlur_1434_348"/>
</filter>
<filter id="filter2_f_1434_348" x="-944.2" y="-758.2" width="1743.4" height="1658.4" filterUnits="userSpaceOnUse" color-interpolation-filters="sRGB">
<feFlood flood-opacity="0" result="BackgroundImageFix"/>
<feBlend mode="normal" in="SourceGraphic" in2="BackgroundImageFix" result="shape"/>
<feGaussianBlur stdDeviation="324.1" result="effect1_foregroundBlur_1434_348"/>
</filter>
<filter id="filter3_f_1434_348" x="-129" y="85" width="887" height="588" filterUnits="userSpaceOnUse" color-interpolation-filters="sRGB">
<feFlood flood-opacity="0" result="BackgroundImageFix"/>
<feBlend mode="normal" in="SourceGraphic" in2="BackgroundImageFix" result="shape"/>
<feGaussianBlur stdDeviation="108.5" result="effect1_foregroundBlur_1434_348"/>
</filter>
<filter id="filter4_f_1434_348" x="733" y="100" width="887" height="588" filterUnits="userSpaceOnUse" color-interpolation-filters="sRGB">
<feFlood flood-opacity="0" result="BackgroundImageFix"/>
<feBlend mode="normal" in="SourceGraphic" in2="BackgroundImageFix" result="shape"/>
<feGaussianBlur stdDeviation="108.5" result="effect1_foregroundBlur_1434_348"/>
</filter>
<filter id="filter5_f_1434_348" x="742" y="158" width="725" height="491" filterUnits="userSpaceOnUse" color-interpolation-filters="sRGB">
<feFlood flood-opacity="0" result="BackgroundImageFix"/>
<feBlend mode="normal" in="SourceGraphic" in2="BackgroundImageFix" result="shape"/>
<feGaussianBlur stdDeviation="108.5" result="effect1_foregroundBlur_1434_348"/>
</filter>
<filter id="filter6_f_1434_348" x="-93" y="109" width="1597" height="1305" filterUnits="userSpaceOnUse" color-interpolation-filters="sRGB">
<feFlood flood-opacity="0" result="BackgroundImageFix"/>
<feBlend mode="normal" in="SourceGraphic" in2="BackgroundImageFix" result="shape"/>
<feGaussianBlur stdDeviation="224.5" result="effect1_foregroundBlur_1434_348"/>
</filter>
<filter id="filter7_f_1434_348" x="263" y="-163" width="955" height="462" filterUnits="userSpaceOnUse" color-interpolation-filters="sRGB">
<feFlood flood-opacity="0" result="BackgroundImageFix"/>
<feBlend mode="normal" in="SourceGraphic" in2="BackgroundImageFix" result="shape"/>
<feGaussianBlur stdDeviation="57" result="effect1_foregroundBlur_1434_348"/>
</filter>
<linearGradient id="paint0_linear_1434_348" x1="136" y1="401" x2="1334" y2="401" gradientUnits="userSpaceOnUse">
<stop stop-color="#002BFF"/>
<stop offset="1" stop-color="#00BFFF"/>
</linearGradient>
<linearGradient id="paint1_linear_1434_348" x1="211.197" y1="436.984" x2="418.047" y2="508.999" gradientUnits="userSpaceOnUse">
<stop offset="1" stop-color="#999999"/>
</linearGradient>
<linearGradient id="paint2_linear_1434_348" x1="1030.82" y1="436.984" x2="1237.67" y2="508.999" gradientUnits="userSpaceOnUse">
<stop offset="1" stop-color="#999999"/>
</linearGradient>
<linearGradient id="paint3_linear_1434_348" x1="1346.23" y1="544.368" x2="1346.23" y2="699.373" gradientUnits="userSpaceOnUse">
<stop offset="1" stop-color="#999999"/>
</linearGradient>
<linearGradient id="paint4_linear_1434_348" x1="101.771" y1="544.368" x2="101.771" y2="699.373" gradientUnits="userSpaceOnUse">
<stop offset="1" stop-color="#999999"/>
</linearGradient>
<linearGradient id="paint5_linear_1434_348" x1="1346.23" y1="380.024" x2="1346.23" y2="532.229" gradientUnits="userSpaceOnUse">
<stop stop-color="#080C27"/>
<stop offset="0.5" stop-color="#327C92"/>
<stop offset="1" stop-color="#7B8ECE"/>
</linearGradient>
<linearGradient id="paint6_linear_1434_348" x1="101.771" y1="380.024" x2="101.771" y2="532.229" gradientUnits="userSpaceOnUse">
<stop stop-color="#080C27"/>
<stop offset="0.5" stop-color="#327C92"/>
<stop offset="1" stop-color="#7B8ECE"/>
</linearGradient>
<linearGradient id="paint7_linear_1434_348" x1="299.167" y1="568.646" x2="310.555" y2="798.533" gradientUnits="userSpaceOnUse">
<stop stop-opacity="0"/>
<stop offset="0.25" stop-color="#1C5BA4"/>
<stop offset="0.5" stop-color="#2E85C0"/>
<stop offset="0.75" stop-color="#1E4978"/>
<stop offset="1" stop-color="#71A1EA"/>
</linearGradient>
<linearGradient id="paint8_linear_1434_348" x1="1118.79" y1="572.381" x2="1130.18" y2="802.268" gradientUnits="userSpaceOnUse">
<stop stop-opacity="0"/>
<stop offset="0.25" stop-color="#1C5BA4"/>
<stop offset="0.5" stop-color="#2E85C0"/>
<stop offset="0.75" stop-color="#1E4978"/>
<stop offset="1" stop-color="#71A1EA"/>
</linearGradient>
<linearGradient id="paint9_linear_1434_348" x1="724" y1="79" x2="724" y2="1011" gradientUnits="userSpaceOnUse">
<stop offset="1" stop-color="#666666"/>
</linearGradient>
<linearGradient id="paint10_linear_1434_348" x1="721.855" y1="51.3379" x2="712.439" y2="453.632" gradientUnits="userSpaceOnUse">
<stop stop-color="#02257E"/>
<stop offset="0.25" stop-color="#022294"/>
<stop offset="0.5" stop-color="#021FAA"/>
<stop offset="0.75" stop-color="#3859C9"/>
<stop offset="1" stop-color="#9DCFF8"/>
</linearGradient>
<linearGradient id="paint11_linear_1434_348" x1="554" y1="714" x2="890" y2="714" gradientUnits="userSpaceOnUse">
<stop stop-color="white"/>
<stop offset="1" stop-color="#999999"/>
</linearGradient>
<clipPath id="clip0_1434_348">
<rect width="1442" height="1026" fill="white"/>
</clipPath>
</defs>
</svg>
