<svg width="48" height="48" viewBox="0 0 48 48" fill="none" xmlns="http://www.w3.org/2000/svg">
<g clip-path="url(#clip0_1498_605)">
<path d="M46.5 2H1.5V47H46.5V2Z" stroke="#0099FF" stroke-opacity="0.5"/>
<path d="M46.5 2H1.5V9H46.5V2Z" stroke="#0099FF" stroke-opacity="0.5"/>
<path fill-rule="evenodd" clip-rule="evenodd" d="M22.9297 32C21.5465 34.3912 18.9611 36 16 36C11.5817 36 8 32.4183 8 28C8 23.5817 11.5817 20 16 20C18.9611 20 21.5465 21.6088 22.9297 24H38L41.5 28L38 32H36L34 29L32 32H30L28 29L26 32H24H22.9297ZM18 28C18 26.8954 17.1046 26 16 26C14.8954 26 14 26.8954 14 28C14 29.1046 14.8954 30 16 30C17.1046 30 18 29.1046 18 28Z" fill="url(#paint0_linear_1498_605)"/>
</g>
<defs>
<linearGradient id="paint0_linear_1498_605" x1="34" y1="7.5" x2="4" y2="43" gradientUnits="userSpaceOnUse">
<stop stop-color="#0099FF"/>
<stop offset="1" stop-color="#D9D9D9" stop-opacity="0"/>
</linearGradient>
<clipPath id="clip0_1498_605">
<rect width="48" height="48" fill="white"/>
</clipPath>
</defs>
</svg>
