<svg width="48" height="48" viewBox="0 0 48 48" fill="none" xmlns="http://www.w3.org/2000/svg">
<g clip-path="url(#clip0_1498_589)">
<g clip-path="url(#clip1_1498_589)">
<mask id="mask0_1498_589" style="mask-type:luminance" maskUnits="userSpaceOnUse" x="0" y="0" width="48" height="48">
<path d="M47.4665 0H0.533203V48H47.4665V0Z" fill="white"/>
</mask>
<g mask="url(#mask0_1498_589)">
<path d="M8.07085 31.2755V24.7372C8.07085 20.1355 5.3722 18.4883 1.24414 18.4883V24.7372V34.2815C1.24416 36.4412 2.03543 38.5368 3.48785 40.2234L8.07085 45.544V46.9325" stroke="#0099FF" stroke-width="1.06667" stroke-linecap="square" stroke-linejoin="round"/>
<path d="M11.4851 37.6176L8.41297 32.8614C8.06278 32.2158 7.97913 31.4734 8.17785 30.7742C8.37657 30.0752 8.84388 29.4679 9.49159 29.067C9.85035 28.845 10.254 28.6928 10.6778 28.6198C11.1017 28.5469 11.5373 28.5546 11.9577 28.6425C12.3784 28.7304 12.7754 28.8968 13.1249 29.1315C13.4741 29.3662 13.7687 29.6643 13.9904 30.0078L16.5891 33.6308C17.7132 35.1954 18.3126 37.0344 18.3117 38.9155V45.257V46.9332" stroke="#0099FF" stroke-width="1.06667" stroke-linecap="square" stroke-linejoin="round"/>
<path d="M39.9287 31.2755V24.7372C39.9287 20.1355 42.6274 18.4883 46.7555 18.4883V24.7372V34.2815C46.7555 36.4412 45.9642 38.5368 44.5119 40.2234L39.9287 45.544V46.9325" stroke="#0099FF" stroke-width="1.06667" stroke-linecap="square" stroke-linejoin="round"/>
<path d="M36.5141 37.6176L39.5862 32.8614C39.9364 32.2158 40.02 31.4734 39.8213 30.7742C39.6226 30.0752 39.1552 29.4679 38.5074 29.067C38.1487 28.845 37.7451 28.6928 37.3213 28.6198C36.8973 28.5469 36.4619 28.5546 36.0413 28.6425C35.6206 28.7304 35.2237 28.8968 34.8743 29.1315C34.5249 29.3662 34.2304 29.6643 34.0087 30.0078L31.4101 33.6308C30.2859 35.1954 29.6864 37.0344 29.6875 38.9155V45.257V46.9332" stroke="#0099FF" stroke-width="1.06667" stroke-linecap="square" stroke-linejoin="round"/>
<path d="M37.1989 2.43728C36.4242 1.66519 35.5044 1.05275 34.4921 0.634905C33.4799 0.217058 32.3949 0.00199109 31.2993 0.00199109C30.2036 0.00199109 29.1187 0.217058 28.1064 0.634905C27.0941 1.05275 26.1745 1.66519 25.3996 2.43728C24.8156 3.01927 24.3754 3.68023 24.0002 4.36822C23.6298 3.65931 23.1576 3.0081 22.5985 2.4352C21.0339 0.875969 18.9116 0 16.6988 0C14.4861 0 12.3639 0.875969 10.7991 2.4352C9.2345 3.99444 8.35547 6.10922 8.35547 8.3143C8.35547 10.5194 9.2345 12.6342 10.7991 14.1934L24.0002 27.0221L37.1989 14.1934C37.9741 13.4219 38.5891 12.5055 39.0086 11.4969C39.4282 10.4883 39.6442 9.40723 39.6442 8.31534C39.6442 7.22351 39.4282 6.14237 39.0086 5.13376C38.5891 4.12516 37.9741 3.20886 37.1989 2.43728Z" fill="url(#paint0_radial_1498_589)"/>
</g>
</g>
</g>
<defs>
<radialGradient id="paint0_radial_1498_589" cx="0" cy="0" r="1" gradientUnits="userSpaceOnUse" gradientTransform="translate(23.9997 39.4667) rotate(-90) scale(42.1333 117.622)">
<stop offset="0.2" stop-color="#0099FF"/>
<stop offset="1" stop-color="#C8C8C8"/>
</radialGradient>
<clipPath id="clip0_1498_589">
<rect width="48" height="48" fill="white"/>
</clipPath>
<clipPath id="clip1_1498_589">
<rect width="46.9333" height="48" fill="white" transform="translate(0.533203)"/>
</clipPath>
</defs>
</svg>
