<svg width="399" height="50" viewBox="0 0 399 50" fill="none" xmlns="http://www.w3.org/2000/svg">
<path d="M2.75 50C3.99264 50 5 49.1046 5 48C5 46.8954 3.99264 46 2.75 46C1.50736 46 0.5 46.8954 0.5 48C0.5 49.1046 1.50736 50 2.75 50Z" fill="#3E5FBC"/>
<path d="M2.75 27C3.99264 27 5 26.1046 5 25C5 23.8954 3.99264 23 2.75 23C1.50736 23 0.5 23.8954 0.5 25C0.5 26.1046 1.50736 27 2.75 27Z" fill="#3E5FBC"/>
<path d="M2.75 4C3.99264 4 5 3.10457 5 2C5 0.89543 3.99264 0 2.75 0C1.50736 0 0.5 0.89543 0.5 2C0.5 3.10457 1.50736 4 2.75 4Z" fill="#3E5FBC"/>
<path d="M30.875 50C32.1176 50 33.125 49.1046 33.125 48C33.125 46.8954 32.1176 46 30.875 46C29.6324 46 28.625 46.8954 28.625 48C28.625 49.1046 29.6324 50 30.875 50Z" fill="#3E5FBC"/>
<path d="M30.875 27C32.1176 27 33.125 26.1046 33.125 25C33.125 23.8954 32.1176 23 30.875 23C29.6324 23 28.625 23.8954 28.625 25C28.625 26.1046 29.6324 27 30.875 27Z" fill="#3E5FBC"/>
<path d="M30.875 4C32.1176 4 33.125 3.10457 33.125 2C33.125 0.89543 32.1176 0 30.875 0C29.6324 0 28.625 0.89543 28.625 2C28.625 3.10457 29.6324 4 30.875 4Z" fill="#3E5FBC"/>
<path d="M59 50C60.2426 50 61.25 49.1046 61.25 48C61.25 46.8954 60.2426 46 59 46C57.7574 46 56.75 46.8954 56.75 48C56.75 49.1046 57.7574 50 59 50Z" fill="#3E5FBC"/>
<path d="M59 27C60.2426 27 61.25 26.1046 61.25 25C61.25 23.8954 60.2426 23 59 23C57.7574 23 56.75 23.8954 56.75 25C56.75 26.1046 57.7574 27 59 27Z" fill="#3E5FBC"/>
<path d="M59 4C60.2426 4 61.25 3.10457 61.25 2C61.25 0.89543 60.2426 0 59 0C57.7574 0 56.75 0.89543 56.75 2C56.75 3.10457 57.7574 4 59 4Z" fill="#3E5FBC"/>
<path d="M87.125 50C88.3676 50 89.375 49.1046 89.375 48C89.375 46.8954 88.3676 46 87.125 46C85.8824 46 84.875 46.8954 84.875 48C84.875 49.1046 85.8824 50 87.125 50Z" fill="#3E5FBC"/>
<path d="M87.125 27C88.3676 27 89.375 26.1046 89.375 25C89.375 23.8954 88.3676 23 87.125 23C85.8824 23 84.875 23.8954 84.875 25C84.875 26.1046 85.8824 27 87.125 27Z" fill="#3E5FBC"/>
<path d="M87.125 4C88.3676 4 89.375 3.10457 89.375 2C89.375 0.89543 88.3676 0 87.125 0C85.8824 0 84.875 0.89543 84.875 2C84.875 3.10457 85.8824 4 87.125 4Z" fill="#3E5FBC"/>
<path d="M115.25 50C116.493 50 117.5 49.1046 117.5 48C117.5 46.8954 116.493 46 115.25 46C114.007 46 113 46.8954 113 48C113 49.1046 114.007 50 115.25 50Z" fill="#3E5FBC"/>
<path d="M115.25 27C116.493 27 117.5 26.1046 117.5 25C117.5 23.8954 116.493 23 115.25 23C114.007 23 113 23.8954 113 25C113 26.1046 114.007 27 115.25 27Z" fill="#3E5FBC"/>
<path d="M115.25 4C116.493 4 117.5 3.10457 117.5 2C117.5 0.89543 116.493 0 115.25 0C114.007 0 113 0.89543 113 2C113 3.10457 114.007 4 115.25 4Z" fill="#3E5FBC"/>
<path d="M143.375 50C144.618 50 145.625 49.1046 145.625 48C145.625 46.8954 144.618 46 143.375 46C142.132 46 141.125 46.8954 141.125 48C141.125 49.1046 142.132 50 143.375 50Z" fill="#3E5FBC"/>
<path d="M143.375 27C144.618 27 145.625 26.1046 145.625 25C145.625 23.8954 144.618 23 143.375 23C142.132 23 141.125 23.8954 141.125 25C141.125 26.1046 142.132 27 143.375 27Z" fill="#3E5FBC"/>
<path d="M143.375 4C144.618 4 145.625 3.10457 145.625 2C145.625 0.89543 144.618 0 143.375 0C142.132 0 141.125 0.89543 141.125 2C141.125 3.10457 142.132 4 143.375 4Z" fill="#3E5FBC"/>
<path d="M171.5 50C172.743 50 173.75 49.1046 173.75 48C173.75 46.8954 172.743 46 171.5 46C170.257 46 169.25 46.8954 169.25 48C169.25 49.1046 170.257 50 171.5 50Z" fill="#3E5FBC"/>
<path d="M171.5 27C172.743 27 173.75 26.1046 173.75 25C173.75 23.8954 172.743 23 171.5 23C170.257 23 169.25 23.8954 169.25 25C169.25 26.1046 170.257 27 171.5 27Z" fill="#3E5FBC"/>
<path d="M171.5 4C172.743 4 173.75 3.10457 173.75 2C173.75 0.89543 172.743 0 171.5 0C170.257 0 169.25 0.89543 169.25 2C169.25 3.10457 170.257 4 171.5 4Z" fill="#3E5FBC"/>
<path d="M199.625 50C200.868 50 201.875 49.1046 201.875 48C201.875 46.8954 200.868 46 199.625 46C198.382 46 197.375 46.8954 197.375 48C197.375 49.1046 198.382 50 199.625 50Z" fill="#3E5FBC"/>
<path d="M199.625 27C200.868 27 201.875 26.1046 201.875 25C201.875 23.8954 200.868 23 199.625 23C198.382 23 197.375 23.8954 197.375 25C197.375 26.1046 198.382 27 199.625 27Z" fill="#3E5FBC"/>
<path d="M199.625 4C200.868 4 201.875 3.10457 201.875 2C201.875 0.89543 200.868 0 199.625 0C198.382 0 197.375 0.89543 197.375 2C197.375 3.10457 198.382 4 199.625 4Z" fill="#3E5FBC"/>
<path d="M227.75 50C228.993 50 230 49.1046 230 48C230 46.8954 228.993 46 227.75 46C226.507 46 225.5 46.8954 225.5 48C225.5 49.1046 226.507 50 227.75 50Z" fill="#3E5FBC"/>
<path d="M227.75 27C228.993 27 230 26.1046 230 25C230 23.8954 228.993 23 227.75 23C226.507 23 225.5 23.8954 225.5 25C225.5 26.1046 226.507 27 227.75 27Z" fill="#3E5FBC"/>
<path d="M227.75 4C228.993 4 230 3.10457 230 2C230 0.89543 228.993 0 227.75 0C226.507 0 225.5 0.89543 225.5 2C225.5 3.10457 226.507 4 227.75 4Z" fill="#3E5FBC"/>
<path d="M255.875 50C257.118 50 258.125 49.1046 258.125 48C258.125 46.8954 257.118 46 255.875 46C254.632 46 253.625 46.8954 253.625 48C253.625 49.1046 254.632 50 255.875 50Z" fill="#3E5FBC"/>
<path d="M255.875 27C257.118 27 258.125 26.1046 258.125 25C258.125 23.8954 257.118 23 255.875 23C254.632 23 253.625 23.8954 253.625 25C253.625 26.1046 254.632 27 255.875 27Z" fill="#3E5FBC"/>
<path d="M255.875 4C257.118 4 258.125 3.10457 258.125 2C258.125 0.89543 257.118 0 255.875 0C254.632 0 253.625 0.89543 253.625 2C253.625 3.10457 254.632 4 255.875 4Z" fill="#3E5FBC"/>
<path d="M284 50C285.243 50 286.25 49.1046 286.25 48C286.25 46.8954 285.243 46 284 46C282.757 46 281.75 46.8954 281.75 48C281.75 49.1046 282.757 50 284 50Z" fill="#3E5FBC"/>
<path d="M284 27C285.243 27 286.25 26.1046 286.25 25C286.25 23.8954 285.243 23 284 23C282.757 23 281.75 23.8954 281.75 25C281.75 26.1046 282.757 27 284 27Z" fill="#3E5FBC"/>
<path d="M284 4C285.243 4 286.25 3.10457 286.25 2C286.25 0.89543 285.243 0 284 0C282.757 0 281.75 0.89543 281.75 2C281.75 3.10457 282.757 4 284 4Z" fill="#3E5FBC"/>
<path d="M312.125 50C313.368 50 314.375 49.1046 314.375 48C314.375 46.8954 313.368 46 312.125 46C310.882 46 309.875 46.8954 309.875 48C309.875 49.1046 310.882 50 312.125 50Z" fill="#3E5FBC"/>
<path d="M312.125 27C313.368 27 314.375 26.1046 314.375 25C314.375 23.8954 313.368 23 312.125 23C310.882 23 309.875 23.8954 309.875 25C309.875 26.1046 310.882 27 312.125 27Z" fill="#3E5FBC"/>
<path d="M312.125 4C313.368 4 314.375 3.10457 314.375 2C314.375 0.89543 313.368 0 312.125 0C310.882 0 309.875 0.89543 309.875 2C309.875 3.10457 310.882 4 312.125 4Z" fill="#3E5FBC"/>
<path d="M340.25 50C341.493 50 342.5 49.1046 342.5 48C342.5 46.8954 341.493 46 340.25 46C339.007 46 338 46.8954 338 48C338 49.1046 339.007 50 340.25 50Z" fill="#3E5FBC"/>
<path d="M340.25 27C341.493 27 342.5 26.1046 342.5 25C342.5 23.8954 341.493 23 340.25 23C339.007 23 338 23.8954 338 25C338 26.1046 339.007 27 340.25 27Z" fill="#3E5FBC"/>
<path d="M340.25 4C341.493 4 342.5 3.10457 342.5 2C342.5 0.89543 341.493 0 340.25 0C339.007 0 338 0.89543 338 2C338 3.10457 339.007 4 340.25 4Z" fill="#3E5FBC"/>
<path d="M368.375 50C369.618 50 370.625 49.1046 370.625 48C370.625 46.8954 369.618 46 368.375 46C367.132 46 366.125 46.8954 366.125 48C366.125 49.1046 367.132 50 368.375 50Z" fill="#3E5FBC"/>
<path d="M368.375 27C369.618 27 370.625 26.1046 370.625 25C370.625 23.8954 369.618 23 368.375 23C367.132 23 366.125 23.8954 366.125 25C366.125 26.1046 367.132 27 368.375 27Z" fill="#3E5FBC"/>
<path d="M368.375 4C369.618 4 370.625 3.10457 370.625 2C370.625 0.89543 369.618 0 368.375 0C367.132 0 366.125 0.89543 366.125 2C366.125 3.10457 367.132 4 368.375 4Z" fill="#3E5FBC"/>
<path d="M396.5 50C397.743 50 398.75 49.1046 398.75 48C398.75 46.8954 397.743 46 396.5 46C395.257 46 394.25 46.8954 394.25 48C394.25 49.1046 395.257 50 396.5 50Z" fill="#3E5FBC"/>
<path d="M396.5 27C397.743 27 398.75 26.1046 398.75 25C398.75 23.8954 397.743 23 396.5 23C395.257 23 394.25 23.8954 394.25 25C394.25 26.1046 395.257 27 396.5 27Z" fill="#3E5FBC"/>
<path d="M396.5 4C397.743 4 398.75 3.10457 398.75 2C398.75 0.89543 397.743 0 396.5 0C395.257 0 394.25 0.89543 394.25 2C394.25 3.10457 395.257 4 396.5 4Z" fill="#3E5FBC"/>
</svg>
