<svg width="399" height="50" viewBox="0 0 399 50" fill="none" xmlns="http://www.w3.org/2000/svg">
<path d="M2.8396 50C4.08224 50 5.0896 49.1046 5.0896 48C5.0896 46.8954 4.08224 46 2.8396 46C1.59696 46 0.5896 46.8954 0.5896 48C0.5896 49.1046 1.59696 50 2.8396 50Z" fill="#3E5FBC"/>
<path d="M2.8396 27C4.08224 27 5.0896 26.1046 5.0896 25C5.0896 23.8954 4.08224 23 2.8396 23C1.59696 23 0.5896 23.8954 0.5896 25C0.5896 26.1046 1.59696 27 2.8396 27Z" fill="#3E5FBC"/>
<path d="M2.8396 4C4.08224 4 5.0896 3.10457 5.0896 2C5.0896 0.89543 4.08224 0 2.8396 0C1.59696 0 0.5896 0.89543 0.5896 2C0.5896 3.10457 1.59696 4 2.8396 4Z" fill="#3E5FBC"/>
<path d="M30.9646 50C32.2072 50 33.2146 49.1046 33.2146 48C33.2146 46.8954 32.2072 46 30.9646 46C29.722 46 28.7146 46.8954 28.7146 48C28.7146 49.1046 29.722 50 30.9646 50Z" fill="#3E5FBC"/>
<path d="M30.9646 27C32.2072 27 33.2146 26.1046 33.2146 25C33.2146 23.8954 32.2072 23 30.9646 23C29.722 23 28.7146 23.8954 28.7146 25C28.7146 26.1046 29.722 27 30.9646 27Z" fill="#3E5FBC"/>
<path d="M30.9646 4C32.2072 4 33.2146 3.10457 33.2146 2C33.2146 0.89543 32.2072 0 30.9646 0C29.722 0 28.7146 0.89543 28.7146 2C28.7146 3.10457 29.722 4 30.9646 4Z" fill="#3E5FBC"/>
<path d="M59.0896 50C60.3322 50 61.3396 49.1046 61.3396 48C61.3396 46.8954 60.3322 46 59.0896 46C57.847 46 56.8396 46.8954 56.8396 48C56.8396 49.1046 57.847 50 59.0896 50Z" fill="#3E5FBC"/>
<path d="M59.0896 27C60.3322 27 61.3396 26.1046 61.3396 25C61.3396 23.8954 60.3322 23 59.0896 23C57.847 23 56.8396 23.8954 56.8396 25C56.8396 26.1046 57.847 27 59.0896 27Z" fill="#3E5FBC"/>
<path d="M59.0896 4C60.3322 4 61.3396 3.10457 61.3396 2C61.3396 0.89543 60.3322 0 59.0896 0C57.847 0 56.8396 0.89543 56.8396 2C56.8396 3.10457 57.847 4 59.0896 4Z" fill="#3E5FBC"/>
<path d="M87.2146 50C88.4572 50 89.4646 49.1046 89.4646 48C89.4646 46.8954 88.4572 46 87.2146 46C85.972 46 84.9646 46.8954 84.9646 48C84.9646 49.1046 85.972 50 87.2146 50Z" fill="#3E5FBC"/>
<path d="M87.2146 27C88.4572 27 89.4646 26.1046 89.4646 25C89.4646 23.8954 88.4572 23 87.2146 23C85.972 23 84.9646 23.8954 84.9646 25C84.9646 26.1046 85.972 27 87.2146 27Z" fill="#3E5FBC"/>
<path d="M87.2146 4C88.4572 4 89.4646 3.10457 89.4646 2C89.4646 0.89543 88.4572 0 87.2146 0C85.972 0 84.9646 0.89543 84.9646 2C84.9646 3.10457 85.972 4 87.2146 4Z" fill="#3E5FBC"/>
<path d="M115.34 50C116.582 50 117.59 49.1046 117.59 48C117.59 46.8954 116.582 46 115.34 46C114.097 46 113.09 46.8954 113.09 48C113.09 49.1046 114.097 50 115.34 50Z" fill="#3E5FBC"/>
<path d="M115.34 27C116.582 27 117.59 26.1046 117.59 25C117.59 23.8954 116.582 23 115.34 23C114.097 23 113.09 23.8954 113.09 25C113.09 26.1046 114.097 27 115.34 27Z" fill="#3E5FBC"/>
<path d="M115.34 4C116.582 4 117.59 3.10457 117.59 2C117.59 0.89543 116.582 0 115.34 0C114.097 0 113.09 0.89543 113.09 2C113.09 3.10457 114.097 4 115.34 4Z" fill="#3E5FBC"/>
<path d="M143.465 50C144.707 50 145.715 49.1046 145.715 48C145.715 46.8954 144.707 46 143.465 46C142.222 46 141.215 46.8954 141.215 48C141.215 49.1046 142.222 50 143.465 50Z" fill="#3E5FBC"/>
<path d="M143.465 27C144.707 27 145.715 26.1046 145.715 25C145.715 23.8954 144.707 23 143.465 23C142.222 23 141.215 23.8954 141.215 25C141.215 26.1046 142.222 27 143.465 27Z" fill="#3E5FBC"/>
<path d="M143.465 4C144.707 4 145.715 3.10457 145.715 2C145.715 0.89543 144.707 0 143.465 0C142.222 0 141.215 0.89543 141.215 2C141.215 3.10457 142.222 4 143.465 4Z" fill="#3E5FBC"/>
<path d="M171.59 50C172.832 50 173.84 49.1046 173.84 48C173.84 46.8954 172.832 46 171.59 46C170.347 46 169.34 46.8954 169.34 48C169.34 49.1046 170.347 50 171.59 50Z" fill="#3E5FBC"/>
<path d="M171.59 27C172.832 27 173.84 26.1046 173.84 25C173.84 23.8954 172.832 23 171.59 23C170.347 23 169.34 23.8954 169.34 25C169.34 26.1046 170.347 27 171.59 27Z" fill="#3E5FBC"/>
<path d="M171.59 4C172.832 4 173.84 3.10457 173.84 2C173.84 0.89543 172.832 0 171.59 0C170.347 0 169.34 0.89543 169.34 2C169.34 3.10457 170.347 4 171.59 4Z" fill="#3E5FBC"/>
<path d="M199.715 50C200.957 50 201.965 49.1046 201.965 48C201.965 46.8954 200.957 46 199.715 46C198.472 46 197.465 46.8954 197.465 48C197.465 49.1046 198.472 50 199.715 50Z" fill="#3E5FBC"/>
<path d="M199.715 27C200.957 27 201.965 26.1046 201.965 25C201.965 23.8954 200.957 23 199.715 23C198.472 23 197.465 23.8954 197.465 25C197.465 26.1046 198.472 27 199.715 27Z" fill="#3E5FBC"/>
<path d="M199.715 4C200.957 4 201.965 3.10457 201.965 2C201.965 0.89543 200.957 0 199.715 0C198.472 0 197.465 0.89543 197.465 2C197.465 3.10457 198.472 4 199.715 4Z" fill="#3E5FBC"/>
<path d="M227.84 50C229.082 50 230.09 49.1046 230.09 48C230.09 46.8954 229.082 46 227.84 46C226.597 46 225.59 46.8954 225.59 48C225.59 49.1046 226.597 50 227.84 50Z" fill="#3E5FBC"/>
<path d="M227.84 27C229.082 27 230.09 26.1046 230.09 25C230.09 23.8954 229.082 23 227.84 23C226.597 23 225.59 23.8954 225.59 25C225.59 26.1046 226.597 27 227.84 27Z" fill="#3E5FBC"/>
<path d="M227.84 4C229.082 4 230.09 3.10457 230.09 2C230.09 0.89543 229.082 0 227.84 0C226.597 0 225.59 0.89543 225.59 2C225.59 3.10457 226.597 4 227.84 4Z" fill="#3E5FBC"/>
<path d="M255.965 50C257.207 50 258.215 49.1046 258.215 48C258.215 46.8954 257.207 46 255.965 46C254.722 46 253.715 46.8954 253.715 48C253.715 49.1046 254.722 50 255.965 50Z" fill="#3E5FBC"/>
<path d="M255.965 27C257.207 27 258.215 26.1046 258.215 25C258.215 23.8954 257.207 23 255.965 23C254.722 23 253.715 23.8954 253.715 25C253.715 26.1046 254.722 27 255.965 27Z" fill="#3E5FBC"/>
<path d="M255.965 4C257.207 4 258.215 3.10457 258.215 2C258.215 0.89543 257.207 0 255.965 0C254.722 0 253.715 0.89543 253.715 2C253.715 3.10457 254.722 4 255.965 4Z" fill="#3E5FBC"/>
<path d="M284.09 50C285.332 50 286.34 49.1046 286.34 48C286.34 46.8954 285.332 46 284.09 46C282.847 46 281.84 46.8954 281.84 48C281.84 49.1046 282.847 50 284.09 50Z" fill="#3E5FBC"/>
<path d="M284.09 27C285.332 27 286.34 26.1046 286.34 25C286.34 23.8954 285.332 23 284.09 23C282.847 23 281.84 23.8954 281.84 25C281.84 26.1046 282.847 27 284.09 27Z" fill="#3E5FBC"/>
<path d="M284.09 4C285.332 4 286.34 3.10457 286.34 2C286.34 0.89543 285.332 0 284.09 0C282.847 0 281.84 0.89543 281.84 2C281.84 3.10457 282.847 4 284.09 4Z" fill="#3E5FBC"/>
<path d="M312.215 50C313.457 50 314.465 49.1046 314.465 48C314.465 46.8954 313.457 46 312.215 46C310.972 46 309.965 46.8954 309.965 48C309.965 49.1046 310.972 50 312.215 50Z" fill="#3E5FBC"/>
<path d="M312.215 27C313.457 27 314.465 26.1046 314.465 25C314.465 23.8954 313.457 23 312.215 23C310.972 23 309.965 23.8954 309.965 25C309.965 26.1046 310.972 27 312.215 27Z" fill="#3E5FBC"/>
<path d="M312.215 4C313.457 4 314.465 3.10457 314.465 2C314.465 0.89543 313.457 0 312.215 0C310.972 0 309.965 0.89543 309.965 2C309.965 3.10457 310.972 4 312.215 4Z" fill="#3E5FBC"/>
<path d="M340.34 50C341.582 50 342.59 49.1046 342.59 48C342.59 46.8954 341.582 46 340.34 46C339.097 46 338.09 46.8954 338.09 48C338.09 49.1046 339.097 50 340.34 50Z" fill="#3E5FBC"/>
<path d="M340.34 27C341.582 27 342.59 26.1046 342.59 25C342.59 23.8954 341.582 23 340.34 23C339.097 23 338.09 23.8954 338.09 25C338.09 26.1046 339.097 27 340.34 27Z" fill="#3E5FBC"/>
<path d="M340.34 4C341.582 4 342.59 3.10457 342.59 2C342.59 0.89543 341.582 0 340.34 0C339.097 0 338.09 0.89543 338.09 2C338.09 3.10457 339.097 4 340.34 4Z" fill="#3E5FBC"/>
<path d="M368.465 50C369.707 50 370.715 49.1046 370.715 48C370.715 46.8954 369.707 46 368.465 46C367.222 46 366.215 46.8954 366.215 48C366.215 49.1046 367.222 50 368.465 50Z" fill="#3E5FBC"/>
<path d="M368.465 27C369.707 27 370.715 26.1046 370.715 25C370.715 23.8954 369.707 23 368.465 23C367.222 23 366.215 23.8954 366.215 25C366.215 26.1046 367.222 27 368.465 27Z" fill="#3E5FBC"/>
<path d="M368.465 4C369.707 4 370.715 3.10457 370.715 2C370.715 0.89543 369.707 0 368.465 0C367.222 0 366.215 0.89543 366.215 2C366.215 3.10457 367.222 4 368.465 4Z" fill="#3E5FBC"/>
<path d="M396.59 50C397.832 50 398.84 49.1046 398.84 48C398.84 46.8954 397.832 46 396.59 46C395.347 46 394.34 46.8954 394.34 48C394.34 49.1046 395.347 50 396.59 50Z" fill="#3E5FBC"/>
<path d="M396.59 27C397.832 27 398.84 26.1046 398.84 25C398.84 23.8954 397.832 23 396.59 23C395.347 23 394.34 23.8954 394.34 25C394.34 26.1046 395.347 27 396.59 27Z" fill="#3E5FBC"/>
<path d="M396.59 4C397.832 4 398.84 3.10457 398.84 2C398.84 0.89543 397.832 0 396.59 0C395.347 0 394.34 0.89543 394.34 2C394.34 3.10457 395.347 4 396.59 4Z" fill="#3E5FBC"/>
</svg>
